<svg width="137" height="100" viewBox="0 0 137 100" fill="none" xmlns="http://www.w3.org/2000/svg">
<g clip-path="url(#clip0_4601_68374)">
<path d="M69.491 61.3206C72.5147 58.5557 74.3415 56.8542 76.1986 55.1861C84.1119 48.0794 86.6707 37.6237 81.8302 28.09C78.0229 20.593 73.1207 13.6725 68.2941 5.83008C64.0281 12.4346 60.3568 18.0092 56.7952 23.6557C48.1549 37.3553 52.213 52.3198 66.8881 60.2277C66.1762 46.175 67.2874 35.4085 68.3999 30.8753C68.3999 30.8689 67.2874 48.4352 69.491 61.3206Z" fill="#F0F0F0"/>
<path d="M67.3494 65.2601C68.957 72.2345 69.5126 77.9003 68.957 83.5673C70.0695 79.6005 70.0695 71.1006 68.957 64.8672C75.8032 65.4797 81.3429 67.546 85.4614 72.5042C89.1453 76.9307 87.7481 81.8144 84.4283 85.3973C79.9255 90.2515 74.6327 94.3583 69.529 98.5986L67.8433 100.011C67.8433 100.011 66.7535 98.5986 66.3238 98.2506C61.8298 94.6665 57.2036 91.1748 53.1619 87.0975C46.162 80.0346 47.9359 71.8531 57.0751 68.1649C60.0156 66.9668 63.2006 66.4043 67.3494 65.2601Z" fill="#F0F0F0"/>
<path d="M60.0609 64.3018C57.4656 65.7504 52.1048 67.5482 49.4187 69.5143C38.3721 77.5648 27.3821 77.1975 15.9676 70.245C11.2847 67.3954 6.09648 65.4191 0.575684 62.7762C6.90028 56.8896 13.3559 51.252 22.4195 50.0167C32.2969 48.6721 43.3826 58.6348 52.2786 61.4689C46.8725 60.4352 26.7031 60.9013 26.7031 60.9013C26.7031 60.9013 51.7268 62.0353 60.0609 64.3018Z" fill="#F0F0F0"/>
<path d="M83.4104 61.4688C98.9724 56.119 104.369 49.0367 114.049 49.9844C123.344 50.8949 129.736 56.9293 136.425 62.6169C129.526 66.0238 122.982 69.1662 116.519 72.4691C107.857 76.8918 99.4411 76.8147 91.0881 71.5997C87.1535 69.1431 83.4142 66.002 77.8594 63.7354C89.9215 62.7222 102.321 60.3349 116.219 60.9012C108.422 59.7686 94.5288 60.3349 83.4104 61.4688Z" fill="#F0F0F0"/>
<path d="M24.0356 14.4883C29.433 16.968 34.3276 19.5916 39.4792 21.4909C45.9651 23.8833 48.6953 28.4254 48.5945 35.1841C48.5353 39.165 49.8418 45.6013 52.0654 52.401C46.8596 47.4043 36.7264 39.4873 33.2214 33.2462C32.9178 33.5031 42.2737 47.5468 53.9452 57.5017C28.9227 50.702 15.5944 33.7625 24.0356 14.4883Z" fill="#F0F0F0"/>
<path d="M83.7275 56.6322C97.8646 43.9021 98.9721 39.3677 103.423 30.869C100.644 36.5348 92.3048 47.3065 85.0781 52.4008C87.8574 46.1687 87.7705 38.8887 87.7781 34.7627C87.7907 28.4805 90.3394 24.0848 96.3452 21.7155C101.778 19.5696 110.657 15.5694 112.324 13.8691C122.902 36.07 103.927 52.1838 83.7275 56.6322Z" fill="#F0F0F0"/>
<path d="M94.6888 0C95.4447 5.31648 97.492 10.4018 96.3896 14.6486C95.3956 18.4716 88.9702 21.2351 86.1846 28.0348C85.658 27.7562 87.2971 15.0017 88.4083 12.1688C87.2971 13.8691 85.0734 18.975 84.5165 24.6356C76.738 15.5693 79.4014 6.1268 94.6888 0Z" fill="#F0F0F0"/>
<path d="M132.752 27.4355C127.641 28.7493 122.245 28.7672 118.819 31.4242C115.731 33.8205 115.678 40.9271 110.573 46.1421C111.027 46.5274 121.968 40.1206 124.112 37.9915C122.994 39.6879 119.22 43.7292 114.294 46.4157C125.485 50.2875 133.032 44.1748 132.752 27.4355Z" fill="#F0F0F0"/>
<path d="M49.4979 11.603C50.0535 13.3033 51.166 20.103 51.166 27.469C47.2742 22.3695 43.6471 22.4222 41.7169 20.103C37.4535 14.983 38.5269 8.19223 43.0625 0.455078C49.5055 2.80255 54.608 7.0994 57.0471 13.4535C58.9496 18.4078 53.4691 22.4748 52.2785 25.7739C52.2772 22.9359 50.3534 14.3049 49.4979 11.603Z" fill="#F0F0F0"/>
<path d="M3.28584 28.5684C8.39591 29.8834 13.7932 29.9 17.2176 32.5583C20.3056 34.9546 20.3585 42.0612 25.4635 47.2762C25.0099 47.6615 14.0704 41.2534 11.9248 39.1243C13.0486 40.8207 16.8182 44.8633 21.7418 47.5498C10.5516 51.4215 3.00615 45.3089 3.28584 28.5684Z" fill="#F0F0F0"/>
</g>
<defs>
<clipPath id="clip0_4601_68374">
<rect width="135.849" height="100" fill="white" transform="translate(0.575684)"/>
</clipPath>
</defs>
</svg>
