<svg width="432" height="440" viewBox="0 0 432 440" fill="none" xmlns="http://www.w3.org/2000/svg">
<path d="M101.199 137.842C99.5985 198.065 141.087 284.182 241.181 284.182C341.274 284.182 486.663 140.814 410.958 137.842C262.6 144.405 247.974 76.6791 262.6 33.8055C288.796 -42.9777 104.349 19.2618 101.199 137.842Z" fill="#3F3D56"/>
<path d="M206.033 116.645L204.812 115.867L205.589 114.645L205.256 114.434L204.48 115.655L203.26 114.878L203.048 115.211L204.268 115.988L203.491 117.21L203.824 117.422L204.601 116.2L205.821 116.977L206.033 116.645Z" fill="#617FDE"/>
<path d="M289.967 197.26L288.746 196.482L289.523 195.26L289.19 195.049L288.414 196.271L287.193 195.493L286.981 195.826L288.202 196.603L287.425 197.825L287.758 198.037L288.534 196.816L289.755 197.593L289.967 197.26Z" fill="#FFB93E"/>
<path d="M149.911 194.347L148.69 193.57L149.467 192.348L149.134 192.136L148.358 193.358L147.137 192.58L146.926 192.913L148.146 193.691L147.369 194.913L147.702 195.125L148.478 193.903L149.699 194.68L149.911 194.347Z" fill="#617FDE"/>
<path d="M249.711 262.187L248.491 261.41L249.268 260.188L248.935 259.977L248.158 261.198L246.938 260.421L246.726 260.754L247.946 261.531L247.17 262.753L247.503 262.965L248.279 261.743L249.499 262.52L249.711 262.187Z" fill="#FFB93E"/>
<path d="M157.672 229.612L156.452 228.835L157.229 227.613L156.895 227.401L156.119 228.623L154.899 227.845L154.687 228.178L155.907 228.956L155.131 230.178L155.464 230.39L156.24 229.168L157.46 229.945L157.672 229.612Z" fill="#FFB93E"/>
<path d="M334.118 177.781L332.897 177.004L333.674 175.782L333.341 175.57L332.565 176.792L331.344 176.014L331.132 176.347L332.353 177.125L331.576 178.347L331.909 178.559L332.685 177.337L333.906 178.114L334.118 177.781Z" fill="#617FDE"/>
<path d="M132.596 128.001L131.376 127.224L132.153 126.002L131.82 125.791L131.043 127.012L129.823 126.235L129.611 126.568L130.831 127.345L130.055 128.567L130.388 128.779L131.164 127.557L132.384 128.334L132.596 128.001Z" fill="#FFB93E"/>
<path d="M234.691 141.437L232.982 140.349L234.069 138.639L233.604 138.342L232.516 140.052L230.808 138.964L230.511 139.431L232.22 140.519L231.133 142.229L231.599 142.526L232.686 140.816L234.394 141.904L234.691 141.437Z" fill="white"/>
<path d="M253.503 218.921L251.794 217.833L252.881 216.122L252.415 215.826L251.328 217.536L249.62 216.447L249.323 216.914L251.032 218.002L249.945 219.713L250.41 220.01L251.498 218.299L253.206 219.387L253.503 218.921Z" fill="white"/>
<path d="M173.196 164.043C174.185 164.043 174.987 163.24 174.987 162.25C174.987 161.26 174.185 160.457 173.196 160.457C172.207 160.457 171.405 161.26 171.405 162.25C171.405 163.24 172.207 164.043 173.196 164.043Z" fill="#617FDE"/>
<path d="M147.23 85.6605C148.219 85.6605 149.021 84.8577 149.021 83.8674C149.021 82.877 148.219 82.0742 147.23 82.0742C146.24 82.0742 145.438 82.877 145.438 83.8674C145.438 84.8577 146.24 85.6605 147.23 85.6605Z" fill="#F16F82"/>
<path d="M103.34 164.043C104.33 164.043 105.132 163.24 105.132 162.25C105.132 161.26 104.33 160.457 103.34 160.457C102.351 160.457 101.549 161.26 101.549 162.25C101.549 163.24 102.351 164.043 103.34 164.043Z" fill="#617FDE"/>
<path d="M225.139 98.2953C226.129 98.2953 226.93 97.4924 226.93 96.5021C226.93 95.5118 226.129 94.709 225.139 94.709C224.15 94.709 223.348 95.5118 223.348 96.5021C223.348 97.4924 224.15 98.2953 225.139 98.2953Z" fill="#FFB93E"/>
<path d="M192.679 203.829C193.668 203.829 194.47 203.026 194.47 202.036C194.47 201.045 193.668 200.243 192.679 200.243C191.69 200.243 190.888 201.045 190.888 202.036C190.888 203.026 191.69 203.829 192.679 203.829Z" fill="#F16F82"/>
<path d="M207.228 169.423C207.887 169.423 208.422 168.888 208.422 168.228C208.422 167.567 207.887 167.032 207.228 167.032C206.568 167.032 206.034 167.567 206.034 168.228C206.034 168.888 206.568 169.423 207.228 169.423Z" fill="#FFB93E"/>
<path d="M323.237 213.022C323.896 213.022 324.431 212.487 324.431 211.827C324.431 211.167 323.896 210.631 323.237 210.631C322.577 210.631 322.042 211.167 322.042 211.827C322.042 212.487 322.577 213.022 323.237 213.022Z" fill="#F16F82"/>
<path d="M253.007 155.795C253.666 155.795 254.201 155.26 254.201 154.6C254.201 153.94 253.666 153.404 253.007 153.404C252.347 153.404 251.812 153.94 251.812 154.6C251.812 155.26 252.347 155.795 253.007 155.795Z" fill="#F16F82"/>
<path d="M146.925 156.871C147.584 156.871 148.119 156.336 148.119 155.676C148.119 155.016 147.584 154.48 146.925 154.48C146.265 154.48 145.731 155.016 145.731 155.676C145.731 156.336 146.265 156.871 146.925 156.871Z" fill="#F16F82"/>
<path d="M221.556 60.0417C222.216 60.0417 222.75 59.5065 222.75 58.8463C222.75 58.1861 222.216 57.6509 221.556 57.6509C220.897 57.6509 220.362 58.1861 220.362 58.8463C220.362 59.5065 220.897 60.0417 221.556 60.0417Z" fill="#F16F82"/>
<path d="M172.599 115.629C173.258 115.629 173.793 115.094 173.793 114.434C173.793 113.773 173.258 113.238 172.599 113.238C171.939 113.238 171.405 113.773 171.405 114.434C171.405 115.094 171.939 115.629 172.599 115.629Z" fill="#617FDE"/>
<path d="M187.524 75.5822C188.183 75.5822 188.718 75.047 188.718 74.3868C188.718 73.7266 188.183 73.1914 187.524 73.1914C186.864 73.1914 186.33 73.7266 186.33 74.3868C186.33 75.047 186.864 75.5822 187.524 75.5822Z" fill="white"/>
<path d="M286.877 241.591C287.536 241.591 288.071 241.055 288.071 240.395C288.071 239.735 287.536 239.2 286.877 239.2C286.217 239.2 285.683 239.735 285.683 240.395C285.683 241.055 286.217 241.591 286.877 241.591Z" fill="white"/>
<path d="M364.089 194.739C365.078 194.739 365.88 193.936 365.88 192.946C365.88 191.956 365.078 191.153 364.089 191.153C363.1 191.153 362.298 191.956 362.298 192.946C362.298 193.936 363.1 194.739 364.089 194.739Z" fill="#617FDE"/>
<path d="M200.471 40.2108C201.46 40.2108 202.262 39.408 202.262 38.4176C202.262 37.4273 201.46 36.6245 200.471 36.6245C199.481 36.6245 198.679 37.4273 198.679 38.4176C198.679 39.408 199.481 40.2108 200.471 40.2108Z" fill="#617FDE"/>
<path d="M252.413 177.858C253.402 177.858 254.204 177.055 254.204 176.065C254.204 175.074 253.402 174.271 252.413 174.271C251.424 174.271 250.622 175.074 250.622 176.065C250.622 177.055 251.424 177.858 252.413 177.858Z" fill="#617FDE"/>
<path d="M212.441 239.467C215.739 239.467 218.412 236.791 218.412 233.49C218.412 230.189 215.739 227.513 212.441 227.513C209.144 227.513 206.471 230.189 206.471 233.49C206.471 236.791 209.144 239.467 212.441 239.467Z" fill="#617FDE"/>
<path d="M289.023 167.63C290.012 167.63 290.814 166.827 290.814 165.837C290.814 164.846 290.012 164.043 289.023 164.043C288.034 164.043 287.232 164.846 287.232 165.837C287.232 166.827 288.034 167.63 289.023 167.63Z" fill="white"/>
<path d="M54.8861 423.193C54.8861 423.193 51.5444 437.183 54.5823 437.791C57.6202 438.399 72.5058 438.203 76.1512 438.811C79.7966 439.419 87.3913 438.399 87.3913 435.662C87.3913 432.925 79.4929 431.1 79.4929 431.1C79.4929 431.1 68.2528 425.018 67.949 424.713C67.6452 424.409 54.8861 423.193 54.8861 423.193Z" fill="#040E0A"/>
<path d="M58.4641 323.302C58.4641 323.302 59.5537 335.665 59.5537 336.756C59.5537 337.847 53.0159 395.298 54.4687 406.934C55.9216 418.569 54.3342 422.285 54.3342 424.467C54.3342 426.649 66.0915 425.842 66.0915 425.842L78.8039 345.482L72.2661 321.484L58.4641 323.302Z" fill="#144A33"/>
<path d="M59.138 426.255C59.138 426.255 56.1001 437.204 59.138 437.812C62.1759 438.42 77.0615 437.115 80.7069 437.724C84.3523 438.332 91.947 438.42 91.947 435.683C91.947 432.946 84.0486 431.121 84.0486 431.121C84.0486 431.121 72.8084 425.039 72.5046 424.735C72.2008 424.431 59.138 426.255 59.138 426.255Z" fill="#040E0A"/>
<path d="M55.1942 308.757C55.1942 308.757 50.8356 319.302 55.9206 324.756C61.0055 330.211 66.8169 341.119 66.8169 341.846C66.8169 342.574 56.647 414.933 58.0999 419.66C59.5527 424.387 59.1895 427.296 58.8263 428.023C58.4631 428.75 62.4584 432.75 66.8169 432.75C71.1755 432.75 77.7133 429.478 78.4397 426.569C79.166 423.66 77.3501 398.57 77.7133 393.843C78.0764 389.116 92.6049 313.484 90.7889 311.666C88.9729 309.848 55.1942 308.757 55.1942 308.757Z" fill="#195E41"/>
<path d="M82.7999 225.126C89.6202 225.126 95.1491 219.591 95.1491 212.763C95.1491 205.935 89.6202 200.4 82.7999 200.4C75.9796 200.4 70.4507 205.935 70.4507 212.763C70.4507 219.591 75.9796 225.126 82.7999 225.126Z" fill="#9F616A"/>
<path d="M75.1704 218.944C75.1704 218.944 77.7129 232.398 75.8968 233.852C74.0808 235.307 89.6988 237.488 89.6988 237.488C89.6988 237.488 91.5149 219.671 91.8781 217.853C92.2413 216.035 75.1704 218.944 75.1704 218.944Z" fill="#9F616A"/>
<path d="M91.8793 236.398C91.8793 236.398 94.2221 223.586 76.4248 227.222C76.4248 227.222 60.1751 240.561 60.9015 252.924C61.6279 265.287 55.1949 301.121 55.9213 303.667C56.6478 306.212 51.5628 309.484 53.7421 310.575C55.9213 311.666 95.1482 318.211 96.2378 310.575C97.3275 302.939 95.8746 283.668 96.6011 280.032C97.3275 276.395 96.601 245.852 94.4218 242.216C92.2425 238.579 91.8793 236.398 91.8793 236.398Z" fill="#34C387"/>
<path d="M84.2522 325.12C84.2522 325.12 78.804 345.846 85.705 345.846C92.606 345.846 92.2428 324.393 92.2428 324.393L84.2522 325.12Z" fill="#9F616A"/>
<path d="M87.8294 214.826C87.6719 215.869 86.0636 216.302 83.7029 216.099L83.6993 216.098C82.6996 216.004 81.7084 215.835 80.7344 215.59C79.2611 215.227 78.431 216.54 77.8957 218.356C77.0168 221.353 76.9505 225.73 76.1774 226.3C70.7802 229.287 54.8325 209.263 63.0046 204.079C65.9152 202.233 75.7129 195.339 82.4819 196.732C89.251 198.125 86.5107 206.536 86.5107 206.536C86.5107 206.536 86.759 207.64 87.0406 209.058C87.4415 210.844 87.7126 212.658 87.8518 214.484C87.8517 214.598 87.8443 214.712 87.8294 214.826Z" fill="#2F2E41"/>
<path d="M88.6098 240.034C88.6098 240.034 76.2606 239.307 75.171 257.487C74.0814 275.668 74.4446 292.758 74.4446 293.122C74.4446 293.485 79.5295 328.029 84.2513 328.029C88.973 328.029 92.6052 327.302 93.6948 325.484C94.7844 323.665 90.7891 297.485 90.7891 297.485C90.7891 297.485 88.973 269.85 91.8787 261.124C94.7844 252.397 95.1476 241.125 88.6098 240.034Z" fill="#34C387"/>
<path opacity="0.1" d="M74.634 262.487L71.0518 301.339L82.9927 328.236L75.2311 300.741L74.634 261.89" fill="black"/>
<path opacity="0.1" d="M91.9475 266.671L92.8598 312.474L89.5593 287.591L91.9475 266.671Z" fill="black"/>
<path d="M153.882 439.177H0V437.918H154.11L153.882 439.177Z" fill="#3F3D56"/>
</svg>
