<svg width="373" height="360" viewBox="0 0 373 360" fill="none" xmlns="http://www.w3.org/2000/svg">
<path d="M55.8354 111.792C85.7292 111.792 109.963 87.6206 109.963 57.804C109.963 27.9875 85.7292 3.81641 55.8354 3.81641C25.9415 3.81641 1.70776 27.9875 1.70776 57.804C1.70776 87.6206 25.9415 111.792 55.8354 111.792Z" fill="#F0F0F0"/>
<path d="M55.9881 111.944C66.5654 111.962 76.9138 108.873 85.743 103.064C83.7485 92.1938 76.1571 91.5703 76.1571 91.5703H34.3065C34.3065 91.5703 27.1493 92.1557 24.9067 102.159C34.006 108.543 44.8633 111.961 55.9881 111.944Z" fill="#617FDE"/>
<path d="M55.4203 80.549C68.6728 80.549 79.416 69.8335 79.416 56.6153C79.416 43.3971 68.6728 32.6816 55.4203 32.6816C42.1678 32.6816 31.4246 43.3971 31.4246 56.6153C31.4246 69.8335 42.1678 80.549 55.4203 80.549Z" fill="#333333"/>
<path opacity="0.1" d="M46.9893 78.3213H63.7324V91.6802C63.7324 93.8941 62.8506 96.0173 61.2811 97.5828C59.7116 99.1482 57.5828 100.028 55.3632 100.028C53.1436 100.028 51.0148 99.1482 49.4453 97.5828C47.8758 96.0173 46.994 93.8941 46.994 91.6802V78.3213H46.9893Z" fill="#333333"/>
<path d="M48.5876 77.7021H62.1338C62.5577 77.7021 62.9643 77.8701 63.264 78.1691C63.5638 78.4681 63.7322 78.8736 63.7322 79.2965V91.061C63.7322 93.2749 62.8505 95.3982 61.281 96.9636C59.7114 98.5291 57.5827 99.4086 55.3631 99.4086C53.1434 99.4086 51.0147 98.5291 49.4452 96.9636C47.8756 95.3982 46.9939 93.2749 46.9939 91.061V79.2965C46.9939 78.8744 47.1616 78.4696 47.4604 78.1708C47.7591 77.8719 48.1645 77.7034 48.5876 77.7021Z" fill="#BE7C5E"/>
<path opacity="0.1" d="M47.0225 84.6266C52.4184 86.6381 58.3582 86.655 63.7656 84.6742V82.623H47.0225V84.6266Z" fill="#333333"/>
<path d="M55.4203 85.7453C68.6728 85.7453 79.416 75.0298 79.416 61.8116C79.416 48.5934 68.6728 37.8779 55.4203 37.8779C42.1678 37.8779 31.4246 48.5934 31.4246 61.8116C31.4246 75.0298 42.1678 85.7453 55.4203 85.7453Z" fill="#BE7C5E"/>
<path d="M40.8817 51.9415C41.1632 50.9088 41.5163 49.7714 42.4468 49.2336C43.1816 48.8053 44.0929 48.8719 44.9423 48.9147C51.5746 49.2764 58.1497 47.7678 64.6007 46.1925C68.2891 45.293 72.2351 44.1984 74.6208 41.2335C77.0065 38.2685 73.8955 28.9501 70.2645 27.8508C67.8787 27.1226 65.1113 28.479 62.8496 27.4129C61.8428 26.937 61.1032 26.0471 60.2348 25.3522C58.4551 23.9245 56.1695 23.3486 53.9556 22.8061C51.3694 22.1684 48.5733 21.5449 46.116 22.5681C44.2074 23.3582 42.8142 25.0286 41.0058 26.0185C37.5656 27.9222 33.3714 27.037 29.4302 27.0274C28.099 27.0274 26.51 27.294 25.9804 28.5123C25.6226 29.3404 25.9088 30.2827 25.947 31.1822C26.0615 34.0377 23.6997 36.2602 21.7195 38.3209C19.7393 40.3816 17.8689 43.3227 19.119 45.8831C19.5962 46.8588 20.4694 47.5964 20.9656 48.5625C21.8197 50.2378 21.3903 52.2604 21.7004 54.1117C22.0109 55.5165 22.5372 56.8649 23.2607 58.1094C24.7303 60.9648 32.1118 76.3369 35.5043 72.4296C37.1457 70.5259 37.4129 65.0244 38.0761 62.5496C38.9922 58.993 39.9274 55.4569 40.8817 51.9415Z" fill="#333333"/>
<path d="M38.348 65.1151C39.5813 65.1151 40.5811 63.2464 40.5811 60.9413C40.5811 58.6362 39.5813 56.7676 38.348 56.7676C37.1148 56.7676 36.115 58.6362 36.115 60.9413C36.115 63.2464 37.1148 65.1151 38.348 65.1151Z" fill="#BE7C5E"/>
<path d="M183.988 231.779C213.882 231.779 238.115 207.608 238.115 177.791C238.115 147.975 213.882 123.804 183.988 123.804C154.094 123.804 129.86 147.975 129.86 177.791C129.86 207.608 154.094 231.779 183.988 231.779Z" fill="#F0F0F0"/>
<path d="M184.035 231.994C194.606 232.008 204.947 228.919 213.771 223.113C211.777 212.244 204.185 211.62 204.185 211.62H162.349C162.349 211.62 155.192 212.205 152.949 222.209C162.05 228.594 172.909 232.012 184.035 231.994Z" fill="#80DDB6"/>
<path d="M183.463 202.716C197.893 202.716 209.591 191.048 209.591 176.655C209.591 162.262 197.893 150.594 183.463 150.594C169.032 150.594 157.334 162.262 157.334 176.655C157.334 191.048 169.032 202.716 183.463 202.716Z" fill="#E8524D"/>
<path opacity="0.1" d="M175.031 198.36H191.775V211.719C191.775 213.933 190.893 216.056 189.323 217.622C187.754 219.187 185.625 220.067 183.405 220.067C181.186 220.067 179.057 219.187 177.488 217.622C175.918 216.056 175.036 213.933 175.036 211.719V198.36H175.031Z" fill="#333333"/>
<path d="M176.63 197.742H190.176C190.386 197.742 190.594 197.783 190.788 197.864C190.982 197.944 191.158 198.061 191.307 198.209C191.455 198.357 191.573 198.533 191.653 198.726C191.733 198.92 191.775 199.127 191.775 199.337V211.101C191.775 212.197 191.558 213.283 191.138 214.296C190.717 215.308 190.101 216.229 189.323 217.004C188.546 217.779 187.624 218.394 186.608 218.813C185.593 219.233 184.505 219.449 183.406 219.449C182.306 219.449 181.218 219.233 180.203 218.813C179.187 218.394 178.265 217.779 177.488 217.004C176.71 216.229 176.094 215.308 175.673 214.296C175.253 213.283 175.036 212.197 175.036 211.101V199.337C175.036 198.914 175.205 198.508 175.505 198.209C175.804 197.91 176.211 197.742 176.635 197.742H176.63Z" fill="#FDA57D"/>
<path opacity="0.1" d="M175.065 204.667C180.461 206.678 186.401 206.695 191.808 204.714V202.663H175.065V204.667Z" fill="#333333"/>
<path d="M183.463 205.785C196.716 205.785 207.459 195.07 207.459 181.852C207.459 168.633 196.716 157.918 183.463 157.918C170.211 157.918 159.467 168.633 159.467 181.852C159.467 195.07 170.211 205.785 183.463 205.785Z" fill="#FDA57D"/>
<path d="M183.429 159.779C188.763 159.779 193.087 155.466 193.087 150.146C193.087 144.826 188.763 140.514 183.429 140.514C178.096 140.514 173.772 144.826 173.772 150.146C173.772 155.466 178.096 159.779 183.429 159.779Z" fill="#E8524D"/>
<path d="M183.429 146.986C186.931 146.986 189.771 144.154 189.771 140.661C189.771 137.168 186.931 134.336 183.429 134.336C179.927 134.336 177.088 137.168 177.088 140.661C177.088 144.154 179.927 146.986 183.429 146.986Z" fill="#E8524D"/>
<path d="M179.24 155.429C176.974 154.415 175.187 152.57 174.25 150.276C173.312 147.983 173.297 145.417 174.206 143.112C174.139 143.246 174.073 143.384 174.011 143.522C173.491 144.676 173.205 145.921 173.169 147.186C173.132 148.45 173.345 149.71 173.797 150.892C174.248 152.074 174.928 153.157 175.799 154.077C176.669 154.997 177.713 155.737 178.87 156.255C180.028 156.772 181.276 157.058 182.544 157.094C183.812 157.131 185.074 156.918 186.26 156.468C187.445 156.018 188.53 155.339 189.453 154.471C190.375 153.603 191.117 152.562 191.636 151.407C191.698 151.269 191.756 151.131 191.813 150.989C190.692 153.199 188.76 154.894 186.418 155.721C184.077 156.548 181.506 156.444 179.24 155.429Z" fill="#E8524D"/>
<path opacity="0.1" d="M166.376 160.083C166.376 160.083 176.487 180.548 205.025 168.65L198.383 158.261L186.612 154.044L166.376 160.083Z" fill="#333333"/>
<path d="M166.376 159.779C166.376 159.779 176.487 180.243 205.025 168.345L198.383 157.956L186.612 153.739L166.376 159.779Z" fill="#E8524D"/>
<path d="M174.168 152.325C180.39 151.837 186.64 151.837 192.862 152.325C192.862 152.325 179.054 153.605 174.168 152.325Z" fill="#333333"/>
<path d="M184.88 133.951C184.4 133.933 183.92 133.97 183.449 134.06H183.816C185.378 134.11 186.866 134.733 187.995 135.811C189.124 136.889 189.814 138.344 189.932 139.898C190.05 141.452 189.589 142.995 188.636 144.23C187.683 145.466 186.307 146.306 184.77 146.591C186.451 146.606 188.069 145.955 189.268 144.78C190.467 143.606 191.149 142.004 191.164 140.328C191.179 138.652 190.526 137.038 189.349 135.842C188.171 134.646 186.566 133.966 184.885 133.951H184.88Z" fill="#E8524D"/>
<path d="M159.462 186.001C160.696 186.001 161.695 184.132 161.695 181.827C161.695 179.522 160.696 177.653 159.462 177.653C158.229 177.653 157.229 179.522 157.229 181.827C157.229 184.132 158.229 186.001 159.462 186.001Z" fill="#FDA57D"/>
<path d="M207.458 186.001C208.692 186.001 209.691 184.132 209.691 181.827C209.691 179.522 208.692 177.653 207.458 177.653C206.225 177.653 205.225 179.522 205.225 181.827C205.225 184.132 206.225 186.001 207.458 186.001Z" fill="#FDA57D"/>
<path d="M164.864 160.383L169.544 157.975L170.599 161.834L167.731 163.781L164.864 160.383Z" fill="#E8524D"/>
<path d="M183.83 109.084C213.724 109.084 237.958 84.9126 237.958 55.096C237.958 25.2795 213.724 1.1084 183.83 1.1084C153.936 1.1084 129.703 25.2795 129.703 55.096C129.703 84.9126 153.936 109.084 183.83 109.084Z" fill="#F0F0F0"/>
<path d="M162.716 55.5771C162.716 55.5771 156.58 85.731 153.231 84.0606C153.231 84.0606 185.534 111.892 214.057 84.0606C214.057 84.0606 209.033 62.811 201.78 55.5771H162.716Z" fill="#333333"/>
<path d="M183.983 109.246C194.56 109.263 204.909 106.175 213.738 100.365C211.744 89.4955 204.152 88.8721 204.152 88.8721H162.297C162.297 88.8721 155.14 89.4574 152.897 99.4612C161.998 105.846 172.857 109.264 183.983 109.246Z" fill="#FFDEA4"/>
<path d="M183.41 77.8401C196.663 77.8401 207.406 67.1246 207.406 53.9064C207.406 40.6881 196.663 29.9727 183.41 29.9727C170.158 29.9727 159.415 40.6881 159.415 53.9064C159.415 67.1246 170.158 77.8401 183.41 77.8401Z" fill="#333333"/>
<path opacity="0.1" d="M174.979 75.6133H191.722V88.9722C191.722 91.1836 190.842 93.3047 189.276 94.8697C187.709 96.4348 185.584 97.3159 183.367 97.3197C181.148 97.3197 179.019 96.4402 177.449 94.8748C175.88 93.3093 174.998 91.1861 174.998 88.9722V75.6133H174.979Z" fill="#333333"/>
<path d="M176.578 74.9941H190.124C190.548 74.9941 190.954 75.1621 191.254 75.4611C191.554 75.7601 191.722 76.1656 191.722 76.5884V88.353C191.722 90.5645 190.842 92.6855 189.276 94.2506C187.71 95.8156 185.585 96.6968 183.367 96.7006C181.148 96.7006 179.019 95.8211 177.45 94.2556C175.88 92.6902 174.998 90.5669 174.998 88.353V76.5837C175 76.165 175.166 75.7635 175.461 75.4661C175.757 75.1687 176.158 74.9991 176.578 74.9941Z" fill="#BE7C5E"/>
<path opacity="0.1" d="M175.012 81.9196C180.408 83.9311 186.348 83.948 191.756 81.9672V79.916H175.012V81.9196Z" fill="#333333"/>
<path d="M183.41 83.0324C196.663 83.0324 207.406 72.3169 207.406 59.0987C207.406 45.8805 196.663 35.165 183.41 35.165C170.158 35.165 159.415 45.8805 159.415 59.0987C159.415 72.3169 170.158 83.0324 183.41 83.0324Z" fill="#BE7C5E"/>
<path d="M160.474 50.0089H206.232C206.232 50.0089 202.324 31.5816 185.028 32.7571C167.731 33.9326 160.474 50.0089 160.474 50.0089Z" fill="#333333"/>
<path d="M159.911 62.2538C161.144 62.2538 162.144 60.3851 162.144 58.08C162.144 55.7749 161.144 53.9062 159.911 53.9062C158.677 53.9062 157.678 55.7749 157.678 58.08C157.678 60.3851 158.677 62.2538 159.911 62.2538Z" fill="#BE7C5E"/>
<path d="M206.786 62.2538C208.019 62.2538 209.019 60.3851 209.019 58.08C209.019 55.7749 208.019 53.9062 206.786 53.9062C205.552 53.9062 204.553 55.7749 204.553 58.08C204.553 60.3851 205.552 62.2538 206.786 62.2538Z" fill="#BE7C5E"/>
<path opacity="0.1" d="M160.474 50.6281H206.232C206.232 50.6281 202.324 32.2007 185.028 33.3762C167.731 34.5517 160.474 50.6281 160.474 50.6281Z" fill="#333333"/>
<path d="M315.752 108.784C345.645 108.784 369.879 84.6128 369.879 54.7962C369.879 24.9797 345.645 0.808594 315.752 0.808594C285.858 0.808594 261.624 24.9797 261.624 54.7962C261.624 84.6128 285.858 108.784 315.752 108.784Z" fill="#F0F0F0"/>
<path d="M315.8 109.004C326.377 109.021 336.725 105.932 345.555 100.123C343.555 89.2484 335.969 88.625 335.969 88.625H294.118C294.118 88.625 286.961 89.2104 284.718 99.2141C293.817 105.6 304.674 109.019 315.8 109.004Z" fill="#F38696"/>
<path d="M315.232 79.7197C329.662 79.7197 341.36 68.0518 341.36 53.6587C341.36 39.2656 329.662 27.5977 315.232 27.5977C300.801 27.5977 289.103 39.2656 289.103 53.6587C289.103 68.0518 300.801 79.7197 315.232 79.7197Z" fill="#72351C"/>
<path opacity="0.1" d="M306.796 75.3652H323.539V88.7241C323.541 89.8215 323.326 90.9085 322.906 91.923C322.486 92.9374 321.87 93.8593 321.092 94.6359C320.315 95.4126 319.392 96.0287 318.376 96.4491C317.359 96.8695 316.27 97.0859 315.17 97.0859C312.95 97.0859 310.821 96.2064 309.252 94.641C307.682 93.0755 306.8 90.9523 306.8 88.7384V75.3652H306.796Z" fill="#333333"/>
<path d="M308.38 74.7471H321.926C322.35 74.7471 322.757 74.915 323.056 75.214C323.356 75.513 323.524 75.9185 323.524 76.3414V88.106C323.524 90.3199 322.643 92.4431 321.073 94.0085C319.504 95.574 317.375 96.4535 315.155 96.4535C312.936 96.4535 310.807 95.574 309.237 94.0085C307.668 92.4431 306.786 90.3199 306.786 88.106V76.3414C306.786 75.9185 306.955 75.513 307.254 75.214C307.554 74.915 307.961 74.7471 308.385 74.7471H308.38Z" fill="#FDA57D"/>
<path opacity="0.1" d="M306.815 81.6716C312.211 83.6831 318.151 83.7 323.558 81.7192V79.668H306.815V81.6716Z" fill="#333333"/>
<path d="M315.232 82.7902C328.484 82.7902 339.228 72.0748 339.228 58.8565C339.228 45.6383 328.484 34.9229 315.232 34.9229C301.979 34.9229 291.236 45.6383 291.236 58.8565C291.236 72.0748 301.979 82.7902 315.232 82.7902Z" fill="#FDA57D"/>
<path opacity="0.1" d="M298.14 37.0872C298.14 37.0872 308.251 57.5515 336.789 45.6536L330.147 35.2644L318.376 31.0479L298.14 37.0872Z" fill="#333333"/>
<path d="M298.14 36.7884C298.14 36.7884 308.251 57.2527 336.789 45.3548L330.147 34.9656L318.376 30.749L298.14 36.7884Z" fill="#72351C"/>
<path d="M298.05 35.4027C298.732 33.2977 299.91 31.3866 301.485 29.8298C306.204 25.1754 313.944 24.195 317.914 18.8838C318.129 19.2597 318.264 19.6765 318.308 20.1073C318.352 20.5382 318.305 20.9735 318.17 21.3852C318.035 21.7969 317.815 22.1758 317.525 22.4974C317.234 22.8191 316.879 23.0764 316.482 23.2527C320.299 23.2289 324.694 22.8957 326.841 19.7737C327.372 21.0074 327.542 22.3662 327.33 23.6922C327.118 25.0182 326.533 26.257 325.643 27.2646C329.012 27.4169 332.61 29.6965 332.829 33.0565C332.972 35.2933 331.57 37.4111 329.723 38.6961C327.876 39.981 325.653 40.5569 323.458 41.0328C317.055 42.4605 293.87 48.3666 298.05 35.4027Z" fill="#72351C"/>
<path d="M339.227 59.0654H338.593L326.216 70.0638C314.287 64.4956 305.536 70.0638 305.536 70.0638L292.558 59.5271L291.25 59.6889C291.427 65.9707 294.074 71.9311 298.62 76.2829C303.165 80.6347 309.244 83.0288 315.544 82.9482C321.844 82.8676 327.86 80.3188 332.292 75.8521C336.724 71.3854 339.217 65.3592 339.232 59.0749L339.227 59.0654ZM315.198 74.2709C310.532 74.2709 306.748 73.3191 306.748 72.1626C306.748 71.0061 310.532 70.0543 315.198 70.0543C319.865 70.0543 323.649 71.0061 323.649 72.1626C323.649 73.3191 319.865 74.2709 315.193 74.2709H315.198Z" fill="#72351C"/>
<path d="M291.226 63.0057C292.46 63.0057 293.459 61.1371 293.459 58.832C293.459 56.5269 292.46 54.6582 291.226 54.6582C289.993 54.6582 288.993 56.5269 288.993 58.832C288.993 61.1371 289.993 63.0057 291.226 63.0057Z" fill="#FDA57D"/>
<path d="M339.223 63.0057C340.456 63.0057 341.456 61.1371 341.456 58.832C341.456 56.5269 340.456 54.6582 339.223 54.6582C337.99 54.6582 336.99 56.5269 336.99 58.832C336.99 61.1371 337.99 63.0057 339.223 63.0057Z" fill="#FDA57D"/>
<path d="M55.5446 228.168C85.4384 228.168 109.672 203.997 109.672 174.18C109.672 144.363 85.4384 120.192 55.5446 120.192C25.6507 120.192 1.41699 144.363 1.41699 174.18C1.41699 203.997 25.6507 228.168 55.5446 228.168Z" fill="#F0F0F0"/>
<path d="M55.5923 228.381C66.1679 228.397 76.5145 225.309 85.3424 219.5C83.3479 208.63 75.7565 208.007 75.7565 208.007H33.8869C33.8869 208.007 26.7297 208.592 24.4871 218.596C33.5929 224.984 44.4594 228.403 55.5923 228.381Z" fill="#EE7E7A"/>
<path d="M55.0195 199.103C69.4499 199.103 81.148 187.435 81.148 173.042C81.148 158.648 69.4499 146.98 55.0195 146.98C40.589 146.98 28.8909 158.648 28.8909 173.042C28.8909 187.435 40.589 199.103 55.0195 199.103Z" fill="#333333"/>
<path opacity="0.1" d="M46.5881 194.749H63.3312V208.108C63.3312 210.322 62.4495 212.445 60.88 214.011C59.3104 215.576 57.1817 216.455 54.9621 216.455C52.7424 216.455 50.6137 215.576 49.0442 214.011C47.4747 212.445 46.5929 210.322 46.5929 208.108V194.749H46.5881Z" fill="#333333"/>
<path d="M48.1866 194.13H61.7328C62.1567 194.13 62.5633 194.298 62.8631 194.597C63.1628 194.896 63.3312 195.301 63.3312 195.724V207.498C63.3312 209.712 62.4495 211.835 60.88 213.401C59.3104 214.966 57.1817 215.846 54.9621 215.846C53.8626 215.846 52.7738 215.631 51.7579 215.212C50.7419 214.792 49.8187 214.178 49.0411 213.402C48.2634 212.627 47.6465 211.707 47.2257 210.694C46.8048 209.681 46.5881 208.595 46.5881 207.498V195.719C46.5881 195.296 46.7565 194.891 47.0563 194.592C47.3561 194.293 47.7626 194.125 48.1866 194.125V194.13Z" fill="#FDB797"/>
<path opacity="0.1" d="M46.6218 201.054C52.0177 203.066 57.9576 203.082 63.3649 201.102V199.036H46.6218V201.054Z" fill="#333333"/>
<path d="M55.0194 202.173C68.2719 202.173 79.0151 191.458 79.0151 178.239C79.0151 165.021 68.2719 154.306 55.0194 154.306C41.7669 154.306 31.0237 165.021 31.0237 178.239C31.0237 191.458 41.7669 202.173 55.0194 202.173Z" fill="#FDB797"/>
<path opacity="0.1" d="M37.9329 156.466C37.9329 156.466 48.0436 176.93 76.5818 165.033L69.9399 154.643L58.1687 150.427L37.9329 156.466Z" fill="#333333"/>
<path d="M37.9329 156.166C37.9329 156.166 48.0436 176.631 76.5818 164.733L69.9399 154.344L58.1687 150.127L37.9329 156.166Z" fill="#333333"/>
<path d="M37.8422 154.777C38.5239 152.672 39.702 150.761 41.2777 149.204C45.9967 144.549 53.736 143.569 57.7059 138.258C57.9216 138.634 58.0558 139.051 58.1 139.481C58.1443 139.912 58.0974 140.348 57.9625 140.759C57.8276 141.171 57.6077 141.55 57.317 141.871C57.0262 142.193 56.671 142.45 56.2744 142.627C60.0916 142.603 64.4861 142.27 66.6333 139.148C67.1647 140.381 67.3342 141.74 67.1222 143.066C66.9102 144.392 66.3254 145.631 65.4356 146.639C68.8043 146.791 72.402 149.071 72.6215 152.431C72.7646 154.667 71.3618 156.785 69.5152 158.07C67.6687 159.355 65.4404 159.94 63.2455 160.426C56.8422 161.844 33.6624 167.75 37.8422 154.777Z" fill="#333333"/>
<path d="M31.0141 182.389C32.2473 182.389 33.2471 180.521 33.2471 178.216C33.2471 175.911 32.2473 174.042 31.0141 174.042C29.7808 174.042 28.781 175.911 28.781 178.216C28.781 180.521 29.7808 182.389 31.0141 182.389Z" fill="#FDB797"/>
<path d="M79.0104 182.389C80.2437 182.389 81.2435 180.521 81.2435 178.216C81.2435 175.911 80.2437 174.042 79.0104 174.042C77.7771 174.042 76.7773 175.911 76.7773 178.216C76.7773 180.521 77.7771 182.389 79.0104 182.389Z" fill="#FDB797"/>
<path d="M317.709 234.335C347.602 234.335 371.836 210.164 371.836 180.347C371.836 150.53 347.602 126.359 317.709 126.359C287.815 126.359 263.581 150.53 263.581 180.347C263.581 210.164 287.815 234.335 317.709 234.335Z" fill="#F0F0F0"/>
<path d="M317.861 234.497C328.438 234.514 338.786 231.426 347.616 225.616C345.621 214.746 338.03 214.123 338.03 214.123H296.174C296.174 214.123 289.017 214.708 286.775 224.712C295.875 231.097 306.734 234.515 317.861 234.497Z" fill="#FFB93E"/>
<path opacity="0.1" d="M308.857 200.864H325.6V214.223C325.6 216.437 324.719 218.56 323.149 220.126C321.58 221.691 319.451 222.571 317.231 222.571C316.132 222.571 315.043 222.356 314.027 221.937C313.011 221.517 312.088 220.903 311.31 220.127C310.532 219.352 309.916 218.432 309.495 217.419C309.074 216.406 308.857 215.32 308.857 214.223V200.864Z" fill="#333333"/>
<path d="M310.456 200.245H324.002C324.426 200.245 324.832 200.413 325.132 200.712C325.432 201.011 325.6 201.417 325.6 201.839V213.604C325.6 215.818 324.719 217.941 323.149 219.507C321.58 221.072 319.451 221.951 317.231 221.951C316.132 221.952 315.043 221.737 314.027 221.317C313.011 220.898 312.088 220.283 311.31 219.508C310.532 218.733 309.916 217.813 309.495 216.8C309.074 215.786 308.857 214.701 308.857 213.604V201.839C308.857 201.417 309.026 201.011 309.325 200.712C309.625 200.413 310.032 200.245 310.456 200.245Z" fill="#FDB797"/>
<path opacity="0.1" d="M308.89 207.17C314.286 209.181 320.226 209.198 325.633 207.217V205.166H308.89V207.17Z" fill="#333333"/>
<path d="M317.288 208.288C330.541 208.288 341.284 197.573 341.284 184.355C341.284 171.136 330.541 160.421 317.288 160.421C304.036 160.421 293.293 171.136 293.293 184.355C293.293 197.573 304.036 208.288 317.288 208.288Z" fill="#FDB797"/>
<path d="M293.789 187.505C295.022 187.505 296.022 185.636 296.022 183.331C296.022 181.026 295.022 179.157 293.789 179.157C292.555 179.157 291.556 181.026 291.556 183.331C291.556 185.636 292.555 187.505 293.789 187.505Z" fill="#FDB797"/>
<path d="M340.663 187.505C341.897 187.505 342.897 185.636 342.897 183.331C342.897 181.026 341.897 179.157 340.663 179.157C339.43 179.157 338.43 181.026 338.43 183.331C338.43 185.636 339.43 187.505 340.663 187.505Z" fill="#FDB797"/>
<path d="M310.856 184.469H304.744C303.598 184.469 302.668 185.396 302.668 186.539V187.519C302.668 188.663 303.598 189.59 304.744 189.59H310.856C312.003 189.59 312.932 188.663 312.932 187.519V186.539C312.932 185.396 312.003 184.469 310.856 184.469Z" stroke="#333333" stroke-width="2" stroke-miterlimit="10"/>
<path d="M323.725 189.585H329.837C330.983 189.585 331.913 188.658 331.913 187.515V186.534C331.913 185.391 330.983 184.464 329.837 184.464H323.725C322.578 184.464 321.649 185.391 321.649 186.534V187.515C321.649 188.658 322.578 189.585 323.725 189.585Z" stroke="#333333" stroke-width="2" stroke-miterlimit="10"/>
<path d="M312.541 184.964C312.541 184.964 315.795 183.203 321.845 184.964" stroke="#333333" stroke-width="2" stroke-miterlimit="10"/>
<path d="M333.879 167.008L339.767 180.652C339.767 180.652 346.967 171.6 333.879 167.008Z" fill="#808080"/>
<path d="M331.913 187.029L340.702 179.2" stroke="#333333" stroke-width="2" stroke-linecap="round" stroke-linejoin="round"/>
<path d="M300.707 167.008L294.819 180.652C294.819 180.652 287.619 171.6 300.707 167.008Z" fill="#808080"/>
<path d="M302.669 187.029L293.76 179.2" stroke="#333333" stroke-width="2" stroke-linecap="round" stroke-linejoin="round"/>
<path d="M55.8354 352.21C85.7292 352.21 109.963 328.039 109.963 298.222C109.963 268.405 85.7292 244.234 55.8354 244.234C25.9415 244.234 1.70776 268.405 1.70776 298.222C1.70776 328.039 25.9415 352.21 55.8354 352.21Z" fill="#F0F0F0"/>
<path d="M85.7765 303.076C85.7765 322.96 72.7695 345.095 56.723 345.095C40.6765 345.095 27.6838 322.96 27.6838 303.076C27.6838 283.193 40.6909 273.094 56.7373 273.094C72.7838 273.094 85.7765 283.197 85.7765 303.076Z" fill="#FFDEA4"/>
<path d="M55.9881 352.376C66.5654 352.393 76.9138 349.305 85.743 343.495C83.7485 332.625 76.1571 332.002 76.1571 332.002H34.3065C34.3065 332.002 27.1493 332.587 24.9067 342.591C34.006 348.975 44.8633 352.393 55.9881 352.376Z" fill="#2A9A6B"/>
<path opacity="0.1" d="M46.9893 318.738H63.7324V332.097C63.7324 334.311 62.8506 336.434 61.2811 338C59.7116 339.565 57.5828 340.445 55.3632 340.445C53.1436 340.445 51.0148 339.565 49.4453 338C47.8758 336.434 46.994 334.311 46.994 332.097V318.738H46.9893Z" fill="#333333"/>
<path d="M48.5876 318.12H62.1338C62.5577 318.12 62.9643 318.288 63.264 318.587C63.5638 318.886 63.7322 319.292 63.7322 319.714V331.479C63.7322 333.693 62.8505 335.816 61.281 337.382C59.7114 338.947 57.5827 339.827 55.3631 339.827C53.1434 339.827 51.0147 338.947 49.4452 337.382C47.8756 335.816 46.9939 333.693 46.9939 331.479V319.714C46.9939 319.292 47.1616 318.888 47.4604 318.589C47.7591 318.29 48.1645 318.121 48.5876 318.12Z" fill="#FDB797"/>
<path opacity="0.1" d="M47.0225 325.044C52.4184 327.055 58.3582 327.072 63.7656 325.091V323.04H47.0225V325.044Z" fill="#333333"/>
<path d="M55.4203 326.162C68.6728 326.162 79.416 315.447 79.416 302.229C79.416 289.01 68.6728 278.295 55.4203 278.295C42.1678 278.295 31.4246 289.01 31.4246 302.229C31.4246 315.447 42.1678 326.162 55.4203 326.162Z" fill="#FDB797"/>
<path d="M31.9208 305.38C33.1541 305.38 34.1538 303.511 34.1538 301.206C34.1538 298.901 33.1541 297.032 31.9208 297.032C30.6875 297.032 29.6877 298.901 29.6877 301.206C29.6877 303.511 30.6875 305.38 31.9208 305.38Z" fill="#FDB797"/>
<path d="M78.7958 305.38C80.0291 305.38 81.0288 303.511 81.0288 301.206C81.0288 298.901 80.0291 297.032 78.7958 297.032C77.5625 297.032 76.5627 298.901 76.5627 301.206C76.5627 303.511 77.5625 305.38 78.7958 305.38Z" fill="#FDB797"/>
<path opacity="0.1" d="M34.1587 289.246C34.1587 289.246 47.724 307.764 78.834 301.439C78.834 301.439 82.3076 297.222 73.8526 284.277C65.3975 271.332 41.8551 273.441 34.1587 289.246Z" fill="#333333"/>
<path d="M34.1587 288.946C34.1587 288.946 47.724 307.464 78.834 301.139C78.834 301.139 82.3076 296.922 73.8526 283.978C65.3975 271.033 41.8551 273.141 34.1587 288.946Z" fill="#FFDEA4"/>
<path d="M187.308 358.482C217.202 358.482 241.436 334.311 241.436 304.494C241.436 274.678 217.202 250.507 187.308 250.507C157.414 250.507 133.181 274.678 133.181 304.494C133.181 334.311 157.414 358.482 187.308 358.482Z" fill="#F0F0F0"/>
<path d="M217.087 309.815C217.087 327.776 204.152 336.614 187.351 336.614C170.551 336.614 156.26 327.776 156.26 309.815C156.26 291.854 169.878 277.296 186.674 277.296C203.469 277.296 217.087 291.84 217.087 309.815Z" fill="#333333"/>
<path d="M187.352 358.696C197.931 358.714 208.281 355.626 217.111 349.816C215.117 338.946 207.525 338.322 207.525 338.322H165.67C165.67 338.322 158.513 338.908 156.27 348.911C165.369 355.295 176.227 358.713 187.352 358.696Z" fill="#B5C3F0"/>
<path opacity="0.1" d="M178.353 325.049H195.096V338.408C195.098 339.507 194.882 340.595 194.461 341.611C194.04 342.627 193.422 343.549 192.643 344.326C191.863 345.103 190.938 345.719 189.919 346.138C188.901 346.558 187.809 346.772 186.708 346.77C184.488 346.77 182.359 345.89 180.79 344.325C179.22 342.759 178.338 340.636 178.338 338.422V325.049H178.353Z" fill="#333333"/>
<path d="M179.946 324.444H193.493C193.917 324.444 194.323 324.612 194.623 324.911C194.923 325.21 195.091 325.616 195.091 326.039V337.803C195.091 338.901 194.874 339.987 194.453 341.001C194.031 342.015 193.413 342.935 192.635 343.711C191.856 344.486 190.932 345.101 189.915 345.519C188.898 345.938 187.808 346.153 186.708 346.151C184.488 346.151 182.359 345.271 180.79 343.706C179.22 342.14 178.338 340.017 178.338 337.803V326.034C178.338 325.611 178.507 325.205 178.807 324.906C179.106 324.607 179.513 324.439 179.937 324.439L179.946 324.444Z" fill="#FDA57D"/>
<path opacity="0.1" d="M178.386 331.369C183.782 333.38 189.722 333.397 195.129 331.416V329.365H178.386V331.369Z" fill="#333333"/>
<path d="M186.784 332.483C200.036 332.483 210.779 321.767 210.779 308.549C210.779 295.331 200.036 284.615 186.784 284.615C173.531 284.615 162.788 295.331 162.788 308.549C162.788 321.767 173.531 332.483 186.784 332.483Z" fill="#FDA57D"/>
<path opacity="0.1" d="M159.128 310.115C159.128 310.115 174.072 308.307 185.371 293.858C185.371 293.858 200.316 310.268 210.727 308.459C210.727 308.459 216.763 302.134 210.727 295.814C204.691 289.494 200.01 281.513 192.013 282.565C184.016 283.617 174.201 284.069 169.978 287.833C165.756 291.598 159.128 310.115 159.128 310.115Z" fill="#333333"/>
<path d="M159.128 309.815C159.128 309.815 174.072 308.006 185.371 293.557C185.371 293.557 200.316 309.967 210.727 308.158C210.727 308.158 216.763 301.834 210.727 295.513C204.691 289.193 200.01 281.212 192.013 282.264C184.016 283.316 174.22 283.749 169.998 287.556C165.775 291.363 159.128 309.815 159.128 309.815Z" fill="#333333"/>
<path d="M162.779 312.704C164.012 312.704 165.012 310.835 165.012 308.53C165.012 306.225 164.012 304.356 162.779 304.356C161.545 304.356 160.546 306.225 160.546 308.53C160.546 310.835 161.545 312.704 162.779 312.704Z" fill="#FDA57D"/>
<path d="M210.775 312.704C212.008 312.704 213.008 310.835 213.008 308.53C213.008 306.225 212.008 304.356 210.775 304.356C209.542 304.356 208.542 306.225 208.542 308.53C208.542 310.835 209.542 312.704 210.775 312.704Z" fill="#FDA57D"/>
</svg>
