<svg width="507" height="276" viewBox="0 0 507 276" fill="none" xmlns="http://www.w3.org/2000/svg">
<path d="M24.8452 273.187C24.8452 273.187 -10.9665 232.921 6.73275 155.161C17.8734 106.255 65.1491 76.1228 127.357 84.3308C184.947 91.9268 183.994 61.4348 234.379 32.3108C342.173 -29.9512 498.088 -3.50921 460.785 136.549C442.726 204.337 517.584 205.417 480.389 273.169H24.8452V273.187Z" fill="#E5F8F0"/>
<path d="M330.262 21.676L325.231 21.4419H325.105C324.494 21.4239 323.955 21.8559 323.866 22.4499L323.219 26.6079C323.201 26.6799 323.201 26.752 323.165 26.806C323.003 27.238 322.608 27.5799 322.141 27.5979C319.355 27.8319 316.642 28.6059 314.162 29.9019C314.055 29.9559 313.947 29.9919 313.839 30.0099C313.426 30.0819 312.995 29.9379 312.707 29.6319L310.407 26.986C310.102 26.644 309.616 26.5 309.185 26.626C309.059 26.662 308.916 26.716 308.808 26.806L304.585 29.7579C304.064 30.1179 303.902 30.8379 304.226 31.3779L306.562 35.4279C306.795 35.8239 306.777 36.3279 306.508 36.7059C306.13 37.2639 305.789 37.8219 305.466 38.4159C304.855 39.5319 304.37 40.6659 303.974 41.8179C303.813 42.3039 303.381 42.6279 302.878 42.6459L298.134 42.8439L297.901 42.8619C297.29 42.8799 296.787 43.3659 296.769 43.9959L296.535 49.1439C296.517 49.7739 296.948 50.3319 297.577 50.4219L302.195 51.1419C302.716 51.2139 303.112 51.6279 303.202 52.1319C303.579 54.2739 304.28 56.3619 305.304 58.2879C305.556 58.7739 305.448 59.3859 305.016 59.7459L301.89 62.4999C301.423 62.9139 301.333 63.6159 301.692 64.1379L304.657 68.3859C305.016 68.8899 305.681 69.0339 306.202 68.7279L310.946 65.9739C311.341 65.7399 311.845 65.7579 312.24 66.0099C312.725 66.3339 313.21 66.6219 313.731 66.9099C314.702 67.4499 315.69 67.8819 316.678 68.2599C317.127 68.4219 317.451 68.8359 317.469 69.3219L317.684 75.0279C317.72 75.6579 318.205 76.1619 318.834 76.1799L323.991 76.4139C324.53 76.4319 325.034 76.0719 325.195 75.5679C325.213 75.5139 325.231 75.4599 325.231 75.4059L326.04 70.2579C326.112 69.7719 326.453 69.3939 326.92 69.2679C326.956 69.2499 327.01 69.2499 327.046 69.2319C327.172 69.2139 327.298 69.1959 327.423 69.1599C328.897 68.9079 330.334 68.4939 331.736 67.9359C332.203 67.7379 332.742 67.8819 333.066 68.2599L335.958 71.5719C336.372 72.0399 337.073 72.1299 337.576 71.7699L338.51 71.1219L341.78 68.8179C342.301 68.4579 342.445 67.7739 342.14 67.2159L339.822 63.2379C339.57 62.8059 339.624 62.2839 339.93 61.9059C340.756 60.9159 341.493 59.8179 342.14 58.6299C342.625 57.7479 343.038 56.8479 343.38 55.9479L344.368 55.9119L348.447 55.7499C348.95 55.7319 349.381 55.3899 349.525 54.9219C349.561 54.8319 349.579 54.7239 349.579 54.6159L349.83 49.4319C349.848 48.8199 349.417 48.2799 348.806 48.1899L345.644 47.7039C345.105 47.6139 344.691 47.1819 344.637 46.6419C344.422 44.4099 343.865 42.2319 342.984 40.1799C342.769 39.6939 342.894 39.1359 343.29 38.8119L347.243 35.3379C347.674 34.9419 347.764 34.2939 347.423 33.8079L344.422 29.5239C344.062 29.0199 343.38 28.8579 342.859 29.1819L337.917 32.0439C337.486 32.2959 336.965 32.2599 336.569 31.9539C335.743 31.3059 334.826 30.7119 333.874 30.1899C333.353 29.9019 332.832 29.6499 332.311 29.3979C331.898 29.2179 331.628 28.8039 331.592 28.3539L331.377 22.8819C331.394 22.2159 330.891 21.712 330.262 21.676ZM314.63 41.9619C315.438 40.8279 316.462 39.7659 317.756 38.8479C318.026 38.6499 318.349 38.4699 318.709 38.2899C320.236 37.5339 322.302 37.0299 323.776 37.1019C335.114 37.6959 339.157 51.1779 330.227 57.9279C330.083 58.0359 329.921 58.1439 329.777 58.2519C328.358 59.2599 325.734 59.9979 324.009 59.9259C323.093 59.8899 322.23 59.7639 321.422 59.5839C313.282 57.6399 310.066 48.4419 314.63 41.9619Z" fill="#BCEDD9"/>
<path d="M398.49 57.55L390.817 56.236L390.638 56.2C389.703 56.038 388.805 56.614 388.553 57.514L386.774 63.76C386.738 63.868 386.702 63.958 386.667 64.048C386.343 64.696 385.678 65.11 384.942 65.074C380.629 64.894 376.335 65.56 372.292 67.072C372.13 67.126 371.95 67.162 371.788 67.18C371.142 67.216 370.495 66.91 370.117 66.37L367.081 61.87C366.685 61.276 365.967 60.988 365.302 61.078C365.104 61.114 364.888 61.168 364.673 61.276L357.647 64.984C356.784 65.434 356.407 66.496 356.784 67.396L359.606 74.038C359.875 74.686 359.749 75.442 359.282 75.982C358.599 76.756 357.97 77.548 357.359 78.394C356.209 79.978 355.239 81.616 354.413 83.326C354.071 84.028 353.352 84.46 352.562 84.388L345.266 83.776L344.907 83.74C343.973 83.65 343.11 84.316 342.949 85.252L341.601 93.1C341.439 94.054 342.014 94.99 342.949 95.26L349.902 97.2579C350.675 97.4739 351.214 98.1759 351.25 98.9679C351.43 102.334 352.095 105.646 353.281 108.796C353.568 109.606 353.281 110.506 352.58 110.974L347.261 114.574C346.452 115.132 346.201 116.176 346.65 117.04L350.37 124.096C350.819 124.924 351.825 125.284 352.67 124.924L360.468 121.612C361.133 121.324 361.888 121.45 362.445 121.918C363.109 122.494 363.81 123.052 364.547 123.574C365.931 124.582 367.35 125.446 368.806 126.202C369.47 126.544 369.866 127.246 369.794 127.984L369.039 136.768C368.967 137.74 369.632 138.604 370.584 138.766L378.455 140.116C379.281 140.26 380.108 139.81 380.449 139.054C380.485 138.982 380.521 138.892 380.539 138.802L382.749 131.08C382.947 130.36 383.558 129.838 384.295 129.73C384.367 129.712 384.42 129.712 384.492 129.712C384.69 129.712 384.87 129.712 385.067 129.676C387.367 129.568 389.667 129.208 391.913 128.614C392.65 128.398 393.459 128.704 393.89 129.37L397.699 134.986C398.238 135.778 399.299 136.048 400.143 135.598L401.706 134.77L407.151 131.872C408.013 131.422 408.373 130.396 407.995 129.496L405.228 122.944C404.923 122.242 405.102 121.45 405.66 120.928C407.097 119.56 408.445 118.03 409.667 116.338C410.565 115.096 411.374 113.782 412.074 112.468L413.602 112.594L419.873 113.116C420.645 113.188 421.382 112.756 421.688 112.054C421.76 111.91 421.795 111.766 421.831 111.604L423.197 103.702C423.359 102.766 422.766 101.866 421.867 101.596L417.124 100.246C416.315 100.012 415.758 99.2559 415.776 98.4279C415.884 94.972 415.452 91.516 414.482 88.222C414.249 87.448 414.536 86.62 415.201 86.188L421.921 81.634C422.676 81.112 422.927 80.122 422.496 79.312L418.723 72.184C418.274 71.338 417.267 70.978 416.405 71.356L408.283 74.794C407.582 75.1 406.792 74.938 406.235 74.398C405.085 73.246 403.809 72.166 402.443 71.176C401.706 70.636 400.952 70.132 400.179 69.682C399.586 69.322 399.245 68.638 399.281 67.936L399.999 59.512C400.125 58.594 399.46 57.712 398.49 57.55ZM370.674 85.612C372.13 84.028 373.909 82.606 376.065 81.454C376.514 81.202 377.053 80.986 377.628 80.77C380.108 79.906 383.378 79.528 385.624 79.924C402.892 83.002 406.504 104.458 391.5 113.08C391.249 113.224 390.997 113.35 390.745 113.494C388.374 114.754 384.223 115.402 381.581 114.952C380.198 114.718 378.886 114.358 377.682 113.926C365.607 109.39 362.427 94.684 370.674 85.612Z" fill="#BCEDD9"/>
<path d="M143.819 113.35C143.388 102.64 152.354 97.8879 161.518 97.8879C170.682 97.8879 180.655 100.264 181.517 114.502C182.074 123.664 177.205 129.298 163.153 129.298C158.428 129.298 154.744 128.542 151.923 127.21L144.897 133.456L148.347 124.816C145.292 121.972 143.999 117.958 143.819 113.35Z" fill="#BCEDD9"/>
<path d="M56.6524 274.72C56.6524 274.72 56.275 271.75 55.3946 269.986C54.5141 268.222 48.9079 269.338 48.9079 269.338C48.9079 269.338 47.7938 270.292 47.5422 274.792L56.6524 274.72Z" fill="#040E0A"/>
<path d="M75.7531 274.684C74.4414 273.874 75.1781 267.862 75.1781 267.862C75.1781 267.862 81.3234 262.948 82.168 266.71C83.0125 270.472 88.0078 272.164 90.8469 272.632C92.8055 272.956 93.4164 274.036 93.5961 274.684H75.7531Z" fill="#040E0A"/>
<path d="M63.0313 230.98C63.2828 232.366 63.4446 233.482 63.4805 234.31C64.0555 245.452 72.8422 270.958 74.4235 271.552C76.8672 272.47 80.6946 270.508 82.7071 269.878C83.5336 269.608 84.0907 268.78 83.911 267.916C79.5625 247.846 77.9453 218.956 77.3703 201.856C77.0828 193.234 75.5914 187.294 75.5914 187.294C75.5914 187.294 54.1367 181.552 54.011 188.806C53.9031 195.214 61.1266 220.396 63.0313 230.98Z" fill="#195E41"/>
<path d="M63.0313 230.98L77.3703 201.838C77.0828 193.216 75.5914 187.276 75.5914 187.276C75.5914 187.276 54.1367 181.534 54.011 188.788C53.9031 195.214 61.1266 220.396 63.0313 230.98Z" fill="#144A33"/>
<path d="M67.8111 188.824L56.4728 271.192C56.4728 271.192 51.4954 272.398 47.6142 271.426C47.6142 271.426 44.29 227.614 44.5775 217.03C44.847 206.446 42.1876 188.698 45.1884 186.736C48.1533 184.774 67.8111 188.824 67.8111 188.824Z" fill="#195E41"/>
<path d="M44.3798 167.674L42.9603 187.456C42.9064 188.194 43.3736 188.878 44.0923 189.076C45.6736 189.544 47.5064 189.85 51.0103 190.588C54.3165 191.272 58.7548 191.884 64.2173 191.92C72.9142 191.974 76.2025 188.968 76.2025 188.968C76.5798 188.968 76.0048 187.15 75.4837 178.492C75.304 175.558 75.1423 171.832 75.0165 167.134C74.9087 162.904 74.8368 157.882 74.8189 151.924C74.8009 144.76 63.7322 137.038 63.5165 137.038C63.5165 138.064 61.8993 139.972 59.3837 140.134C56.4189 140.332 52.7712 138.856 52.7712 137.128C52.7712 137.11 47.3986 145.732 45.4939 154.912C45.2423 156.082 45.0626 157.306 44.9189 158.602C44.9189 158.62 44.9189 158.638 44.9189 158.656C44.8829 158.89 44.865 159.124 44.847 159.376C44.847 159.412 44.847 159.466 44.829 159.502C44.8111 159.718 44.7931 159.934 44.7572 160.168C44.7572 160.222 44.7392 160.294 44.7392 160.366C44.7212 160.564 44.7032 160.762 44.6853 160.978C44.6853 160.996 44.6853 161.014 44.6853 161.032C44.6673 161.176 44.6673 161.338 44.6493 161.482C44.6493 161.59 44.6314 161.698 44.6314 161.806C44.6134 161.986 44.6134 162.166 44.5954 162.346C44.5954 162.436 44.5775 162.526 44.5775 162.616C44.5595 162.796 44.5595 162.958 44.5415 163.138C44.5415 163.21 44.5236 163.3 44.5236 163.372C44.5056 163.624 44.4876 163.876 44.4876 164.128C44.4876 164.146 44.4876 164.164 44.4876 164.182C44.4697 164.434 44.4697 164.668 44.4517 164.92C44.4517 164.974 44.4517 165.046 44.4517 165.1C44.4337 165.334 44.4337 165.568 44.4157 165.802C44.4157 165.838 44.4157 165.874 44.4157 165.91C44.4157 166.486 44.3978 167.08 44.3798 167.674C44.3798 167.692 44.3798 167.71 44.3798 167.728V167.674Z" fill="#34C387"/>
<path d="M63.5525 137.038C63.5525 137.038 73.8486 136.948 76.3283 140.44C78.808 143.932 84.2525 162.67 81.4134 168.898C78.5744 175.126 73.2736 166.324 70.3267 162.49C67.3798 158.674 63.5525 137.038 63.5525 137.038Z" fill="#34C387"/>
<path d="M63.6602 135.472V136.534C63.6602 136.534 63.9477 139.864 59.8508 140.35C55.7539 140.836 52.7172 139.72 52.825 137.146C53.2024 135.148 53.5258 133.114 53.5618 131.476C53.5797 130.864 53.5258 130.216 53.418 129.478L61.3602 129.316L63.6961 129.694L63.6602 135.472Z" fill="#FFB27D"/>
<path d="M63.6961 129.694L63.6602 135.472C62.8156 135.868 61.8633 136.102 60.8031 136.102C57.1555 136.102 54.7836 133.42 53.5617 131.476C53.5797 130.864 53.5258 130.216 53.418 129.478L61.3602 129.316L63.6961 129.694Z" fill="#E2915A"/>
<path d="M52.7891 128.182C53.7055 133.15 60.1204 132.988 62.8875 132.682C63.6602 132.592 64.1633 132.502 64.1633 132.502C65.0438 132.268 65.529 130.882 65.7625 129.064C66.2118 125.464 65.6368 120.208 65.0438 118.858C64.1274 116.824 62.4204 114.628 55.9696 116.212C49.5008 117.796 51.6032 121.81 52.7891 128.182Z" fill="#FFB27D"/>
<path d="M74.082 151.006C74.082 151.006 78.0711 159.826 77.9453 162.472C77.9453 162.472 75.9688 162.4 74.082 162.976C70.9734 163.894 74.082 151.006 74.082 151.006Z" fill="#2FAF79"/>
<path d="M67.0024 114.124C67.0024 114.124 64.1633 113.908 60.8211 112.45C58.1078 111.262 54.6758 112.576 53.5617 113.152C53.5977 112.972 53.6696 112.72 53.8313 112.486C53.8313 112.486 53.3282 112.846 53.2563 113.332C53.2024 113.368 53.1844 113.404 53.2024 113.404C53.2024 113.404 52.6274 113.296 52.268 113.458C52.268 113.458 52.5196 113.422 52.6094 113.584C52.6274 113.602 52.6274 113.62 52.6453 113.638C48.4047 115.69 48.0094 122.404 49.375 123.952C51.0102 125.824 52.9868 130.036 52.9868 130.036C52.9868 130.036 53.7055 129.046 53.4 127.39C53.0946 125.752 54.5141 125.752 56.311 124.996C58.1078 124.24 56.6164 122.152 58.1797 120.892C59.743 119.614 65.493 120.37 65.4211 119.398C67.5594 118.606 67.0024 114.34 67.0024 114.124Z" fill="#040E0A"/>
<path d="M51.4954 167.512C53.1844 174.28 71.3688 177.772 75.5016 178.492C75.3219 175.558 75.1602 171.832 75.0344 167.134L51.4954 167.512Z" fill="#2FAF79"/>
<path d="M55.4846 169.726C55.3049 169.726 51.4416 169.15 50.7408 168.808C50.04 168.466 46.8775 163.948 48.9619 162.796C51.0463 161.644 56.6166 166.27 56.6166 166.27L55.4846 169.726Z" fill="#FFB27D"/>
<path d="M79.0234 171.058C79.0234 171.058 64.0554 171.868 54.0108 169.708C54.0108 169.708 53.7593 166.792 56.9218 165.514C56.9218 165.514 72.5726 162.184 76.346 163.12C80.1015 164.038 79.0234 171.058 79.0234 171.058Z" fill="#34C387"/>
<path d="M44.6493 159.286C47.7579 163.03 51.8188 166.108 56.2931 166.828C56.329 166.774 57.6407 164.758 57.4071 161.824C57.2993 160.456 56.8501 158.89 55.772 157.234C55.4485 156.73 55.1431 156.118 54.8915 155.452C52.4477 149.206 52.8071 137.164 52.8071 137.164C52.8071 137.164 42.4212 138.262 39.1868 142.888C37.2103 145.696 39.7439 153.364 44.6493 159.286Z" fill="#34C387"/>
<path d="M62.8877 132.682C63.6603 132.592 64.1635 132.502 64.1635 132.502C65.0439 132.268 65.5291 130.882 65.7627 129.064C64.1096 129.478 63.3549 130.738 63.0494 131.296C62.8877 131.53 62.8697 132.07 62.8877 132.682Z" fill="#E2915A"/>
<path d="M67.0745 135.49C67.0745 135.49 70.6683 129.568 67.8652 129.298C65.08 129.046 63.948 130.936 63.5526 131.62C63.1573 132.322 63.6605 135.454 63.6605 135.454L67.0745 135.49Z" fill="#FFB27D"/>
<path d="M53.4 161.608C53.5078 162.364 53.7414 163.048 54.0109 163.66C54.8914 165.604 56.293 166.81 56.293 166.81C65.6008 162.598 67.4875 148.144 67.8109 140.188C67.9367 137.002 67.8109 134.86 67.8109 134.86C63.6062 133.474 62.4203 135.886 62.4203 135.886C62.4203 135.886 57.4609 147.712 54.8914 155.434C53.9031 158.386 53.2742 160.744 53.4 161.608Z" fill="#34C387"/>
<path d="M44.6492 159.286C47.7578 163.03 51.8187 166.108 56.2929 166.828C65.6007 162.616 67.4875 148.162 67.8109 140.206C67.8109 140.206 63.4086 156.226 57.407 161.806C56.3289 162.814 55.1789 163.498 54.0109 163.66C54.0109 163.66 46.446 161.518 44.8648 159.502C44.739 159.376 44.6851 159.304 44.6492 159.286Z" fill="#2FAF79"/>
<path d="M341.996 210.892C341.996 210.892 347.908 203.944 342.338 199.552C342.338 199.552 338.259 197.104 334.952 197.302C334.952 197.302 339.678 205.186 338.151 205.978C336.624 206.77 333.515 196.816 333.515 196.816C333.515 196.816 324.261 195.934 321.278 197.392C321.278 197.392 329.22 203.854 327.549 204.25C325.878 204.646 317.307 198.292 317.307 198.292C317.307 198.292 308.7 199.786 309.167 205.042C309.634 210.298 312.617 211.918 313.929 211.774C315.241 211.63 322.859 208.696 323.021 209.758C323.183 210.82 318.601 214.348 315.384 214.51C315.384 214.51 321.476 221.206 325.519 219.262C329.544 217.318 329.885 214.24 332.401 213.088C334.917 211.936 337.055 211.918 336.031 213.106C335.006 214.294 330.442 215.446 329.005 217.984C327.567 220.54 326.292 222.268 330.46 221.62C334.629 220.972 341.421 217.894 341.709 214.384C341.996 210.892 341.996 210.892 341.996 210.892Z" fill="#A8E8CD"/>
<path d="M313.39 205.168C313.39 205.168 336.803 204.196 341.978 210.892C341.978 210.892 343.128 214.312 346.65 217.426L347.207 218.92C347.207 218.92 343.146 214.654 341.691 214.384C341.709 214.402 343.955 206.086 313.39 205.168Z" fill="#A8E8CD"/>
<path d="M346.668 217.426C346.668 217.426 351.699 221.134 352.077 227.776L351.16 227.866C351.16 227.866 349.543 220.99 346.632 218.308C343.721 215.644 346.668 217.426 346.668 217.426Z" fill="#A8E8CD"/>
<path d="M373.388 192.55C373.388 192.55 363.936 187.276 368.32 180.076C368.32 180.076 371.842 175.648 375.616 174.514C375.616 174.514 373.639 185.242 375.652 185.494C377.664 185.746 376.999 173.38 376.999 173.38C376.999 173.38 386.936 168.556 390.835 168.934C390.835 168.934 384.69 179.428 386.702 179.158C388.715 178.888 395.615 168.286 395.615 168.286C395.615 168.286 405.803 166.36 407.456 172.408C409.109 178.456 406.468 181.498 404.959 181.876C403.449 182.254 393.746 182.164 394.016 183.424C394.267 184.684 400.826 186.682 404.474 185.548C404.474 185.548 400.467 195.52 395.184 195.034C389.901 194.548 388.248 191.272 384.977 191.02C381.707 190.768 379.317 191.668 380.952 192.55C382.588 193.432 388.122 192.82 390.781 195.07C393.441 197.32 395.579 198.688 390.674 199.714C385.768 200.74 376.945 200.128 375.184 196.348C373.388 192.55 373.388 192.55 373.388 192.55Z" fill="#A8E8CD"/>
<path d="M402.803 174.298C402.803 174.298 376.389 182.956 373.388 192.55C373.388 192.55 373.532 196.834 370.89 201.766V203.656C370.89 203.656 373.639 197.212 375.149 196.33C375.149 196.33 369.219 188.014 402.803 174.298Z" fill="#94E2C2"/>
<path d="M370.89 201.766C370.89 201.766 366.829 207.976 369.183 215.518L370.225 215.23C370.225 215.23 369.183 206.914 371.303 202.72C373.424 198.544 370.89 201.766 370.89 201.766Z" fill="#94E2C2"/>
<path d="M358.33 185.278C358.33 185.278 370.764 178.258 364.924 168.79C364.924 168.79 360.252 162.976 355.275 161.5C355.275 161.5 357.97 175.63 355.311 175.972C352.652 176.314 353.442 160.006 353.442 160.006C353.442 160.006 340.307 153.724 335.168 154.246C335.168 154.246 343.344 168.016 340.684 167.692C338.025 167.368 328.861 153.418 328.861 153.418C328.861 153.418 315.402 150.97 313.282 158.944C311.144 166.936 314.648 170.914 316.642 171.4C318.637 171.886 331.412 171.688 331.089 173.362C330.766 175.018 322.141 177.718 317.325 176.224C317.325 176.224 322.68 189.346 329.634 188.662C336.605 187.978 338.744 183.64 343.056 183.298C347.369 182.956 350.531 184.108 348.375 185.278C346.219 186.448 338.923 185.692 335.437 188.662C331.952 191.632 329.148 193.486 335.617 194.782C342.086 196.096 353.712 195.232 356.03 190.228C358.348 185.224 358.33 185.278 358.33 185.278Z" fill="#BCEDD9"/>
<path d="M319.427 161.446C319.427 161.446 354.322 172.66 358.329 185.278C358.329 185.278 358.186 190.93 361.69 197.41V199.912C361.69 199.912 358.006 191.434 356.012 190.282C356.03 190.282 363.792 179.284 319.427 161.446Z" fill="#A8E8CD"/>
<path d="M361.69 197.41C361.69 197.41 367.08 205.564 364.044 215.536L362.66 215.176C362.66 215.176 363.972 204.214 361.151 198.706C358.329 193.198 361.69 197.41 361.69 197.41Z" fill="#A8E8CD"/>
<path d="M439.495 273.28L337.289 273.532C322.087 256.09 320.542 232.528 340.739 212.674C343.272 210.172 348.142 208.408 353.406 207.166C363.092 204.862 374.053 204.34 374.142 204.304C374.178 204.286 379.946 199.606 383.414 195.394C394.196 182.326 403.378 183.442 403.378 183.442C414.374 181.3 423.736 180.688 430.69 184.558C437.123 188.158 441.489 195.628 443.106 209.344C443.412 211.936 443.628 214.762 443.735 217.822C444.131 228.964 446.323 238.864 447.617 247.252C449.485 259.384 449.503 268.348 439.495 273.28Z" fill="#F16F82"/>
<path d="M425.228 198.292C418.561 201.928 417.806 213.916 407.385 217.012C396.945 220.108 379.228 219.82 369.183 230.728C359.48 241.258 348.806 214.456 353.406 206.914C363.092 204.61 374.053 204.088 374.142 204.052C374.178 204.034 379.946 199.354 383.414 195.142C394.196 182.074 403.378 183.19 403.378 183.19C414.374 181.048 423.736 180.436 430.69 184.306C434.212 188.176 431.894 194.656 425.228 198.292Z" fill="#F16F82"/>
<path d="M384.295 201.73C384.295 201.73 350.837 201.298 346.363 204.142C341.906 207.004 350.963 252.4 350.963 252.4C350.963 252.4 359.624 252.652 360.306 250.348C360.306 250.348 358.689 229.072 360.037 225.382C361.384 221.71 360.54 216.616 360.54 216.616C360.54 216.616 377.484 219.154 382.839 217.876C388.194 216.598 384.295 201.73 384.295 201.73Z" fill="#144A33"/>
<path d="M392.039 178.258C392.039 178.276 387.331 189.256 385.031 190.426C382.731 191.596 374.43 201.154 372.651 200.992C370.872 200.83 374.735 202.45 374.735 202.45C374.735 202.45 389.254 195.736 390.098 195.322C390.943 194.908 395.399 187.564 396.01 183.856C396.621 180.148 392.039 178.258 392.039 178.258Z" fill="#FFB27D"/>
<path d="M361.367 255.784C360.252 257.944 360.001 261.904 359.659 263.254C359.336 264.604 353.478 269.176 352.975 268.942C351.699 268.366 352.921 266.134 353.694 264.496C353.73 264.424 353.748 264.37 353.784 264.298C354.556 262.66 353.892 258.988 354.287 257.08C354.682 255.19 352.759 250.078 352.759 250.078L355.994 245.992C355.994 245.992 358.258 250.312 359.893 251.104C360.181 251.248 360.45 251.41 360.684 251.608C361.816 252.526 362.283 254.02 361.367 255.784Z" fill="#FFB27D"/>
<path d="M350.01 268.42C347.764 269.338 345.033 272.218 343.901 273.028C342.787 273.838 335.366 273.55 335.132 273.046C334.503 271.732 337.091 270.796 338.744 270.022C338.762 270.004 338.798 270.004 338.816 269.986C340.451 269.158 342.266 266.008 343.775 264.838C345.303 263.65 347.117 258.502 347.117 258.502L352.221 257.458C352.221 257.458 351.178 262.228 351.897 263.884C351.969 264.046 352.023 264.19 352.077 264.352C352.562 265.9 352.041 267.574 350.01 268.42Z" fill="#FFB27D"/>
<path d="M398.274 203.278C398.274 203.278 363.577 206.806 360.522 210.352C357.467 213.898 345.482 260.05 345.482 260.05C345.482 260.05 349.022 262.03 352.238 260.176C352.238 260.176 361.42 244.516 365.481 239.602C369.542 234.688 371.07 219.514 371.735 219.352C372.399 219.19 394.16 222.394 401.635 216.634C409.128 210.91 398.274 203.278 398.274 203.278Z" fill="#195E41"/>
<path d="M417.609 171.742C417.609 171.742 409.325 168.034 398.832 169.726C396.693 170.068 394.753 170.77 393.225 173.308C391.051 176.89 390.045 178.798 390.045 178.798C390.045 178.798 390.26 180.454 393.207 181.768C392.399 184.738 393.944 189.904 392.524 191.92C391.105 193.936 382.282 198.904 381.851 201.676C381.042 206.77 396.927 216.004 401.653 215.014C415.255 212.188 424.509 175.63 417.609 171.742Z" fill="#FFEAC5"/>
<path d="M403.593 172.102C402.91 172.822 403.18 175.234 406.396 175.054C408.517 174.928 413.027 172.318 412.614 170.518C412.416 169.654 410.781 167.44 410.403 162.346L410.026 162.454L403.575 164.272C403.575 164.272 403.881 166.324 404.042 168.268C404.168 169.888 403.881 171.796 403.593 172.102Z" fill="#FFB27D"/>
<path d="M403.575 164.272C403.575 164.272 403.881 166.324 404.042 168.268C407.69 167.872 409.379 164.38 410.026 162.454L403.575 164.272Z" fill="#F4A269"/>
<path d="M406.313 148.348C406.289 148.023 406.21 144.536 411.875 143.796C411.875 143.796 409.104 144.374 408.75 145.566C408.75 145.566 410.511 143.97 412.11 144.276C413.708 144.581 414.869 147.007 414.962 147.838C415.055 148.668 414.467 151.425 413.512 151.738C413.154 151.865 412.712 151.884 412.328 151.856C412.629 152.203 412.919 152.607 413.213 153.053C415.922 157.151 414.248 162.347 412.27 162.07C411.002 161.896 410.407 163.943 410.407 163.943L397.751 155.312C397.736 155.313 401.275 146.442 406.313 148.348Z" fill="#040E0A"/>
<path d="M403.431 167.26C403.431 167.26 411.859 165.136 410.457 159.898C409.055 154.66 408.507 152.656 403.063 153.79C397.618 154.924 397.807 155.398 397.843 157.252C397.897 159.124 401.203 167.674 403.431 167.26Z" fill="#FFB27D"/>
<path d="M397.726 155.299C398.907 153.376 400.043 153.605 400.736 154.036C405.415 150.568 409.285 154.193 409.285 154.193C410.516 158.204 413.853 160.135 413.853 160.135C413.853 160.135 412.304 161.395 408.258 160.951C407.024 160.812 405.824 160.129 404.771 159.242C406.729 161.631 409.17 163.225 409.17 163.225C404.193 161.756 401.372 155.607 401.089 154.954C400.598 155.543 399.64 156.793 399.448 157.899C399.203 159.427 399.432 162.438 398.525 162.46C398.542 162.462 395.955 158.176 397.726 155.299Z" fill="#040E0A"/>
<path d="M375.149 202.252C375.149 202.252 373.478 204.034 373.262 204.124C372.148 204.646 370.746 204.34 370.064 204.52C369.381 204.682 369.506 204.268 370.01 203.926C370.513 203.584 371.735 203.71 371.232 203.584C370.728 203.458 368.015 202.954 366.991 203.224C365.374 203.656 364.098 203.152 363.99 202.99C363.882 202.828 367.692 200.974 368.77 201.028C369.848 201.082 372.974 200.938 372.974 200.938L375.149 202.252Z" fill="#FFB27D"/>
<path d="M420.448 175.018C420.448 175.018 421.454 199.804 418.543 203.278C415.65 206.734 397.951 202.9 397.951 202.9L396.729 201.082C396.729 201.082 412.434 198.778 413.494 198.472C415.003 198.04 413.961 180.976 413.961 180.976L420.448 175.018Z" fill="#FFB27D"/>
<path d="M416.549 171.346C416.8 171.346 419.927 172.39 422.173 176.836C424.383 181.21 425.174 183.334 425.174 183.334C425.174 183.334 415.381 190.93 411.499 188.14C407.618 185.332 412.955 171.256 416.549 171.346Z" fill="#FFEAC5"/>
<path d="M397.969 202.9C397.969 202.9 396.567 204.322 396.028 205.06C395.489 205.798 391.752 207.112 391.662 206.716C391.572 206.32 393.333 205.132 393.495 204.7C393.656 204.268 395.579 202.018 396.747 201.766C397.915 201.514 397.969 202.9 397.969 202.9Z" fill="#FFB27D"/>
<path d="M396.747 201.082C396.747 201.082 390.979 202.414 389.991 202.828C389.002 203.224 386.936 206.176 387.763 206.608C388.284 206.878 390.566 205.69 391.716 205.438C392.866 205.186 396.154 205.762 397.645 202.792C397.807 202.45 396.747 201.082 396.747 201.082Z" fill="#FFB27D"/>
<path d="M350.01 268.42C347.764 269.338 345.033 272.218 343.901 273.028C342.787 273.838 335.366 273.55 335.132 273.046C334.503 271.732 337.091 270.796 338.744 270.022C338.762 270.004 338.798 270.004 338.816 269.986L339.049 269.914C339.049 269.914 342.248 271.048 344.907 269.914C346.974 269.032 350.046 265.72 352.077 264.37C352.562 265.9 352.041 267.574 350.01 268.42Z" fill="#040E0A"/>
<path d="M361.367 255.784C360.252 257.944 360.001 261.904 359.659 263.254C359.336 264.604 353.478 269.176 352.975 268.942C351.699 268.366 352.921 266.134 353.694 264.496C354.161 264.46 354.772 264.316 355.473 263.83C356.928 262.858 359.408 259.168 359.641 256.99C359.821 255.226 359.713 252.688 360.684 251.608C361.816 252.526 362.283 254.02 361.367 255.784Z" fill="#040E0A"/>
<path d="M389.29 207.364H364.152L356.587 188.518H381.689L389.29 207.364Z" fill="#34C387"/>
<path d="M363.846 206.626H397.053V207.364H364.152L363.846 206.626Z" fill="#2FAF79"/>
<path d="M370.495 197.95C370.297 197.284 370.692 196.744 371.357 196.744C372.022 196.744 372.705 197.284 372.903 197.95C373.1 198.616 372.705 199.156 372.04 199.156C371.375 199.138 370.693 198.598 370.495 197.95Z" fill="white"/>
<path d="M418.076 207.256C418.076 207.256 414.788 210.334 401.024 210.784C387.26 211.234 369.327 226.444 369.147 230.746C368.985 235.048 396.837 241.582 397.268 240.97C397.7 240.358 414.95 225.526 414.95 225.526L418.076 207.256Z" fill="#F16F82"/>
<path d="M447.598 247C440.195 233.644 423.269 252.058 419.064 245.83C414.859 239.602 425.012 231.682 434.158 224.86C443.124 218.182 443.088 209.452 443.088 209.092C443.394 211.684 443.609 214.51 443.717 217.57C444.113 228.694 446.305 238.612 447.598 247Z" fill="#EF586E"/>
<path d="M328.034 60.4301C328.124 74.9921 323.021 88.3481 314.468 98.7701C307.119 107.752 302.968 118.93 302.968 130.54V147.28C302.968 152.014 301.243 156.37 298.386 159.736C295.116 163.606 290.3 166.234 284.963 166.594C284.532 166.63 284.119 166.594 283.687 166.594H252.835C252.422 166.594 251.973 166.63 251.559 166.594C241.515 165.946 233.555 157.486 233.555 147.28V130.576C233.555 118.984 229.476 107.788 222.109 98.8421C213.609 88.4921 208.488 75.2441 208.488 60.7901C208.488 27.5801 235.405 0.904053 268.27 0.904053C301.225 0.922053 327.837 27.4181 328.034 60.4301Z" fill="#FFB93E"/>
<path d="M284.963 166.612C284.802 167.818 282.214 187.816 282.178 188.014C281.747 191.308 277.973 193.846 273.481 193.846H263.329C258.873 193.846 255.099 191.362 254.632 188.086C254.147 184.63 252.242 171.4 251.559 166.63H284.963V166.612Z" fill="#ED7D2B"/>
<path d="M280.938 166.612H280.866H275.188C265.934 169.294 256.734 171.94 252.476 173.146L252.691 174.712V174.748L252.925 176.332C256.375 175.378 264.641 173.002 284.873 167.134L284.945 166.612H280.938Z" fill="#F99746"/>
<path d="M254.039 183.928V183.964L254.273 185.548C258.262 184.432 266.492 182.056 283.616 177.088L283.849 175.36V175.342L284.065 173.632C273.248 176.764 260.131 180.562 253.824 182.362L254.039 183.928Z" fill="#F99746"/>
<path d="M257.849 192.424L257.902 192.46C258.621 192.874 259.412 193.216 260.274 193.45C264.964 192.1 271.954 190.084 282.322 187.078L282.538 185.35V185.332L282.753 183.622C273.499 186.304 262.862 189.382 256.303 191.272C256.752 191.686 257.274 192.082 257.849 192.424Z" fill="#F99746"/>
<path d="M256.177 166.612L243.258 90.22L245.917 89.77L258.908 166.612H256.177Z" fill="#FFEAC5"/>
<path d="M279.16 166.612H276.392L290.228 90.9761L292.888 91.4621L279.16 166.612Z" fill="#FFEAC5"/>
<path d="M275.404 103.9C275.063 103.9 274.667 103.864 274.236 103.756C273.517 103.594 273.05 103.09 272.906 102.298C272.601 100.606 273.931 97.4921 275.781 94.8641C274.811 93.1541 273.517 91.7681 272.152 91.3541C270.139 90.7421 267.067 92.5961 264.928 94.9721C265.324 95.5301 265.665 96.1061 265.988 96.7001C267.085 98.7701 267.875 101.434 266.797 102.658C266.402 103.108 265.575 103.522 263.958 102.91C261.927 102.136 261.209 100.426 261.963 98.1941C262.341 97.0961 263.024 95.9621 263.886 94.9001C262.233 92.7221 260.005 91.0841 257.813 91.3541C256.645 91.4981 255.638 91.9121 254.812 92.4881C256.213 95.0981 256.537 98.4101 255.567 100.174C254.902 101.38 253.752 101.758 252.314 101.254C251.29 100.894 250.751 99.4721 250.949 97.6361C251.146 95.7641 252.081 93.6941 253.752 92.2721C253.32 91.5881 252.799 90.9941 252.188 90.5261C248.415 87.5921 245.306 90.7421 245.181 90.8681L244.588 90.2921C244.624 90.2561 248.361 86.4941 252.692 89.8601C253.356 90.3641 253.913 91.0301 254.399 91.7501C255.315 91.1201 256.429 90.6701 257.723 90.5081C260.167 90.2021 262.628 91.9301 264.443 94.2341C266.779 91.6961 270.103 89.8241 272.421 90.5261C273.895 90.9761 275.26 92.3801 276.32 94.1261C277.309 92.8481 278.405 91.7321 279.465 91.0301C281.172 89.8961 282.286 90.1661 282.915 90.5801C283.562 91.0121 284.119 91.5881 284.568 92.2361C285.089 91.8221 285.628 91.4801 286.149 91.2101C288.126 90.2201 289.941 90.2921 291.27 91.4081L290.749 92.0381C289.33 90.8321 287.497 91.4621 286.527 91.9481C285.988 92.2181 285.485 92.5421 284.999 92.9381C286.311 95.3141 286.581 98.4101 285.826 99.9221C285.359 100.858 284.496 101.2 283.508 100.84C281.729 100.192 281.28 98.9501 281.226 98.0321C281.136 96.2681 282.34 94.2701 283.939 92.7941C283.526 92.1821 283.041 91.6421 282.466 91.2821C281.693 90.7781 280.651 91.2461 279.914 91.7321C278.854 92.4341 277.74 93.6041 276.752 94.9181C277.974 97.2581 278.62 99.9761 278.153 101.74C277.902 102.622 277.255 103.9 275.404 103.9ZM276.213 95.6741C274.595 98.0321 273.445 100.714 273.715 102.154C273.805 102.604 274.02 102.856 274.416 102.946C276.015 103.306 277.003 102.838 277.345 101.56C277.74 100.066 277.219 97.7441 276.213 95.6741ZM264.371 95.6201C263.617 96.5561 263.042 97.5461 262.718 98.4641C262.089 100.3 262.61 101.542 264.227 102.154C264.874 102.406 265.755 102.604 266.168 102.118C266.815 101.38 266.438 99.3101 265.252 97.0781C265 96.5921 264.695 96.0881 264.371 95.6201ZM254.147 93.0281C252.727 94.3061 251.919 96.1061 251.739 97.7441C251.595 99.1481 251.937 100.282 252.566 100.516C253.608 100.894 254.363 100.642 254.83 99.8141C255.656 98.2841 255.351 95.3681 254.147 93.0281ZM284.335 93.5501C282.915 94.9181 281.945 96.6641 282.017 98.0141C282.07 98.9861 282.663 99.6881 283.76 100.102C284.37 100.318 284.784 100.156 285.053 99.5981C285.7 98.3381 285.431 95.6381 284.335 93.5501Z" fill="#FFEAC5"/>
<path d="M299.123 23.944C304.028 28.588 303.417 37.12 297.092 39.01C292.33 40.45 285.215 38.524 281.711 32.44C278.207 26.338 279.824 21.334 284.119 18.85C288.431 16.366 294.002 19.12 299.123 23.944Z" fill="#FFEAC5"/>
<path d="M114.745 150.97C114.17 149.854 127.269 145.858 127.485 156.82C127.485 156.82 152.03 156.208 140.315 142.51C136.254 137.758 136.667 133.852 136.793 130.198C136.919 126.544 134.259 115.924 125.185 117.004C125.185 117.004 122.813 116.032 119.83 117.58C113.074 121.072 97.9445 155.002 114.745 150.97Z" fill="#580914"/>
<path d="M154.87 163.21C154.87 163.21 156.469 160.78 157.763 160.726C159.056 160.672 161.428 160.006 161.249 160.492C161.069 160.978 159.577 161.014 159.434 161.302C159.29 161.59 161.626 162.022 162.291 162.058C162.956 162.112 164.537 162.058 164.483 162.4C164.429 162.742 161.644 164.128 159.685 163.93C157.709 163.732 155.283 164.506 155.283 164.506L154.87 163.21Z" fill="#FFB27D"/>
<path d="M131.762 163.984C131.762 163.984 132.624 165.712 134.205 167.692C136.11 170.068 139.039 172.822 142.705 173.362C144.466 173.614 146.173 173.236 147.754 172.534C152.21 170.554 155.57 165.982 155.57 165.982C156.361 163.84 155.067 162.382 155.067 162.382C155.067 162.382 146.047 164.416 145.202 163.984C144.34 163.552 139.345 149.098 138.141 147.28C136.955 145.462 132.876 144.526 132.876 144.526L131.762 163.984Z" fill="#FFEAC5"/>
<path d="M134.206 167.692C136.11 170.068 139.039 172.822 142.705 173.362C144.466 173.614 146.173 173.236 147.754 172.534C147.574 172.552 143.118 173.11 141.339 169.924C139.524 166.684 137.566 161.518 134.87 163.228C133.72 164.002 133.774 165.838 134.206 167.692Z" fill="#F5E2BF"/>
<path d="M98.1423 261.454C98.1423 261.454 95.393 263.974 95.9321 265.756C96.4712 267.538 98.9509 268.726 99.2923 270.922C99.6337 273.1 100.963 274.288 102.185 274.288C103.389 274.288 107.935 274.288 107.935 274.288C107.935 274.288 108.816 272.758 106.677 272.29C104.539 271.822 103.713 269.266 103.856 266.872C103.982 264.496 103.659 261.31 103.659 261.31L99.0946 260.248L98.1423 261.454Z" fill="#040E0A"/>
<path d="M121.412 262.516C121.412 262.516 120.423 273.172 121.627 273.766L137.08 273.73C137.08 273.73 137.08 271.948 134.601 271.552C132.121 271.156 127.755 269.698 127.018 266.458C126.281 263.218 121.412 262.516 121.412 262.516Z" fill="#040E0A"/>
<path d="M110.415 186.106C113.595 178.96 115.536 176.908 115.177 174.694C114.907 173.038 116.021 143.932 116.021 143.932C116.399 143.806 117.153 143.716 117.567 143.626C118.878 143.338 119.956 142.42 120.406 141.16C120.945 139.648 121.376 137.398 121.376 134.59L121.789 134.662L128.635 136.012C128.635 136.012 128.474 138.172 128.474 140.206C128.474 140.224 128.474 140.242 128.474 140.26C128.474 142.024 129.624 143.59 131.313 144.076C132.175 144.328 132.93 144.544 132.93 144.544C132.93 144.544 135.445 151.744 135.931 159.124C136.416 166.504 131.349 169.726 135.967 184.486C140.638 199.57 108.654 190.048 110.415 186.106Z" fill="#FFB27D"/>
<path d="M128.599 136.012C128.599 136.012 128.438 138.172 128.438 140.206C124.61 140.098 122.58 136.588 121.753 134.662L128.599 136.012Z" fill="#E8945B"/>
<path d="M129.875 137.938C129.875 137.938 120.801 138.082 120.801 132.43C120.801 126.778 119.615 122.98 125.401 122.638C131.187 122.296 132.319 124.456 132.786 126.346C133.253 128.254 132.247 137.758 129.875 137.938Z" fill="#FFB27D"/>
<path d="M129.552 122.512C129.552 122.512 127.072 129.154 123.263 130.126C119.453 131.116 117.8 130.09 117.8 130.09C117.8 130.09 120.729 127.768 121.322 123.7C121.322 123.7 127.665 119.344 129.552 122.512Z" fill="#580914"/>
<path d="M128.923 123.052C128.923 123.052 130.755 123.736 131.528 125.086C132.265 126.4 132.894 128.146 132.75 130.288C132.75 130.288 134.619 125.77 132.516 123.232C130.288 120.514 128.923 123.052 128.923 123.052Z" fill="#0E3625"/>
<path d="M109.534 156.802C109.534 156.802 109.301 160.06 109.534 163.948C109.696 166.54 112.302 169.996 112.679 170.86C113.613 173.002 114.656 173.362 114.656 173.362L122.777 175.36L125.634 176.062L134.637 173.362C134.637 173.362 138.734 161.914 137.081 155.452C135.427 149.008 132.93 144.526 132.93 144.526C132.93 144.526 125.581 151.726 116.039 143.914L109.534 156.802Z" fill="#FFEAC5"/>
<path d="M111.906 165.01C112.068 167.602 112.302 170.014 112.661 170.86C113.595 173.002 114.638 173.362 114.638 173.362L122.759 175.36L126.281 174.316C126.281 174.316 114.512 172.534 115.823 162.4L111.906 165.01Z" fill="#F2CCAA"/>
<path d="M134.044 175.108C134.044 175.108 138.5 189.004 138.788 193.72C139.075 198.454 130.271 260.914 129.911 263.092C129.57 265.144 127.036 266.458 127.036 266.458C127.036 266.458 125.868 267.142 124.197 266.674C121.879 266.026 121.142 265.234 121.142 265.234C121.142 265.234 117.674 220.684 119.813 204.772C121.951 188.86 121.987 175.108 121.987 175.108H134.044Z" fill="#EF586E"/>
<path d="M115.159 174.694C115.159 174.694 108.366 183.82 107.737 189.994C107.109 196.168 106.749 217.858 105.402 223.87C104.054 229.882 99.0945 241.474 99.0945 260.248C99.0945 260.248 99.6156 261.328 101.197 261.904C101.7 262.084 102.383 262.264 103.048 262.426C104.359 262.732 105.707 262.084 106.3 260.878C109.66 254.11 120.334 232.312 120.873 227.776C121.268 224.572 124.628 203.368 131.995 190.93C133.756 187.942 130.917 176.062 130.917 176.062L115.159 174.694Z" fill="#F16F82"/>
<path d="M134.745 172.966C134.745 172.966 132.948 174.388 129.408 174.46C125.167 174.55 114.656 173.38 114.656 173.38C114.656 173.38 114.188 174.694 114.206 176.062C114.206 176.062 127.054 179.302 134.493 176.53C134.475 176.53 135.445 174.73 134.745 172.966Z" fill="#870D1F"/>
<path d="M128.491 175.918C128.491 174.712 129.354 173.722 130.432 173.722C131.492 173.722 132.373 174.712 132.373 175.918C132.373 177.124 131.51 178.114 130.432 178.114C129.354 178.114 128.491 177.124 128.491 175.918ZM129.138 175.918C129.138 176.782 129.713 177.466 130.432 177.466C131.151 177.466 131.726 176.764 131.726 175.918C131.726 175.072 131.151 174.37 130.432 174.37C129.713 174.37 129.138 175.072 129.138 175.918Z" fill="white"/>
<path d="M100.824 175.464L113.983 186.942L129.665 168.9L116.506 157.422L100.824 175.464Z" fill="#34C387"/>
<path d="M117.62 175.522C117.62 175.522 122.436 176.08 122.418 177.232C122.4 178.384 121.214 180.742 120.621 180.832C120.028 180.94 116.704 177.646 116.704 177.646L117.62 175.522Z" fill="#FFB27D"/>
<path d="M116.003 143.932C116.003 143.932 109.57 144.382 107.091 150.394C104.629 156.406 99.9392 166.486 99.9392 168.196C99.9392 169.888 102.563 175.126 116.596 178.132C116.596 178.132 118.052 176.602 117.962 175.396C117.962 175.396 109.193 167.854 109.211 166.972C109.247 165.298 110.649 163.102 118.339 155.398C120.459 153.274 116.003 143.932 116.003 143.932Z" fill="#FFEAC5"/>
<path d="M171.652 273.964H171.598C171.239 273.964 170.951 273.676 170.951 273.316L171.922 231.142L174.779 230.8L172.335 273.316C172.335 273.676 172.03 273.964 171.652 273.964Z" fill="#94E2C2"/>
<path d="M217.67 273.964H217.724C218.084 273.964 218.371 273.676 218.371 273.316L217.401 231.142L214.544 230.8L216.987 273.316C217.005 273.676 217.293 273.964 217.67 273.964Z" fill="#A8E8CD"/>
<path d="M169.766 228.514V199.606C169.766 194.512 173.881 190.39 178.966 190.39H199.756C204.841 190.39 208.956 194.512 208.956 199.606V229.612L169.766 228.514Z" fill="#A8E8CD"/>
<path d="M212.657 233.068H172.515C170.987 233.068 169.748 231.826 169.748 230.296V228.496H212.639V233.068H212.657Z" fill="#94E2C2"/>
<path d="M217.473 233.068H187.105C185.973 233.068 185.057 232.15 185.057 231.016V230.548C185.057 229.414 185.973 228.496 187.105 228.496H217.473C218.605 228.496 219.521 229.414 219.521 230.548V231.016C219.503 232.168 218.587 233.068 217.473 233.068Z" fill="#A8E8CD"/>
<path d="M216.287 221.314C213.304 226.498 209.566 228.514 209.566 228.514H193.988C193.988 228.514 218.551 217.354 216.287 221.314Z" fill="#700B1A"/>
<path d="M204.319 261.472C203.906 261.94 203.87 262.462 204.068 263.02C204.445 264.046 205.667 265.198 207.087 266.35C207.266 266.494 207.428 266.638 207.572 266.764C207.608 266.8 207.644 266.836 207.68 266.854C207.716 266.872 207.734 266.908 207.769 266.926C209.099 268.15 208.596 268.438 210.986 270.922C213.717 273.766 215.586 273.82 216.125 273.55C216.574 273.334 215.658 271.822 214.652 270.13C214.598 270.04 214.562 269.968 214.508 269.878C214.364 269.644 214.238 269.428 214.112 269.194C212.927 267.16 213.232 266.206 213.502 263.164C213.735 260.698 217.329 249.394 217.329 249.394L212.1 248.494C212.1 248.494 210.519 257.494 208.794 258.88C207.859 259.618 206.835 259.636 205.937 260.176C205.865 260.212 205.811 260.248 205.757 260.302C205.236 260.662 204.733 261.004 204.319 261.472Z" fill="#FFB27D"/>
<path d="M204.319 261.472C203.906 261.94 203.87 262.462 204.068 263.02C204.517 264.046 205.721 265.198 207.105 266.332C207.284 266.476 207.446 266.62 207.59 266.746C207.626 266.782 207.662 266.818 207.698 266.836C207.734 266.854 207.751 266.89 207.787 266.908C209.117 268.132 208.614 268.42 211.004 270.904C213.735 273.748 215.604 273.802 216.143 273.532C216.592 273.316 215.676 271.804 214.669 270.112C214.13 269.914 211.669 268.906 209.818 266.53C208.183 264.442 207.087 261.742 205.973 260.176C205.901 260.212 205.847 260.248 205.793 260.302C205.236 260.662 204.733 261.004 204.319 261.472Z" fill="#040E0A"/>
<path d="M246.42 258.214C246.744 259.834 249.044 259.564 251.613 258.934C254.183 258.304 253.572 259.06 257.219 258.646C260.867 258.232 261.981 256.882 262.089 256.324C262.197 255.838 260.382 255.676 258.441 255.442C258.19 255.406 257.956 255.388 257.705 255.352C255.512 255.082 253.913 253.66 251.937 252.508C250.05 251.41 247.247 246.928 247.247 246.928L242.233 247.324C242.233 247.324 244.857 251.32 245.881 253.066C246.474 254.092 246.456 255.442 246.366 256.486C246.33 257.062 246.294 257.638 246.42 258.214Z" fill="#FFB27D"/>
<path d="M251.595 258.934C254.165 258.304 253.554 259.06 257.201 258.646C260.849 258.232 261.963 256.882 262.071 256.324C262.179 255.838 260.364 255.676 258.423 255.442L258.405 255.478C258.405 255.478 256.213 257.026 253.176 257.098C250.697 257.152 248.073 256.45 246.366 256.468C246.33 257.044 246.294 257.62 246.402 258.178C246.744 259.834 249.044 259.564 251.595 258.934Z" fill="#040E0A"/>
<path d="M227.212 226.12L222.522 238.738L216.413 255.226C216.413 255.226 214.759 255.388 213.16 254.92C211.705 254.488 210.016 253.39 210.016 253.39C210.016 253.39 211.705 235.696 214.885 225.544C215.694 222.934 216.61 220.828 217.616 219.64C222.54 213.826 227.212 226.12 227.212 226.12Z" fill="#700B1A"/>
<path d="M222.45 206.086C219.377 205.096 210.627 206.374 201.84 208.084L200.007 205.042L181.014 203.548C181.014 203.548 174.743 217.462 178.175 226.336C178.678 227.632 179.684 228.478 181.391 228.496H181.661C181.661 228.496 192.963 228.496 196.629 228.496C206.063 228.496 216.61 221.998 217.976 221.728C220.204 221.278 221.102 225.76 223.331 230.44C225.559 235.138 244.318 251.23 244.318 251.23C244.318 251.23 247.193 251.266 248.397 250.816C249.673 250.33 250.14 249.718 250.14 249.718C250.14 249.718 229.386 208.318 222.45 206.086Z" fill="#870D1F"/>
<path d="M199.271 149.674C196.845 148.396 193.144 148.216 192.533 148.144C185.345 147.172 181.015 157.648 180.745 160.816C180.278 166.666 177.187 167.548 172.839 171.22C164.124 178.564 166.676 187.096 171.437 190.264C174.295 192.172 179.344 190.264 179.344 190.264C179.416 190.318 193.126 182.578 199.882 178.852C210.034 177.412 205.47 152.932 199.271 149.674Z" fill="#040E0A"/>
<path d="M194.239 175.684C194.275 175.702 190.915 176.854 188.669 175.864C186.566 174.928 184.967 171.454 184.985 171.454C185.937 171.418 186.998 170.572 187.806 165.046L188.219 165.19L195.101 167.674C195.101 167.674 194.598 169.888 194.275 171.994C194.005 173.74 193.862 175.432 194.239 175.684Z" fill="#FFB27D"/>
<path d="M195.102 167.656C195.102 167.656 194.598 169.87 194.275 171.976C190.322 171.256 188.777 167.314 188.219 165.19L195.102 167.656Z" fill="#ED975D"/>
<path d="M196.126 169.852C196.126 169.852 186.71 168.592 187.591 162.724C188.471 156.856 187.842 152.752 193.88 153.328C199.917 153.886 200.762 156.298 200.942 158.332C201.121 160.348 198.588 170.032 196.126 169.852Z" fill="#FFB27D"/>
<path d="M200.6 155.11C200.6 155.11 194.58 160.312 190.484 160.726C186.387 161.14 184.841 159.826 184.841 159.826C184.841 159.826 187.249 157.81 188.705 154.57C189.136 153.616 190.034 152.968 191.076 152.878C194.005 152.626 199.54 152.518 200.6 155.11Z" fill="#040E0A"/>
<path d="M196.826 154.642C196.826 154.642 198.839 156.586 199.468 158.044C200.079 159.448 200.258 162.778 199.773 164.11C199.773 164.11 202.918 157.99 201.139 155.02C199.27 151.87 196.826 154.642 196.826 154.642Z" fill="#040E0A"/>
<path d="M202.163 189.562C201.876 208.642 202.091 204.646 200.007 206.464C199.504 206.896 198.102 207.166 196.234 207.274C190.394 207.67 180.134 206.698 179.738 205.618C178.391 201.874 179.343 200.722 178.211 194.998C178.085 194.386 177.941 193.738 177.78 193.018C176.845 189.076 175.929 187.744 179.253 181.426C182.272 175.702 185.398 171.058 185.686 171.22C193.646 175.954 194.275 171.976 194.275 171.976C194.275 171.976 202.289 180.256 202.163 189.562Z" fill="#FFEAC5"/>
<path d="M222.54 238.756L216.43 255.244C216.43 255.244 214.777 255.406 213.178 254.938C211.723 254.506 210.033 253.408 210.033 253.408C210.033 253.408 211.723 235.714 214.903 225.562L222.54 238.756Z" fill="#870D1F"/>
<path d="M194.275 171.976C194.275 171.976 202.451 173.362 203.421 176.89C204.373 180.418 210.033 201.172 210.033 201.172C210.033 201.172 205.865 201.928 203.96 200.002C202.055 198.076 197.276 182.146 197.276 182.146L194.275 171.976Z" fill="#FFEAC5"/>
<path d="M196.216 207.274C190.376 207.67 180.116 206.698 179.72 205.618C178.373 201.874 179.325 200.722 178.193 194.998L181.014 187.06C181.014 187.06 180.547 195.898 183.152 198.238C185.758 200.56 193.808 202.738 195.084 204.682C195.713 205.6 196.108 206.536 196.216 207.274Z" fill="#F5E1BF"/>
<path d="M189.531 203.566C189.531 203.566 195.299 202.288 196.216 202.792C197.15 203.296 199.414 205.168 199.702 205.816C199.989 206.464 197.635 205.33 196.863 205.114C196.359 204.988 195.066 205.438 194.419 205.654C191.705 206.554 190.034 206.086 190.034 206.086L189.531 203.566Z" fill="#FFB27D"/>
<path d="M185.668 171.22C185.668 171.22 177.941 171.706 175.264 175.432C171.491 180.706 164.016 203.134 168.31 206.14C173.144 209.506 190.268 207.022 190.268 207.022C190.268 207.022 190.843 204.358 190.052 203.062C189.262 201.766 176.36 199.678 175.767 199.084C175.174 198.49 183.206 187.456 183.206 185.674C183.206 183.892 185.668 171.22 185.668 171.22Z" fill="#FFEAC5"/>
<path d="M196.503 204.394C196.503 204.394 197.707 205.96 198.102 206.14C198.498 206.32 198.749 206.284 198.749 206.284L197.941 204.826L196.503 204.394Z" fill="#FFB27D"/>
<path d="M196.216 202.792L199.719 204.502C199.719 204.502 199.576 204.754 199.145 204.736C198.713 204.718 197.617 204.322 197.617 204.322L196.216 202.792Z" fill="#FFB27D"/>
<path d="M198.102 208.534H225.864L234.219 187.726H206.494L198.102 208.534Z" fill="#F16F82"/>
<path d="M226.187 207.724H189.531V208.534H225.864L226.187 207.724Z" fill="#EF586E"/>
<path d="M218.856 198.13C219.072 197.392 218.641 196.798 217.922 196.798C217.203 196.798 216.431 197.392 216.215 198.13C215.999 198.868 216.43 199.462 217.149 199.462C217.868 199.462 218.641 198.85 218.856 198.13Z" fill="white"/>
<path d="M286.059 274.54H286.149C286.616 274.54 287.012 274.108 286.994 273.586L285.718 212.044L281.927 211.558L285.161 273.586C285.179 274.126 285.574 274.54 286.059 274.54Z" fill="#144A33"/>
<path d="M190.448 274.54H190.376C189.908 274.54 189.513 274.108 189.531 273.586L190.807 212.044L194.598 211.558L191.364 273.586C191.346 274.126 190.933 274.54 190.448 274.54Z" fill="#144A33"/>
<path d="M292.276 212.926H185.65C184.805 212.926 184.123 212.242 184.123 211.396V210.064C184.123 209.218 184.805 208.534 185.65 208.534H292.276C293.121 208.534 293.804 209.218 293.804 210.064V211.396C293.804 212.242 293.121 212.926 292.276 212.926Z" fill="#144A33"/>
<path d="M505.458 275.224H1.54219C1.16484 275.224 0.859375 274.918 0.859375 274.54V274.018C0.859375 273.64 1.16484 273.334 1.54219 273.334H505.458C505.835 273.334 506.141 273.64 506.141 274.018V274.54C506.141 274.918 505.835 275.224 505.458 275.224Z" fill="#144A33"/>
<path d="M369.237 39.226L390.045 42.52L376.352 32.854L375.598 35.878L370.513 36.724L369.237 39.226Z" fill="#94E2C2"/>
<path d="M390.045 42.5199L372.83 33.2859L355.832 32.1699L390.045 42.5199Z" fill="white"/>
<path d="M376.352 32.854L390.044 42.52L379.551 27.58L376.352 32.854Z" fill="white"/>
<path d="M169.622 59.71L142.525 67.522L159.128 52.438L160.62 56.308L167.52 56.596L169.622 59.71Z" fill="#80DDB6"/>
<path d="M142.525 67.5221L163.872 52.4201L186.279 48.1541L142.525 67.5221Z" fill="#E5F8F0"/>
<path d="M159.128 52.438L142.525 67.522L154.007 45.958L159.128 52.438Z" fill="#E5F8F0"/>
</svg>
