<svg width="432" height="422" viewBox="0 0 432 422" fill="none" xmlns="http://www.w3.org/2000/svg">
<g clip-path="url(#clip0_3460_62229)">
<path d="M274.251 94.7617H157.846C155.194 94.7649 152.65 95.8193 150.775 97.6935C148.899 99.5677 147.844 102.109 147.841 104.759V363.266L146.507 363.673L117.95 372.411C116.597 372.823 115.135 372.682 113.886 372.019C112.637 371.355 111.702 370.223 111.287 368.872L26.3456 91.6357C25.9323 90.2834 26.0732 88.8225 26.7373 87.5739C27.4015 86.3254 28.5346 85.3914 29.8877 84.9773L73.8925 71.5137L201.464 32.496L245.469 19.0325C246.138 18.8265 246.842 18.7546 247.54 18.8207C248.237 18.8868 248.915 19.0897 249.534 19.4179C250.153 19.746 250.701 20.1928 251.147 20.7328C251.593 21.2729 251.928 21.8955 252.133 22.565L273.845 93.4286L274.251 94.7617Z" fill="#F0F0F0"/>
<path d="M299.653 93.4281L273.485 8.02114C273.049 6.5981 272.338 5.27473 271.39 4.12664C270.443 2.97856 269.278 2.02826 267.963 1.33006C266.648 0.631863 265.208 0.199433 263.726 0.0574995C262.243 -0.0844336 260.747 0.0669119 259.324 0.502872L197.455 19.4252L69.8907 58.4495L8.02265 77.3785C5.14859 78.2603 2.74209 80.2456 1.3314 82.8985C-0.0793034 85.5514 -0.378956 88.6552 0.498225 91.5286L89.9352 383.415C90.6477 385.734 92.0856 387.764 94.0376 389.207C95.9897 390.651 98.3532 391.43 100.781 391.433C101.905 391.433 103.023 391.265 104.096 390.933L146.507 377.963L147.841 377.549V376.156L146.507 376.563L103.703 389.66C101.166 390.433 98.426 390.168 96.0839 388.925C93.7417 387.682 91.9887 385.561 91.2093 383.028L1.77922 91.1353C1.39306 89.8802 1.25848 88.5613 1.38316 87.2542C1.50785 85.9471 1.88935 84.6773 2.50584 83.5177C3.12233 82.3581 3.96171 81.3314 4.97588 80.4964C5.99004 79.6614 7.15909 79.0345 8.41608 78.6515L70.2841 59.7226L197.849 20.7049L259.717 1.77592C260.671 1.48519 261.662 1.33695 262.659 1.33602C264.798 1.34082 266.88 2.02997 268.599 3.30252C270.317 4.57507 271.583 6.36416 272.211 8.40773L298.259 93.4281L298.672 94.7612H300.06L299.653 93.4281Z" fill="#5E5E5E"/>
<path d="M81.8334 85.1949C80.5477 85.1939 79.2962 84.7814 78.2624 84.0177C77.2286 83.254 76.467 82.1793 76.0893 80.9514L67.4975 52.91C67.2667 52.1567 67.1865 51.3654 67.2618 50.5813C67.337 49.7971 67.5661 49.0354 67.9359 48.3397C68.3058 47.644 68.8092 47.0279 69.4174 46.5266C70.0256 46.0254 70.7267 45.6487 71.4806 45.4182L188.839 9.5173C190.362 9.0531 192.006 9.21142 193.412 9.95751C194.818 10.7036 195.87 11.9765 196.337 13.4969L204.929 41.5386C205.393 43.0598 205.235 44.7029 204.488 46.1075C203.741 47.512 202.468 48.5633 200.946 49.0307L83.5873 84.9316C83.019 85.1059 82.4279 85.1946 81.8334 85.1949Z" fill="#34C387"/>
<path d="M126.84 29.9633C134.208 29.9633 140.181 23.9951 140.181 16.633C140.181 9.2709 134.208 3.30273 126.84 3.30273C119.472 3.30273 113.5 9.2709 113.5 16.633C113.5 23.9951 119.472 29.9633 126.84 29.9633Z" fill="#34C387"/>
<path d="M126.84 25.0737C131.506 25.0737 135.288 21.2945 135.288 16.6325C135.288 11.9706 131.506 8.19141 126.84 8.19141C122.175 8.19141 118.393 11.9706 118.393 16.6325C118.393 21.2945 122.175 25.0737 126.84 25.0737Z" fill="white"/>
<path d="M401.983 388.026H176.523C175.02 388.025 173.579 387.427 172.516 386.365C171.453 385.303 170.855 383.863 170.854 382.361V112.423C170.855 110.921 171.453 109.481 172.516 108.419C173.579 107.357 175.02 106.759 176.523 106.758H401.983C403.486 106.76 404.928 107.357 405.991 108.419C407.053 109.481 407.651 110.921 407.653 112.423V382.361C407.651 383.863 407.053 385.303 405.99 386.365C404.928 387.427 403.486 388.025 401.983 388.026Z" fill="#E6E6E6"/>
<path d="M298.258 93.4277H157.846C154.84 93.432 151.958 94.6271 149.832 96.7511C147.707 98.8751 146.511 101.755 146.506 104.758V376.562L147.84 376.156V104.758C147.844 102.108 148.899 99.5668 150.775 97.6926C152.65 95.8183 155.193 94.764 157.846 94.7608H298.672L298.258 93.4277ZM420.66 93.4277H157.846C154.84 93.432 151.958 94.6271 149.832 96.7511C147.707 98.8751 146.511 101.755 146.506 104.758V410.021C146.511 413.025 147.707 415.905 149.832 418.029C151.958 420.153 154.84 421.348 157.846 421.352H420.66C423.666 421.348 426.548 420.153 428.674 418.029C430.8 415.905 431.996 413.025 432 410.021V104.758C431.996 101.755 430.8 98.8751 428.674 96.7511C426.548 94.6271 423.666 93.432 420.66 93.4277ZM430.666 410.021C430.663 412.672 429.607 415.213 427.732 417.087C425.856 418.961 423.313 420.016 420.66 420.019H157.846C155.193 420.016 152.65 418.961 150.775 417.087C148.899 415.213 147.844 412.672 147.84 410.021V104.758C147.844 102.108 148.899 99.5668 150.775 97.6926C152.65 95.8183 155.193 94.764 157.846 94.7608H420.66C423.313 94.764 425.856 95.8183 427.732 97.6926C429.607 99.5668 430.663 102.108 430.666 104.758V410.021Z" fill="#5E5E5E"/>
<path d="M350.621 122.753H227.886C226.294 122.752 224.768 122.119 223.643 120.995C222.517 119.87 221.884 118.345 221.882 116.755V87.4283C221.884 85.8379 222.517 84.3132 223.643 83.1886C224.768 82.064 226.294 81.4315 227.886 81.4297H350.621C352.213 81.4315 353.739 82.064 354.864 83.1886C355.99 84.3132 356.623 85.8379 356.625 87.4283V116.755C356.623 118.345 355.99 119.87 354.864 120.995C353.739 122.119 352.213 122.752 350.621 122.753Z" fill="#34C387"/>
<path d="M289.253 83.4301C296.621 83.4301 302.594 77.4619 302.594 70.0998C302.594 62.7377 296.621 56.7695 289.253 56.7695C281.885 56.7695 275.912 62.7377 275.912 70.0998C275.912 77.4619 281.885 83.4301 289.253 83.4301Z" fill="#34C387"/>
<path d="M289.253 78.2192C293.741 78.2192 297.379 74.584 297.379 70.0998C297.379 65.6156 293.741 61.9805 289.253 61.9805C284.766 61.9805 281.127 65.6156 281.127 70.0998C281.127 74.584 284.766 78.2192 289.253 78.2192Z" fill="white"/>
</g>
<defs>
<clipPath id="clip0_3460_62229">
<rect width="432" height="421.352" fill="white"/>
</clipPath>
</defs>
</svg>
