<svg width="320" height="346" viewBox="0 0 320 346" fill="none" xmlns="http://www.w3.org/2000/svg">
<g clip-path="url(#clip0)">
<path d="M202.984 196.178L64.6593 231.77C59.9672 232.972 54.9896 232.265 50.8186 229.804C46.6476 227.343 43.6238 223.329 42.4106 218.644L0.577652 56.3183C-0.624974 51.6298 0.082704 46.6561 2.54544 42.4883C5.00817 38.3205 9.02484 35.2991 13.7142 34.0868L142.402 0.973633L175.341 15.7076L216.12 173.946C217.323 178.634 216.615 183.608 214.152 187.776C211.69 191.944 207.673 194.965 202.984 196.178Z" fill="#CCCCCC"/>
<path d="M15.0276 39.1762C11.6882 40.0395 8.82784 42.1911 7.07408 45.1591C5.32031 48.1271 4.81636 51.669 5.67278 55.0077L47.5057 217.333C48.3697 220.67 50.523 223.528 53.4932 225.281C56.4635 227.033 60.0081 227.537 63.3495 226.681L201.674 191.088C205.013 190.225 207.874 188.073 209.627 185.105C211.381 182.137 211.885 178.595 211.029 175.257L170.881 19.47L141.934 6.52148L15.0276 39.1762Z" fill="white"/>
<path d="M174.991 16.5445L153.583 22.0529C152.02 22.4551 150.362 22.2204 148.972 21.4005C147.582 20.5806 146.576 19.2427 146.173 17.6811L142.102 1.882C142.084 1.81283 142.086 1.74004 142.108 1.67198C142.129 1.60392 142.17 1.54334 142.224 1.49719C142.279 1.45105 142.345 1.4212 142.416 1.41107C142.487 1.40094 142.559 1.41094 142.624 1.43993L175.05 15.8292C175.122 15.8612 175.183 15.9149 175.223 15.9828C175.263 16.0506 175.281 16.1293 175.275 16.208C175.268 16.2866 175.238 16.3612 175.187 16.4215C175.136 16.4818 175.067 16.5248 174.991 16.5445Z" fill="#CCCCCC"/>
<path d="M163.729 155.168L100.752 171.373C100.365 171.472 99.9619 171.495 99.5663 171.439C99.1707 171.383 98.79 171.249 98.446 171.046C98.1019 170.843 97.8013 170.575 97.5612 170.256C97.3211 169.936 97.1462 169.573 97.0466 169.187C96.9469 168.8 96.9245 168.398 96.9805 168.002C97.0365 167.607 97.1699 167.227 97.373 166.883C97.5762 166.539 97.8451 166.239 98.1644 165.999C98.4837 165.759 98.8472 165.584 99.2341 165.484L162.211 149.28C162.598 149.18 163.001 149.158 163.397 149.214C163.792 149.27 164.173 149.403 164.517 149.606C164.861 149.809 165.162 150.078 165.402 150.397C165.642 150.716 165.817 151.079 165.916 151.466C166.016 151.852 166.038 152.255 165.982 152.65C165.926 153.045 165.793 153.426 165.59 153.769C165.387 154.113 165.118 154.414 164.798 154.653C164.479 154.893 164.116 155.068 163.729 155.168Z" fill="#B3B3B3"/>
<path d="M178.442 161.977L103.312 181.309C102.53 181.51 101.701 181.392 101.006 180.982C100.311 180.573 99.8078 179.904 99.6066 179.123C99.4054 178.342 99.5228 177.513 99.9331 176.819C100.343 176.125 101.013 175.622 101.794 175.421L176.925 156.089C177.706 155.888 178.535 156.006 179.229 156.416C179.923 156.826 180.426 157.495 180.627 158.275C180.828 159.055 180.711 159.884 180.301 160.578C179.892 161.272 179.223 161.775 178.442 161.977Z" fill="#B3B3B3"/>
<path d="M75.0475 190.889C80.9863 190.889 85.8007 186.079 85.8007 180.144C85.8007 174.21 80.9863 169.399 75.0475 169.399C69.1086 169.399 64.2942 174.21 64.2942 180.144C64.2942 186.079 69.1086 190.889 75.0475 190.889Z" fill="#CCCCCC"/>
<path d="M157.032 127.047L73.3917 148.56C70.9745 149.179 68.4103 148.815 66.2617 147.547C64.1131 146.279 62.5556 144.211 61.9308 141.797L44.403 73.7583C43.7837 71.343 44.1485 68.7808 45.4174 66.6338C46.6862 64.4869 48.7556 62.9306 51.1714 62.3063L134.811 40.7927C137.229 40.1738 139.793 40.5383 141.941 41.8062C144.09 43.0741 145.647 45.1419 146.272 47.5558L163.8 115.595C164.419 118.01 164.055 120.572 162.786 122.719C161.517 124.866 159.447 126.422 157.032 127.047Z" fill="white"/>
<path d="M157.032 127.047L73.3917 148.56C70.9745 149.179 68.4103 148.815 66.2617 147.547C64.1131 146.279 62.5556 144.211 61.9308 141.797L44.403 73.7583C43.7837 71.343 44.1485 68.7808 45.4174 66.6338C46.6862 64.4869 48.7556 62.9306 51.1714 62.3063L134.811 40.7927C137.229 40.1738 139.793 40.5383 141.941 41.8062C144.09 43.0741 145.647 45.1419 146.272 47.5558L163.8 115.595C164.419 118.01 164.055 120.572 162.786 122.719C161.517 124.866 159.447 126.422 157.032 127.047ZM51.4474 63.3778C49.3158 63.9286 47.49 65.3019 46.3704 67.1962C45.2508 69.0906 44.9289 71.3513 45.4753 73.4825L63.0032 141.521C63.5544 143.651 64.9287 145.476 66.8245 146.595C68.7203 147.713 70.9828 148.035 73.1157 147.489L156.756 125.975C158.887 125.424 160.713 124.051 161.833 122.157C162.952 120.262 163.274 118.002 162.728 115.871L145.2 47.8316C144.649 45.7017 143.274 43.8772 141.378 42.7585C139.483 41.6398 137.22 41.3181 135.087 41.8642L51.4474 63.3778Z" fill="#CCCCCC"/>
<path d="M130.569 63.6705L88.3567 74.5282C87.9877 74.6311 87.5933 74.5902 87.2533 74.4137C86.9133 74.2372 86.653 73.9383 86.525 73.5775C86.4655 73.3889 86.445 73.1902 86.4649 72.9936C86.4847 72.7969 86.5444 72.6063 86.6404 72.4334C86.7364 72.2605 86.8666 72.109 87.0232 71.9881C87.1797 71.8672 87.3592 71.7794 87.5508 71.7302L130.52 60.6777C132.256 61.5565 131.799 63.354 130.568 63.6706L130.569 63.6705Z" fill="#CCCCCC"/>
<path d="M132.475 71.0689L90.2629 81.9266C89.8939 82.0295 89.4995 81.9886 89.1595 81.8121C88.8195 81.6357 88.5592 81.3368 88.4313 80.9759C88.3717 80.7874 88.3513 80.5887 88.3711 80.392C88.391 80.1953 88.4507 80.0047 88.5467 79.8318C88.6427 79.659 88.7729 79.5075 88.9294 79.3865C89.0859 79.2656 89.2655 79.1779 89.4571 79.1286L132.426 68.0762C134.162 68.955 133.705 70.7525 132.474 71.0691L132.475 71.0689Z" fill="#CCCCCC"/>
<path d="M82.2227 88.4858L69.34 91.7995C68.9193 91.9073 68.4729 91.8438 68.0989 91.6232C67.7249 91.4025 67.4538 91.0425 67.3451 90.6223L63.4317 75.4314C63.3239 75.011 63.3874 74.565 63.6082 74.1913C63.8291 73.8176 64.1893 73.5467 64.6098 73.4381L77.4925 70.1244C77.9133 70.0168 78.3595 70.0803 78.7335 70.301C79.1075 70.5217 79.3786 70.8815 79.4874 71.3016L83.4008 86.4925C83.5086 86.913 83.4452 87.359 83.2243 87.7327C83.0034 88.1064 82.6432 88.3772 82.2227 88.4859V88.4858Z" fill="#CCCCCC"/>
<path d="M136.254 86.2488L71.8311 102.82C71.462 102.922 71.0676 102.882 70.7276 102.705C70.3876 102.529 70.1273 102.23 69.9994 101.869C69.9399 101.68 69.9194 101.482 69.9392 101.285C69.9591 101.088 70.0188 100.898 70.1148 100.725C70.2108 100.552 70.341 100.4 70.4975 100.28C70.6541 100.159 70.8336 100.071 71.0252 100.022L136.206 83.2559C137.942 84.1347 137.485 85.9322 136.254 86.2488L136.254 86.2488Z" fill="#CCCCCC"/>
<path d="M138.161 93.6491L73.7381 110.22C73.369 110.323 72.9746 110.282 72.6346 110.105C72.2946 109.929 72.0343 109.63 71.9064 109.269C71.8468 109.081 71.8264 108.882 71.8462 108.685C71.866 108.489 71.9258 108.298 72.0218 108.125C72.1178 107.952 72.248 107.801 72.4045 107.68C72.561 107.559 72.7406 107.471 72.9322 107.422L138.113 90.6562C139.849 91.5351 139.392 93.3325 138.161 93.6491V93.6491Z" fill="#CCCCCC"/>
<path d="M140.066 101.046L75.6424 117.616C75.2733 117.719 74.8789 117.678 74.5389 117.502C74.1989 117.325 73.9386 117.027 73.8107 116.666C73.7511 116.477 73.7307 116.279 73.7505 116.082C73.7703 115.885 73.8301 115.695 73.9261 115.522C74.0221 115.349 74.1523 115.197 74.3088 115.076C74.4653 114.955 74.6449 114.868 74.8365 114.818L140.017 98.0527C141.753 98.9315 141.296 100.729 140.066 101.046Z" fill="#CCCCCC"/>
<path d="M141.973 108.446L77.5493 125.017C77.1803 125.12 76.7859 125.079 76.4459 124.902C76.1059 124.726 75.8456 124.427 75.7177 124.066C75.6581 123.878 75.6376 123.679 75.6575 123.482C75.6773 123.285 75.7371 123.095 75.833 122.922C75.929 122.749 76.0593 122.598 76.2158 122.477C76.3723 122.356 76.5519 122.268 76.7435 122.219L141.924 105.453C143.66 106.332 143.203 108.129 141.973 108.446L141.973 108.446Z" fill="#CCCCCC"/>
<path d="M143.878 115.842L79.4546 132.412C79.0856 132.515 78.6912 132.474 78.3512 132.298C78.0111 132.121 77.7509 131.822 77.6229 131.462C77.5634 131.273 77.5429 131.074 77.5628 130.878C77.5826 130.681 77.6423 130.49 77.7383 130.318C77.8343 130.145 77.9645 129.993 78.1211 129.872C78.2776 129.751 78.4571 129.664 78.6487 129.614L143.83 112.849C145.565 113.727 145.109 115.525 143.878 115.842Z" fill="#CCCCCC"/>
<path d="M75.8415 183.911C75.6073 183.971 75.3597 183.954 75.1361 183.862L75.1222 183.856L72.1928 182.616C72.0569 182.558 71.9336 182.474 71.8301 182.369C71.7265 182.264 71.6448 182.139 71.5894 182.003C71.5341 181.866 71.5063 181.72 71.5076 181.572C71.5089 181.425 71.5393 181.279 71.5971 181.143C71.6549 181.007 71.7389 180.884 71.8443 180.781C71.9497 180.678 72.0744 180.596 72.2114 180.541C72.3483 180.486 72.4948 180.458 72.6424 180.46C72.7901 180.462 72.9359 180.492 73.0717 180.55L74.9699 181.357L77.4573 175.51C77.515 175.374 77.5989 175.252 77.7041 175.148C77.8093 175.045 77.9338 174.964 78.0705 174.909C78.2072 174.853 78.3535 174.826 78.5009 174.827C78.6483 174.829 78.794 174.859 78.9297 174.917L78.9301 174.917L78.9151 174.955L78.9307 174.917C79.2045 175.033 79.4208 175.254 79.5321 175.53C79.6434 175.806 79.6406 176.114 79.5243 176.388L76.5979 183.263C76.5301 183.421 76.4266 183.562 76.2955 183.674C76.1644 183.786 76.0093 183.867 75.8421 183.909L75.8415 183.911Z" fill="white"/>
<path d="M256.041 258.036H113.204C108.36 258.03 103.716 256.105 100.291 252.683C96.8659 249.26 94.9393 244.62 94.9338 239.78V72.1591C94.9393 67.319 96.8659 62.6788 100.291 59.2563C103.716 55.8339 108.36 53.9088 113.204 53.9033H246.09L274.311 76.3794V239.78C274.305 244.62 272.379 249.26 268.953 252.683C265.528 256.105 260.885 258.03 256.041 258.036Z" fill="#CCCCCC"/>
<path d="M113.204 59.1582C109.754 59.1621 106.447 60.533 104.008 62.9702C101.569 65.4074 100.197 68.7118 100.193 72.1585V239.78C100.197 243.226 101.569 246.531 104.008 248.968C106.447 251.405 109.754 252.776 113.204 252.78H256.041C259.49 252.776 262.797 251.405 265.236 248.968C267.675 246.531 269.047 243.226 269.051 239.78V78.9107L244.251 59.1582H113.204Z" fill="white"/>
<path d="M228.259 107.898H163.227C162.421 107.898 161.647 107.578 161.076 107.008C160.506 106.438 160.185 105.665 160.185 104.858C160.185 104.052 160.506 103.279 161.076 102.709C161.647 102.139 162.421 101.818 163.227 101.818H228.259C229.066 101.818 229.84 102.139 230.411 102.709C230.981 103.279 231.302 104.052 231.302 104.858C231.302 105.665 230.981 106.438 230.411 107.008C229.84 107.578 229.066 107.898 228.259 107.898Z" fill="#34C387"/>
<path d="M240.809 118.158H163.228C162.421 118.157 161.649 117.836 161.079 117.266C160.509 116.696 160.189 115.924 160.189 115.118C160.189 114.313 160.509 113.54 161.079 112.97C161.649 112.4 162.421 112.079 163.228 112.078H240.809C241.209 112.078 241.605 112.156 241.975 112.308C242.344 112.461 242.68 112.685 242.963 112.967C243.246 113.249 243.471 113.585 243.624 113.954C243.777 114.323 243.856 114.719 243.856 115.118C243.856 115.518 243.777 115.913 243.624 116.283C243.471 116.652 243.246 116.987 242.963 117.269C242.68 117.552 242.344 117.776 241.975 117.928C241.605 118.081 241.209 118.159 240.809 118.158Z" fill="#34C387"/>
<path d="M228.259 147.798H163.23C162.423 147.798 161.649 148.118 161.079 148.688C160.508 149.258 160.188 150.031 160.188 150.838C160.188 151.644 160.508 152.417 161.079 152.987C161.649 153.557 162.423 153.878 163.23 153.878H228.259C229.066 153.878 229.84 153.557 230.411 152.987C230.981 152.417 231.302 151.644 231.302 150.838C231.302 150.031 230.981 149.258 230.411 148.688C229.84 148.118 229.066 147.798 228.259 147.798Z" fill="#B3B3B3"/>
<path d="M240.81 158.06H163.23C162.423 158.06 161.649 158.38 161.079 158.95C160.508 159.52 160.188 160.293 160.188 161.099C160.188 161.906 160.508 162.679 161.079 163.249C161.649 163.819 162.423 164.139 163.23 164.139H240.81C241.617 164.139 242.391 163.819 242.961 163.249C243.532 162.679 243.853 161.906 243.853 161.099C243.853 160.293 243.532 159.52 242.961 158.95C242.391 158.38 241.617 158.06 240.81 158.06Z" fill="#B3B3B3"/>
<path d="M228.259 199.86H163.227C162.421 199.86 161.647 199.54 161.076 198.97C160.506 198.4 160.185 197.627 160.185 196.82C160.185 196.014 160.506 195.241 161.076 194.671C161.647 194.101 162.421 193.78 163.227 193.78H228.259C229.066 193.78 229.84 194.101 230.411 194.671C230.981 195.241 231.302 196.014 231.302 196.82C231.302 197.627 230.981 198.4 230.411 198.97C229.84 199.54 229.066 199.86 228.259 199.86Z" fill="#B3B3B3"/>
<path d="M240.809 210.121H163.228C162.421 210.12 161.649 209.799 161.079 209.229C160.509 208.659 160.189 207.887 160.189 207.081C160.189 206.276 160.509 205.503 161.079 204.933C161.649 204.363 162.421 204.042 163.228 204.041H240.809C241.209 204.04 241.605 204.119 241.975 204.271C242.344 204.424 242.68 204.648 242.963 204.93C243.246 205.212 243.471 205.548 243.624 205.917C243.777 206.286 243.856 206.682 243.856 207.081C243.856 207.481 243.777 207.876 243.624 208.245C243.471 208.615 243.246 208.95 242.963 209.232C242.68 209.515 242.344 209.738 241.975 209.891C241.605 210.044 241.209 210.122 240.809 210.121Z" fill="#B3B3B3"/>
<path d="M136.147 120.733C142.086 120.733 146.9 115.922 146.9 109.988C146.9 104.054 142.086 99.2432 136.147 99.2432C130.208 99.2432 125.394 104.054 125.394 109.988C125.394 115.922 130.208 120.733 136.147 120.733Z" fill="#34C387"/>
<path d="M135.081 114.087C134.839 114.088 134.604 114.009 134.41 113.864L134.398 113.855L131.871 111.924C131.754 111.834 131.655 111.722 131.581 111.595C131.507 111.467 131.459 111.326 131.439 111.18C131.42 111.033 131.429 110.885 131.467 110.742C131.506 110.6 131.571 110.466 131.661 110.349C131.751 110.232 131.863 110.133 131.991 110.06C132.119 109.986 132.26 109.938 132.407 109.919C132.553 109.9 132.702 109.91 132.844 109.948C132.987 109.986 133.121 110.052 133.238 110.142L134.875 111.397L138.743 106.354C138.832 106.237 138.944 106.139 139.072 106.066C139.2 105.992 139.34 105.944 139.487 105.925C139.633 105.905 139.781 105.915 139.924 105.953C140.066 105.991 140.2 106.057 140.317 106.147L140.293 106.18L140.318 106.147C140.554 106.328 140.708 106.595 140.747 106.89C140.786 107.185 140.706 107.484 140.525 107.72L135.976 113.648C135.87 113.785 135.735 113.895 135.58 113.971C135.425 114.047 135.255 114.086 135.082 114.086L135.081 114.087Z" fill="white"/>
<path d="M148.006 155.968C148.006 157.379 147.728 158.777 147.188 160.081C146.648 161.385 145.856 162.57 144.858 163.568C143.86 164.566 142.674 165.358 141.369 165.898C140.065 166.439 138.666 166.717 137.254 166.717C137.162 166.719 137.069 166.715 136.977 166.706C134.863 166.652 132.811 165.976 131.08 164.762C129.348 163.549 128.013 161.852 127.241 159.884C126.47 157.917 126.296 155.765 126.742 153.699C127.188 151.633 128.234 149.745 129.749 148.27C131.264 146.795 133.18 145.799 135.259 145.407C137.337 145.015 139.485 145.244 141.433 146.066C143.382 146.888 145.045 148.265 146.214 150.027C147.383 151.788 148.006 153.855 148.006 155.968Z" fill="#B3B3B3"/>
<path d="M136.147 212.695C142.086 212.695 146.9 207.884 146.9 201.95C146.9 196.016 142.086 191.205 136.147 191.205C130.208 191.205 125.394 196.016 125.394 201.95C125.394 207.884 130.208 212.695 136.147 212.695Z" fill="#B3B3B3"/>
<path d="M273.762 77.1019H251.656C250.042 77.1019 248.494 76.4613 247.353 75.321C246.212 74.1808 245.571 72.6343 245.571 71.0217V54.7072C245.571 54.6357 245.591 54.5658 245.629 54.5052C245.667 54.4447 245.721 54.3961 245.786 54.365C245.85 54.334 245.922 54.3216 245.993 54.3294C246.064 54.3373 246.131 54.3649 246.187 54.4093L273.998 76.424C274.06 76.473 274.105 76.54 274.127 76.6157C274.149 76.6915 274.147 76.7723 274.121 76.8468C274.095 76.9213 274.046 76.9859 273.982 77.0316C273.917 77.0773 273.84 77.1019 273.762 77.1019Z" fill="#B3B3B3"/>
<path d="M148.005 155.968C148.006 157.379 147.728 158.777 147.188 160.081C146.648 161.385 145.856 162.569 144.858 163.568C143.859 164.566 142.674 165.358 141.369 165.898C140.064 166.438 138.666 166.716 137.254 166.717C137.161 166.718 137.069 166.715 136.977 166.706C135.587 163.243 135.052 159.498 135.415 155.785C135.778 152.073 137.03 148.502 139.064 145.374C141.565 145.802 143.835 147.101 145.471 149.039C147.107 150.978 148.005 153.432 148.005 155.968Z" fill="#34C387"/>
<path d="M160.185 150.84C160.187 150.034 160.508 149.261 161.078 148.691C161.649 148.12 162.423 147.799 163.23 147.798H179.435C180.381 149.721 181.054 151.768 181.433 153.878H163.23C162.423 153.877 161.65 153.558 161.079 152.988C160.508 152.419 160.187 151.646 160.185 150.84Z" fill="#34C387"/>
<path d="M181.81 158.06C181.811 160.113 181.539 162.157 181.002 164.139H163.23C162.423 164.139 161.649 163.819 161.079 163.249C160.508 162.679 160.188 161.906 160.188 161.099C160.188 160.293 160.508 159.52 161.079 158.95C161.649 158.38 162.423 158.06 163.23 158.06H181.81Z" fill="#34C387"/>
<path d="M221.905 195.553C221.446 196.305 220.708 196.844 219.851 197.051C218.995 197.258 218.092 197.117 217.339 196.659L178.582 173.037C178.21 172.81 177.886 172.512 177.629 172.16C177.372 171.807 177.187 171.408 177.084 170.985C176.981 170.561 176.963 170.121 177.03 169.691C177.098 169.26 177.249 168.847 177.476 168.475C177.704 168.102 178.002 167.779 178.354 167.522C178.707 167.265 179.106 167.08 179.53 166.977C179.954 166.874 180.394 166.856 180.825 166.924C181.256 166.991 181.67 167.142 182.042 167.369L220.799 190.991C221.551 191.45 222.09 192.188 222.298 193.044C222.505 193.899 222.364 194.802 221.905 195.553Z" fill="#5E5E5E"/>
<path d="M183.148 171.932C180.411 176.416 176.405 179.988 171.637 182.196C166.868 184.405 161.551 185.151 156.358 184.34C151.165 183.529 146.33 181.198 142.463 177.641C138.596 174.084 135.871 169.461 134.634 164.357C133.396 159.253 133.701 153.896 135.51 148.965C137.319 144.034 140.551 139.75 144.797 136.654C149.042 133.559 154.111 131.791 159.363 131.573C164.614 131.356 169.812 132.7 174.299 135.435C180.31 139.108 184.617 145.013 186.276 151.855C187.935 158.697 186.81 165.918 183.148 171.932ZM143.446 147.734C141.393 151.097 140.384 154.992 140.547 158.928C140.71 162.863 142.037 166.662 144.361 169.844C146.685 173.026 149.9 175.448 153.601 176.803C157.302 178.159 161.323 178.388 165.154 177.46C168.985 176.533 172.455 174.491 175.125 171.593C177.794 168.695 179.544 165.071 180.153 161.179C180.761 157.288 180.201 153.303 178.544 149.73C176.886 146.156 174.205 143.154 170.84 141.103C166.325 138.358 160.906 137.515 155.77 138.758C150.635 140.001 146.203 143.229 143.446 147.734Z" fill="#5E5E5E"/>
<path d="M272.921 163.182C279.211 161.273 282.279 153.042 279.773 144.798C277.266 136.553 270.135 131.418 263.845 133.327C257.555 135.236 254.488 143.468 256.994 151.712C259.5 159.956 266.631 165.092 272.921 163.182Z" fill="#FFC399"/>
<path d="M267.413 224.947C267.151 224.13 267.064 223.268 267.159 222.415C267.253 221.563 267.527 220.74 267.962 220.001C268.397 219.262 268.984 218.623 269.683 218.126C270.382 217.629 271.179 217.286 272.021 217.118C272.287 217.066 272.557 217.033 272.828 217.019L287.152 194.048L274.068 181.619C273.568 181.144 273.167 180.575 272.889 179.944C272.61 179.314 272.459 178.634 272.445 177.945C272.431 177.256 272.553 176.571 272.805 175.93C273.058 175.288 273.434 174.703 273.914 174.208C274.394 173.712 274.967 173.317 275.601 173.045C276.234 172.772 276.915 172.628 277.605 172.619C278.295 172.611 278.979 172.74 279.619 172.998C280.259 173.256 280.841 173.638 281.332 174.121L299.397 191.92L299.433 191.964C299.992 192.814 300.262 193.821 300.202 194.836C300.143 195.851 299.758 196.82 299.104 197.599L279.035 221.316C279.095 221.506 279.145 221.699 279.184 221.895C279.352 222.736 279.34 223.603 279.149 224.439C278.959 225.275 278.593 226.061 278.077 226.746C277.561 227.431 276.906 228 276.154 228.414C275.403 228.828 274.572 229.079 273.717 229.151C273.544 229.166 273.372 229.173 273.201 229.173C271.914 229.168 270.661 228.756 269.622 227.997C268.582 227.238 267.809 226.171 267.413 224.947Z" fill="#FFC399"/>
<path d="M245.896 337.875L239.109 337.875L235.88 311.715L245.897 311.715L245.896 337.875Z" fill="#FFC399"/>
<path d="M247.627 344.45L225.742 344.449V344.173C225.742 343.055 225.962 341.948 226.39 340.916C226.818 339.883 227.446 338.944 228.237 338.154C229.028 337.364 229.967 336.737 231 336.309C232.034 335.881 233.141 335.661 234.26 335.661H234.261L247.627 335.662L247.627 344.45Z" fill="#333333"/>
<path d="M313.36 328.499L307.528 331.968L291.359 311.143L299.966 306.021L313.36 328.499Z" fill="#FFC399"/>
<path d="M318.213 333.262L299.409 344.45L299.267 344.212C298.695 343.252 298.317 342.188 298.156 341.082C297.996 339.976 298.054 338.849 298.329 337.765C298.604 336.682 299.09 335.663 299.759 334.767C300.428 333.871 301.267 333.116 302.228 332.544L302.229 332.544L313.714 325.711L318.213 333.262Z" fill="#333333"/>
<path d="M235.024 326.354C230.477 272.856 227.772 223.157 244.394 202.883L244.522 202.726L272.495 213.906L272.541 214.006C272.635 214.212 281.938 234.659 279.768 248.412L286.668 280.127L309.165 317.767C309.346 318.07 309.461 318.408 309.501 318.759C309.542 319.11 309.507 319.465 309.4 319.801C309.292 320.137 309.115 320.447 308.879 320.709C308.642 320.972 308.353 321.181 308.03 321.323L298.253 325.621C297.701 325.861 297.082 325.895 296.507 325.715C295.933 325.536 295.443 325.156 295.126 324.645L270.653 284.769L256.83 254.185C256.755 254.019 256.627 253.882 256.467 253.796C256.306 253.71 256.122 253.679 255.942 253.707C255.762 253.736 255.596 253.824 255.471 253.956C255.345 254.088 255.267 254.258 255.247 254.439L247.585 326.409C247.521 327.021 247.232 327.587 246.775 327.998C246.317 328.409 245.723 328.636 245.108 328.635H237.507C236.884 328.632 236.284 328.396 235.825 327.974C235.366 327.553 235.08 326.975 235.024 326.354Z" fill="#333333"/>
<path d="M244.488 203.308L244.354 203.244L244.333 203.097C243.288 195.79 244.525 187.67 248.009 178.964C249.727 174.703 252.919 171.2 257.004 169.094C261.09 166.988 265.796 166.418 270.267 167.489C272.842 168.123 275.257 169.284 277.359 170.9C279.462 172.515 281.205 174.549 282.48 176.873C283.738 179.173 284.505 181.71 284.731 184.321C284.957 186.933 284.638 189.563 283.794 192.045C279.401 204.879 273.703 216.888 273.646 217.008L273.527 217.258L244.488 203.308Z" fill="#F16F82"/>
<path d="M213.968 185.105C214.642 184.574 215.42 184.191 216.252 183.981C217.084 183.771 217.951 183.739 218.796 183.888C219.641 184.036 220.446 184.361 221.156 184.842C221.867 185.322 222.468 185.947 222.92 186.676C223.062 186.908 223.188 187.149 223.296 187.398L249.845 192.759L256.914 176.161C257.184 175.527 257.577 174.953 258.071 174.471C258.564 173.99 259.148 173.61 259.789 173.356C260.43 173.101 261.115 172.976 261.805 172.987C262.495 172.998 263.175 173.146 263.807 173.422C264.44 173.697 265.011 174.095 265.488 174.593C265.966 175.09 266.34 175.677 266.589 176.32C266.838 176.963 266.957 177.649 266.939 178.338C266.922 179.027 266.768 179.705 266.486 180.334L256.128 203.475L256.099 203.525C255.498 204.345 254.649 204.95 253.676 205.25C252.704 205.55 251.661 205.529 250.702 205.19L221.441 194.712C221.284 194.834 221.12 194.949 220.951 195.054C220.222 195.506 219.405 195.798 218.554 195.912C217.704 196.026 216.839 195.96 216.016 195.717C215.193 195.473 214.43 195.059 213.779 194.501C213.127 193.943 212.601 193.254 212.235 192.478C212.16 192.322 212.093 192.163 212.033 192.003C211.587 190.796 211.534 189.479 211.882 188.241C212.229 187.002 212.959 185.905 213.968 185.105Z" fill="#FFC399"/>
<path d="M317.414 163.325C316.105 161.006 314.197 158.882 311.674 158.025C308.416 156.918 304.888 158.097 301.538 158.884C298.958 159.49 296.261 159.861 293.66 159.349C291.059 158.838 288.55 157.325 287.366 154.955C285.625 151.468 287.092 147.309 286.986 143.413C286.931 141.293 286.396 139.212 285.42 137.328C284.443 135.445 283.052 133.807 281.35 132.539C279.649 131.27 277.681 130.405 275.596 130.007C273.51 129.609 271.362 129.689 269.312 130.241C266.105 129.316 263.2 129.231 261.216 131.695C258.72 131.695 256.326 132.686 254.561 134.449C252.796 136.213 251.805 138.605 251.805 141.099H260.804C260.378 143.392 260.865 145.761 262.163 147.699C263.752 150.032 266.514 151.719 267.046 154.49C267.561 157.175 265.735 159.722 263.819 161.674C261.903 163.626 259.68 165.559 259.082 168.227C258.715 170.252 259.132 172.341 260.247 174.072C261.359 175.781 262.74 177.301 264.336 178.572C271.525 184.727 280.069 189.094 289.27 191.319C295.75 192.877 302.837 193.281 308.853 190.414C311.259 189.267 313.404 187.637 315.153 185.627C316.903 183.617 318.22 181.268 319.023 178.728C319.826 176.188 320.097 173.509 319.821 170.86C319.544 168.21 318.725 165.645 317.414 163.325Z" fill="#333333"/>
<path d="M319.446 345.025H214.256C214.109 345.025 213.969 344.967 213.865 344.863C213.761 344.76 213.703 344.619 213.703 344.472C213.703 344.325 213.761 344.185 213.865 344.081C213.969 343.977 214.109 343.919 214.256 343.919H319.446C319.593 343.919 319.734 343.977 319.838 344.081C319.942 344.185 320 344.325 320 344.472C320 344.619 319.942 344.76 319.838 344.863C319.734 344.967 319.593 345.025 319.446 345.025Z" fill="#B3B3B3"/>
</g>
<defs>
<clipPath id="clip0">
<rect width="320" height="344.052" fill="white" transform="translate(0 0.973633)"/>
</clipPath>
</defs>
</svg>
