<svg width="170" height="316" viewBox="0 0 170 316" fill="none" xmlns="http://www.w3.org/2000/svg">
<path d="M35.0184 117.584C35.0184 117.584 37.8977 130.054 46.3212 130.054C53.5501 130.054 63.4438 113.803 63.4438 113.803L35.0184 117.584Z" fill="#F99746"/>
<path d="M131.689 301.857L126.267 305.546C126.267 305.546 100.261 277.954 93.9821 251.49C92.8488 246.764 92.4199 242.099 92.8794 237.679C92.8794 237.679 92.5118 236.49 91.8379 234.355C91.8073 234.264 91.7767 234.172 91.746 234.081C91.4704 233.166 91.1028 232.069 90.7046 230.819C89.4487 226.825 87.7028 221.337 85.7424 215.117C81.209 200.787 70.7946 168.439 66.3531 154.993L98.3011 143.499C98.3011 143.499 101.915 151.731 107.153 174.11C107.95 177.037 108.746 180.269 109.512 183.775C110.37 187.769 111.166 192.129 111.809 196.824C112.943 204.812 113.678 213.776 113.739 223.623C113.77 227.617 113.647 231.794 113.433 236.063C113.249 239.203 113.739 243.38 114.597 248.167C118.609 269.966 131.689 301.857 131.689 301.857Z" fill="#5E5E5E"/>
<path d="M148.72 315.15H122.898C122.898 315.15 121.918 311.065 123.633 308.26C125.134 305.79 124.552 304.388 123.45 302.345C124.614 302.833 126.145 303.26 127.799 303.168C129.086 303.107 130.434 302.528 131.628 301.827C132.731 303.077 137.509 308.443 138.98 309.51C140.664 310.73 148.199 310.303 148.72 315.15Z" fill="#040E0A"/>
<path d="M111.839 196.854L91.7761 234.081C91.5005 233.166 91.1329 232.069 90.7347 230.819C89.4788 226.825 87.7329 221.337 85.7725 215.117C81.2391 200.787 70.8247 168.439 66.3832 154.993L98.3311 143.499C98.3311 143.499 101.946 151.731 107.183 174.11C107.98 177.037 108.776 180.269 109.542 183.775C110.369 187.799 111.165 192.159 111.839 196.854Z" fill="#505051"/>
<path d="M65.8634 307.132C65.8634 307.132 64.0868 311.492 65.7715 315.181H79.831C79.831 315.181 80.1374 311.858 75.022 308.016C71.1319 305.089 65.8634 307.132 65.8634 307.132Z" fill="#040E0A"/>
<path d="M81.1477 22.9169C81.1477 22.2156 81.5152 14.7154 92.9712 14.0447C92.9712 14.0447 87.3351 14.8374 86.4468 17.3374C86.4468 17.3374 90.2144 14.1971 93.3694 15.1118C96.5244 16.0264 98.4847 21.4229 98.546 23.2217C98.6073 25.0206 97.0144 30.8439 95.0541 31.3622C94.3189 31.5756 93.4306 31.5451 92.6649 31.4232C93.2162 32.2159 93.7369 33.1305 94.2577 34.1367C99.0667 43.3747 94.9316 54.2591 91.0108 53.3445C88.4991 52.7652 86.9982 57.0641 86.9982 57.0641L62.953 36.4843C62.9223 36.4843 71.3458 18.0082 81.1477 22.9169Z" fill="#040E0A"/>
<path d="M66.0474 85.4492C68.7123 87.2785 72.0511 88.8029 76.2475 89.7786C91.9611 93.4067 97.9954 80.1747 100.262 71.089C98.1179 69.8695 96.0963 69.5951 94.9323 69.4731C93.799 69.3512 92.6044 69.2597 91.6242 69.1987C89.8476 67.8572 87.2133 62.3388 86.6313 53.802L85.8962 53.9849L73.4907 57.3387C73.4907 57.3387 74.0727 61.2717 74.3484 64.9608C74.5628 67.8573 74.5934 70.6317 74.0421 71.3025C73.0619 71.5159 72.4799 71.6378 72.4799 71.6378C72.3267 71.9427 68.7123 77.827 66.0474 85.4492Z" fill="#FFB27D"/>
<path d="M73.491 57.3386C73.491 57.3386 74.0729 61.2716 74.3486 64.9607C81.3631 64.2595 84.6406 57.613 85.8965 53.9543L73.491 57.3386Z" fill="#ED985F"/>
<path d="M73.3375 63.2229C73.3375 63.2229 89.5106 59.0764 86.7538 49.1067C83.997 39.1369 84.2421 31.8806 73.8276 34.0758C63.3825 36.3015 62.4329 40.6613 62.5554 44.198C62.678 47.7347 69.0798 64.0156 73.3375 63.2229Z" fill="#FFB27D"/>
<path d="M61.4832 38.527C63.1372 34.8379 65.1895 34.9903 66.5066 35.6001C73.9805 28.3743 81.6076 33.9537 81.6076 33.9537C84.6707 40.8136 90.9807 43.4966 90.9807 43.4966C90.9807 43.4966 88.5302 46.0882 81.3013 46.2101C79.0959 46.2406 76.8292 45.2955 74.7769 43.954C78.759 47.765 83.4148 50.0517 83.4148 50.0517C74.3175 48.5577 67.9769 38.2526 67.3336 37.155C66.5985 38.3136 65.1895 40.7526 65.0976 42.7649C65.0057 45.5394 66.0778 50.8444 64.485 51.0883C64.5156 51.0883 59.0021 44.0454 61.4832 38.527Z" fill="#040E0A"/>
<path d="M68.6816 70.8144C68.6816 70.8144 95.8205 64.2594 107.644 73.9548L101.732 155.847L48.649 143.072C48.649 143.072 50.15 137.889 60.3194 124.109C70.5195 110.328 66.078 90.1137 68.6816 70.8144Z" fill="#FFB27D"/>
<path d="M84.5172 146.731C84.5172 146.731 84.4866 147.005 84.4253 147.524C84.3947 147.737 84.364 148.012 84.3334 148.347C84.119 150.481 83.6595 154.536 83.1082 159.841C81.6379 173.744 79.3712 196.031 77.809 213.653C76.5838 227.434 75.818 238.319 76.2469 240.057C77.5027 245.331 76.2469 308.26 76.2469 308.26C71.7441 310.424 64.8828 308.26 64.8828 308.26C64.8828 308.26 52.8755 251.551 54.5296 243.654C56.2143 235.758 53.3963 229.05 53.3963 229.05C44.0845 185.817 45.1259 161.823 46.9638 150.329C47.5151 146.975 48.1278 144.719 48.5566 143.316C48.9242 142.127 49.1998 141.578 49.1998 141.578C69.7838 136.09 84.5172 146.731 84.5172 146.731Z" fill="#5E5E5E"/>
<path d="M111.319 97.3091C110.002 107.157 104.764 119.23 102.896 125.724C102.896 125.724 106.02 148.256 103.049 154.445C102.712 155.146 102.283 155.634 101.763 155.878C90.7048 160.664 47.5766 156.03 45.7387 142.158C45.0649 137.127 62.1569 119.444 63.1677 117.279C63.5965 116.395 64.0253 113.499 62.0037 107.553C59.155 116.273 43.5027 113.773 43.5027 113.773C45.3405 110.633 49.9352 88.9552 55.0505 79.1684C58.91 71.8206 69.1713 70.7535 69.1713 70.7535C69.1713 70.7535 73.4596 77.4915 83.7822 76.5463C94.1354 75.6012 96.0039 69.29 96.0039 69.29C96.0039 69.29 105.163 70.5096 108.011 72.7657C108.471 73.1621 113.035 84.4124 111.319 97.3091Z" fill="#F16F82"/>
<path d="M102.896 125.725C102.896 125.725 106.021 148.256 103.049 154.445C94.9934 150.42 88.6222 139.505 90.0925 127.371C91.1646 118.407 92.788 116.334 97.6277 111.212C101.181 107.431 109.359 107.218 108.716 109.017C106.786 114.352 103.876 122.279 102.896 125.725Z" fill="#EF586E"/>
<path d="M69.2023 99.0776L87.7033 128.591H56.2455L38.6328 99.6874L69.2023 99.0776Z" fill="#34C387"/>
<path d="M86.7532 127.097L87.0595 126.06L69.5694 98.1323L69.2018 99.0775L86.7532 127.097Z" fill="#EFDECE"/>
<path d="M69.5699 98.1323L39.9192 98.986L38.6328 99.6873L69.2023 99.0775L69.5699 98.1323Z" fill="#FCECDB"/>
<path d="M38.6325 99.6873L22 90.7542L41.3893 121.029L56.2453 128.591L38.6325 99.6873Z" fill="#2FAF79"/>
<path d="M126.604 120.389C124.827 121.212 120.263 126.548 118.609 127.096C111.289 129.536 80.0451 123.041 80.0451 123.041L81.0253 117.584C81.0253 117.584 111.656 118.407 115.026 117.493C115.669 117.31 118.977 112.157 120.233 111.425L126.604 120.389Z" fill="#FFB27D"/>
<path d="M81.0259 117.614C81.0259 117.614 77.3196 114.627 74.8385 115.297C72.3267 115.968 68.6817 119.108 67.3033 119.871C65.9249 120.602 62.2186 123.285 64.1177 124.901C65.9862 126.517 71.8367 125.115 74.1646 123.895C76.4925 122.676 80.0763 123.072 80.0763 123.072L81.0259 117.614Z" fill="#FFB27D"/>
<path d="M75.5432 115.175C75.5432 115.175 71.0405 114.657 69.8152 114.657C68.59 114.687 68.9269 114.962 69.6008 115.907C70.2747 116.852 72.6026 117.218 72.7252 117.553C72.8477 117.889 75.5432 115.175 75.5432 115.175Z" fill="#FFB27D"/>
<path d="M96.0044 69.2595C96.0044 69.2595 109.329 70.8449 112.974 76.5158C117.599 83.7111 128.565 112.34 128.197 119.535C128.197 119.535 120.203 133.072 92.7575 130.907C92.7575 130.907 89.9089 120.877 95.6675 117.553C95.6675 117.553 109.758 115.053 111.381 113.651L99.8945 92.8577L96.0044 69.2595Z" fill="#F16F82"/>
<path d="M42.8911 110.48C42.4929 108.803 38.8172 109.84 37.592 110.816C37.2857 111.06 36.9794 111.456 36.6424 111.913C36.6118 111.639 36.5812 111.364 36.5506 111.151C36.4893 110.358 35.5704 108.956 35.3253 110.023C35.1109 111.09 34.7127 115.48 34.7127 115.48C34.6821 119.048 36.9794 120.511 38.4497 119.352C39.9506 118.224 43.2893 112.157 42.8911 110.48Z" fill="#FFB27D"/>
</svg>
