<svg width="134" height="320" viewBox="0 0 134 320" fill="none" xmlns="http://www.w3.org/2000/svg">
<path d="M13.698 110.025C13.698 110.025 16.7276 123.276 25.5907 123.276C33.1969 123.276 43.607 106.008 43.607 106.008L13.698 110.025Z" fill="#F99746"/>
<path d="M115.414 305.842L109.709 309.762C109.709 309.762 82.3461 280.441 75.739 252.319C74.5465 247.298 74.0953 242.341 74.5787 237.643C74.5787 237.643 74.192 236.379 73.4829 234.112C73.4507 234.014 73.4185 233.917 73.3862 233.82C73.0962 232.848 72.7094 231.682 72.2904 230.353C70.969 226.109 69.1319 220.277 67.0693 213.668C62.2993 198.441 51.3412 164.066 46.668 149.778L80.2834 137.564C80.2834 137.564 84.0864 146.312 89.5977 170.092C90.4357 173.202 91.2736 176.637 92.0794 180.362C92.9818 184.607 93.8198 189.24 94.4966 194.229C95.6891 202.717 96.4626 212.243 96.527 222.707C96.5593 226.951 96.4304 231.39 96.2047 235.926C96.0114 239.263 96.527 243.701 97.4295 248.788C101.652 271.953 115.414 305.842 115.414 305.842Z" fill="#5E5E5E"/>
<path d="M133.334 319.968H106.164C106.164 319.968 105.133 315.626 106.938 312.646C108.517 310.021 107.905 308.531 106.745 306.36C107.969 306.879 109.581 307.332 111.321 307.235C112.675 307.17 114.093 306.555 115.35 305.809C116.51 307.138 121.538 312.84 123.085 313.974C124.858 315.27 132.786 314.816 133.334 319.968Z" fill="#040E0A"/>
<path d="M94.5283 194.261L73.418 233.82C73.1279 232.848 72.7412 231.682 72.3222 230.353C71.0008 226.109 69.1637 220.277 67.101 213.668C62.331 198.441 51.373 164.066 46.6997 149.778L80.3151 137.564C80.3151 137.564 84.1182 146.312 89.6294 170.092C90.4674 173.202 91.3054 176.637 92.1111 180.362C92.9813 184.639 93.8193 189.272 94.5283 194.261Z" fill="#505051"/>
<path d="M46.1527 311.447C46.1527 311.447 44.2834 316.08 46.056 320H60.8494C60.8494 320 61.1717 316.469 55.7893 312.386C51.6962 309.276 46.1527 311.447 46.1527 311.447Z" fill="#040E0A"/>
<path d="M62.2348 9.42796C62.2348 8.6828 62.6215 0.712767 74.6754 0C74.6754 0 68.7451 0.842361 67.8105 3.49904C67.8105 3.49904 71.7747 0.161992 75.0943 1.13395C78.414 2.1059 80.4767 7.84044 80.5411 9.75195C80.6056 11.6635 78.9296 17.8516 76.867 18.4023C76.0935 18.6291 75.1588 18.5967 74.3531 18.4671C74.9332 19.3095 75.4811 20.2815 76.029 21.3506C81.089 31.1674 76.738 42.7336 72.6127 41.7617C69.9698 41.1461 68.3906 45.7143 68.3906 45.7143L43.0904 23.8453C43.0582 23.8453 51.9213 4.2118 62.2348 9.42796Z" fill="#040E0A"/>
<path d="M46.3464 75.8773C49.1504 77.8212 52.6634 79.4412 57.0789 80.4779C73.6126 84.3333 79.9618 70.2724 82.3468 60.6176C80.0908 59.3217 77.9636 59.0301 76.7389 58.9005C75.5464 58.7709 74.2894 58.6737 73.2581 58.6089C71.3888 57.1834 68.617 51.3193 68.0047 42.2477L67.2312 42.4421L54.1782 46.0059C54.1782 46.0059 54.7906 50.1853 55.0806 54.1055C55.3062 57.1834 55.3385 60.1317 54.7583 60.8444C53.727 61.0712 53.1146 61.2008 53.1146 61.2008C52.9535 61.5248 49.1504 67.7777 46.3464 75.8773Z" fill="#FFB27D"/>
<path d="M54.1785 46.0059C54.1785 46.0059 54.7908 50.1853 55.0809 54.1055C62.4615 53.3604 65.91 46.2975 67.2314 42.4097L54.1785 46.0059Z" fill="#ED985F"/>
<path d="M54.0169 52.2588C54.0169 52.2588 71.0341 47.8526 68.1335 37.2583C65.2328 26.664 65.4906 18.9532 54.5326 21.2859C43.5423 23.651 42.5432 28.2839 42.6721 32.0422C42.8011 35.8004 49.537 53.1012 54.0169 52.2588Z" fill="#FFB27D"/>
<path d="M41.5438 26.016C43.2842 22.0957 45.4436 22.2577 46.8295 22.9057C54.6935 15.2273 62.7186 21.1562 62.7186 21.1562C65.9416 28.4458 72.5809 31.2969 72.5809 31.2969C72.5809 31.2969 70.0025 34.0508 62.3963 34.1804C60.0758 34.2128 57.6908 33.2084 55.5314 31.7829C59.7213 35.8327 64.6202 38.2626 64.6202 38.2626C55.048 36.6751 48.3765 25.7244 47.6997 24.558C46.9262 25.7892 45.4436 28.381 45.3469 30.5193C45.2502 33.4676 46.3782 39.105 44.7023 39.3641C44.7345 39.3641 38.9332 31.8801 41.5438 26.016Z" fill="#040E0A"/>
<path d="M49.1181 60.326C49.1181 60.326 77.6735 53.3603 90.1141 63.663L83.8938 150.685L28.04 137.11C28.04 137.11 29.6193 131.603 40.3195 116.959C51.0519 102.314 46.3786 80.8343 49.1181 60.326Z" fill="#FFB27D"/>
<path d="M65.7802 140.998C65.7802 140.998 65.748 141.29 65.6835 141.841C65.6513 142.067 65.619 142.359 65.5868 142.715C65.3612 144.983 64.8778 149.292 64.2976 154.93C62.7506 169.703 60.3656 193.387 58.7219 212.113C57.4327 226.757 56.627 238.323 57.0782 240.17C58.3996 245.775 57.0782 312.646 57.0782 312.646C52.3405 314.946 45.1211 312.646 45.1211 312.646C45.1211 312.646 32.4871 252.384 34.2275 243.993C36.0001 235.602 33.035 228.474 33.035 228.474C23.2372 182.533 24.333 157.036 26.2668 144.821C26.8469 141.258 27.4915 138.86 27.9427 137.37C28.3295 136.106 28.6195 135.523 28.6195 135.523C50.2778 129.691 65.7802 140.998 65.7802 140.998Z" fill="#5E5E5E"/>
<path d="M93.9812 88.4803C92.5953 98.945 87.0841 111.775 85.1181 118.676C85.1181 118.676 88.4055 142.618 85.2792 149.195C84.9247 149.94 84.4735 150.459 83.9256 150.718C72.2907 155.804 26.9115 150.88 24.9778 136.138C24.2687 130.793 42.2528 112.002 43.3164 109.701C43.7676 108.762 44.2188 105.684 42.0916 99.3662C39.0943 108.632 22.625 105.975 22.625 105.975C24.5588 102.638 29.3932 79.6031 34.7755 69.2032C38.8365 61.3951 49.6333 60.2612 49.6333 60.2612C49.6333 60.2612 54.1455 67.4213 65.0068 66.4169C75.9004 65.4125 77.8664 58.7061 77.8664 58.7061C77.8664 58.7061 87.503 60.002 90.5004 62.3995C90.9838 62.8207 95.786 74.7757 93.9812 88.4803Z" fill="#F16F82"/>
<path d="M85.1182 118.676C85.1182 118.676 88.4057 142.618 85.2794 149.195C76.803 144.918 70.0993 133.32 71.6463 120.425C72.7743 110.9 74.4825 108.697 79.5748 103.254C83.3134 99.2366 91.9187 99.0098 91.2419 100.921C89.2114 106.591 86.1496 115.015 85.1182 118.676Z" fill="#EF586E"/>
<path d="M49.666 90.3594L69.1327 121.721H36.033L17.501 91.0073L49.666 90.3594Z" fill="#34C387"/>
<path d="M68.1328 120.134L68.4551 119.032L50.052 89.3551L49.6653 90.3595L68.1328 120.134Z" fill="#EFDECE"/>
<path d="M50.0528 89.3551L18.8546 90.2623L17.501 91.0074L49.666 90.3595L50.0528 89.3551Z" fill="#FCECDB"/>
<path d="M17.5006 91.0074L0 81.5146L20.4013 113.686L36.0326 121.721L17.5006 91.0074Z" fill="#2FAF79"/>
<path d="M110.064 113.006C108.194 113.881 103.392 119.55 101.652 120.134C93.9488 122.726 61.0747 115.825 61.0747 115.825L62.1061 110.025C62.1061 110.025 94.3356 110.9 97.8808 109.928C98.5576 109.734 102.038 104.258 103.36 103.481L110.064 113.006Z" fill="#FFB27D"/>
<path d="M62.1066 110.058C62.1066 110.058 58.2068 106.883 55.5962 107.595C52.9534 108.308 49.1181 111.645 47.6678 112.455C46.2174 113.233 42.3177 116.084 44.3159 117.801C46.2819 119.518 52.4377 118.028 54.8872 116.732C57.3366 115.436 61.1075 115.857 61.1075 115.857L62.1066 110.058Z" fill="#FFB27D"/>
<path d="M56.3378 107.466C56.3378 107.466 51.6001 106.915 50.3109 106.915C49.0217 106.947 49.3763 107.239 50.0853 108.243C50.7944 109.248 53.2438 109.637 53.3727 109.993C53.5016 110.349 56.3378 107.466 56.3378 107.466Z" fill="#FFB27D"/>
<path d="M77.8669 58.6737C77.8669 58.6737 91.8867 60.3584 95.7221 66.3845C100.589 74.0306 112.127 104.453 111.74 112.099C111.74 112.099 103.328 126.484 74.4506 124.183C74.4506 124.183 71.4532 113.524 77.5124 109.993C77.5124 109.993 92.338 107.336 94.0461 105.846L81.9601 83.7501L77.8669 58.6737Z" fill="#F16F82"/>
<path d="M21.9816 102.477C21.5626 100.695 17.6951 101.796 16.4059 102.833C16.0836 103.092 15.7613 103.513 15.4068 103.999C15.3745 103.708 15.3423 103.416 15.3101 103.189C15.2456 102.347 14.2787 100.857 14.0209 101.991C13.7953 103.124 13.3763 107.79 13.3763 107.79C13.3441 111.58 15.7613 113.136 17.3083 111.904C18.8875 110.706 22.4006 104.258 21.9816 102.477Z" fill="#FFB27D"/>
</svg>
