<svg width="170" height="315" viewBox="0 0 170 315" fill="none" xmlns="http://www.w3.org/2000/svg">
<path d="M35.0184 117.211C35.0184 117.211 37.8977 129.641 46.3212 129.641C53.5501 129.641 63.4438 113.442 63.4438 113.442L35.0184 117.211Z" fill="#F99746"/>
<path d="M131.689 300.899L126.267 304.576C126.267 304.576 100.261 277.071 93.9821 250.691C92.8488 245.981 92.4199 241.331 92.8794 236.924C92.8794 236.924 92.5118 235.739 91.8379 233.611C91.8073 233.52 91.7767 233.429 91.746 233.338C91.4704 232.426 91.1028 231.332 90.7046 230.086C89.4487 226.104 87.7028 220.634 85.7424 214.434C81.209 200.15 70.7946 167.904 66.3531 154.501L98.301 143.043C98.301 143.043 101.915 151.249 107.153 173.557C107.95 176.474 108.746 179.696 109.512 183.191C110.37 187.172 111.166 191.518 111.809 196.199C112.943 204.161 113.678 213.097 113.739 222.913C113.77 226.894 113.647 231.058 113.433 235.313C113.249 238.443 113.739 242.607 114.597 247.379C118.609 269.109 131.689 300.899 131.689 300.899Z" fill="#5E5E5E"/>
<path d="M148.72 314.15H122.898C122.898 314.15 121.918 310.077 123.633 307.281C125.134 304.82 124.552 303.422 123.45 301.385C124.614 301.872 126.145 302.297 127.799 302.206C129.086 302.145 130.434 301.568 131.628 300.869C132.731 302.115 137.509 307.464 138.98 308.527C140.664 309.743 148.199 309.318 148.72 314.15Z" fill="#040E0A"/>
<path d="M111.839 196.229L91.7762 233.338C91.5005 232.426 91.133 231.332 90.7348 230.086C89.4789 226.104 87.7329 220.634 85.7726 214.434C81.2392 200.15 70.8247 167.904 66.3832 154.501L98.3312 143.043C98.3312 143.043 101.946 151.249 107.184 173.557C107.98 176.474 108.776 179.696 109.542 183.191C110.369 187.203 111.166 191.549 111.839 196.229Z" fill="#505051"/>
<path d="M65.8634 306.157C65.8634 306.157 64.0868 310.503 65.7715 314.18H79.831C79.831 314.18 80.1374 310.867 75.022 307.038C71.1319 304.12 65.8634 306.157 65.8634 306.157Z" fill="#040E0A"/>
<path d="M81.1477 22.844C81.1477 22.145 81.5152 14.6686 92.9712 14C92.9712 14 87.3351 14.7902 86.4468 17.2823C86.4468 17.2823 90.2144 14.152 93.3694 15.0637C96.5244 15.9755 98.4847 21.3548 98.546 23.1479C98.6073 24.9411 97.0144 30.7459 95.0541 31.2626C94.3189 31.4753 93.4306 31.4449 92.6649 31.3233C93.2162 32.1135 93.7369 33.0253 94.2577 34.0282C99.0667 43.2369 94.9316 54.0868 91.0108 53.175C88.4991 52.5976 86.9982 56.8829 86.9982 56.8829L62.953 36.3684C62.9223 36.3684 71.3458 17.9509 81.1477 22.844Z" fill="#040E0A"/>
<path d="M66.0474 85.1778C68.7123 87.0013 72.0511 88.5209 76.2475 89.4935C91.9611 93.1101 97.9954 79.92 100.262 70.8633C98.1179 69.6476 96.0963 69.3741 94.9323 69.2525C93.799 69.1309 92.6044 69.0398 91.6242 68.979C89.8476 67.6417 87.2133 62.1408 86.6313 53.6311L85.8962 53.8135L73.4907 57.1566C73.4907 57.1566 74.0727 61.0771 74.3484 64.7545C74.5628 67.6417 74.5934 70.4074 74.0421 71.076C73.0619 71.2888 72.4799 71.4103 72.4799 71.4103C72.3267 71.7142 68.7123 77.5799 66.0474 85.1778Z" fill="#FFB27D"/>
<path d="M73.491 57.1565C73.491 57.1565 74.0729 61.077 74.3486 64.7544C81.3631 64.0554 84.6406 57.43 85.8965 53.783L73.491 57.1565Z" fill="#ED985F"/>
<path d="M73.3375 63.0222C73.3375 63.0222 89.5106 58.8889 86.7538 48.9508C83.997 39.0126 84.2421 31.7794 73.8276 33.9676C63.3825 36.1862 62.4329 40.5322 62.5554 44.0577C62.678 47.5831 69.0798 63.8124 73.3375 63.0222Z" fill="#FFB27D"/>
<path d="M61.4832 38.4046C63.1372 34.7272 65.1895 34.8792 66.5066 35.487C73.9805 28.2841 81.6076 33.8458 81.6076 33.8458C84.6707 40.684 90.9807 43.3585 90.9807 43.3585C90.9807 43.3585 88.5302 45.9418 81.3013 46.0634C79.0959 46.0937 76.8292 45.1516 74.7769 43.8144C78.759 47.6133 83.4148 49.8927 83.4148 49.8927C74.3175 48.4035 67.9769 38.1311 67.3336 37.037C66.5985 38.1919 65.1895 40.6232 65.0976 42.6291C65.0057 45.3947 66.0778 50.6829 64.485 50.926C64.5156 50.926 59.0021 43.9055 61.4832 38.4046Z" fill="#040E0A"/>
<path d="M68.6816 70.5896C68.6816 70.5896 95.8205 64.0553 107.644 73.7199L101.732 155.352L48.649 142.618C48.649 142.618 50.15 137.452 60.3194 123.714C70.5195 109.977 66.078 89.8276 68.6816 70.5896Z" fill="#FFB27D"/>
<path d="M84.5172 146.265C84.5172 146.265 84.4866 146.539 84.4253 147.055C84.3947 147.268 84.364 147.542 84.3334 147.876C84.119 150.003 83.6595 154.045 83.1082 159.334C81.6379 173.192 79.3712 195.409 77.809 212.975C76.5838 226.712 75.818 237.562 76.2469 239.294C77.5027 244.552 76.2469 307.281 76.2469 307.281C71.7441 309.439 64.8828 307.281 64.8828 307.281C64.8828 307.281 52.8755 250.752 54.5296 242.881C56.2143 235.009 53.3963 228.323 53.3963 228.323C44.0845 185.227 45.1259 161.309 46.9638 149.851C47.5151 146.508 48.1278 144.259 48.5566 142.861C48.9242 141.676 49.1998 141.129 49.1998 141.129C69.7838 135.658 84.5172 146.265 84.5172 146.265Z" fill="#5E5E5E"/>
<path d="M111.319 97.0002C110.002 106.817 104.764 118.852 102.896 125.325C102.896 125.325 106.02 147.785 103.049 153.954C102.712 154.653 102.283 155.14 101.763 155.383C90.7048 160.154 47.5766 155.535 45.7387 141.707C45.0649 136.692 62.1569 119.065 63.1677 116.907C63.5965 116.025 64.0253 113.138 62.0037 107.212C59.155 115.904 43.5027 113.412 43.5027 113.412C45.3405 110.281 49.9352 88.6728 55.0505 78.917C58.91 71.5926 69.1713 70.5289 69.1713 70.5289C69.1713 70.5289 73.4596 77.2455 83.7822 76.3033C94.1355 75.3612 96.0039 69.0701 96.0039 69.0701C96.0039 69.0701 105.163 70.2857 108.011 72.5347C108.471 72.9298 113.035 84.1444 111.319 97.0002Z" fill="#F16F82"/>
<path d="M102.896 125.325C102.896 125.325 106.021 147.785 103.049 153.954C94.9934 149.943 88.6222 139.062 90.0925 126.966C91.1646 118.031 92.788 115.965 97.6277 110.859C101.181 107.09 109.359 106.877 108.716 108.671C106.786 113.989 103.876 121.891 102.896 125.325Z" fill="#EF586E"/>
<path d="M69.2023 98.7629L87.7033 128.182H56.2455L38.6328 99.3708L69.2023 98.7629Z" fill="#34C387"/>
<path d="M86.7532 126.693L87.0595 125.659L69.5694 97.8206L69.2018 98.7627L86.7532 126.693Z" fill="#EFDECE"/>
<path d="M69.5699 97.8206L39.9192 98.6715L38.6328 99.3705L69.2023 98.7627L69.5699 97.8206Z" fill="#FCECDB"/>
<path d="M38.6325 99.3706L22 90.4658L41.3893 120.645L56.2453 128.182L38.6325 99.3706Z" fill="#2FAF79"/>
<path d="M126.604 120.007C124.827 120.827 120.263 126.146 118.609 126.693C111.289 129.124 80.0451 122.651 80.0451 122.651L81.0253 117.211C81.0253 117.211 111.656 118.031 115.026 117.12C115.669 116.937 118.977 111.801 120.233 111.072L126.604 120.007Z" fill="#FFB27D"/>
<path d="M81.0259 117.241C81.0259 117.241 77.3196 114.262 74.8385 114.931C72.3267 115.6 68.6817 118.73 67.3033 119.49C65.9249 120.219 62.2186 122.894 64.1177 124.504C65.9862 126.115 71.8367 124.717 74.1646 123.502C76.4925 122.286 80.0763 122.681 80.0763 122.681L81.0259 117.241Z" fill="#FFB27D"/>
<path d="M75.5432 114.81C75.5432 114.81 71.0405 114.293 69.8152 114.293C68.59 114.323 68.9269 114.597 69.6008 115.539C70.2747 116.481 72.6026 116.846 72.7252 117.18C72.8477 117.515 75.5432 114.81 75.5432 114.81Z" fill="#FFB27D"/>
<path d="M96.0044 69.0396C96.0044 69.0396 109.329 70.6199 112.974 76.2728C117.599 83.4453 128.565 111.983 128.197 119.156C128.197 119.156 120.203 132.65 92.7575 130.492C92.7575 130.492 89.9089 120.493 95.6675 117.18C95.6675 117.18 109.758 114.688 111.381 113.29L99.8945 92.5628L96.0044 69.0396Z" fill="#F16F82"/>
<path d="M42.8911 110.129C42.4929 108.458 38.8172 109.491 37.592 110.464C37.2857 110.707 36.9794 111.102 36.6424 111.558C36.6118 111.284 36.5812 111.011 36.5506 110.798C36.4893 110.008 35.5704 108.61 35.3253 109.673C35.1109 110.737 34.7127 115.114 34.7127 115.114C34.6821 118.669 36.9794 120.128 38.4497 118.973C39.9506 117.849 43.2893 111.801 42.8911 110.129Z" fill="#FFB27D"/>
</svg>
