<svg width="172" height="320" viewBox="0 0 172 320" fill="none" xmlns="http://www.w3.org/2000/svg">
<path d="M108.106 155.644C108.106 155.644 107.511 155.481 106.483 155.807C105.509 155.861 104.319 155.888 103.751 155.671C102.67 155.263 101.777 156.295 102.453 157.137C102.67 157.436 102.994 157.653 103.346 157.816C101.696 159.364 99.6947 161.971 97.5042 166.371C97.5042 166.371 95.6652 169.684 99.5595 168.652C102.156 167.973 102.697 166.67 106.348 165.638C109.972 164.606 112.838 161.971 113.163 159.201L114.677 156.431L110.864 152.629L108.106 155.644Z" fill="#F9C29D"/>
<path d="M116.409 49.5126C116.409 49.5126 146.509 65.4539 142.858 111.621C141.857 124.114 113.867 160.559 113.867 160.559C113.867 160.559 108.593 158.061 108.62 154.177C108.62 154.177 122.223 114.745 125.144 112.165C127.74 109.883 112.758 74.7961 112.001 65.1552C111.216 55.5415 116.409 49.5126 116.409 49.5126Z" fill="#2FAF79"/>
<path d="M167.09 295.423C167.09 295.423 172.336 300.229 171.308 303.651C170.281 307.073 165.548 309.354 164.899 313.537C164.25 317.719 161.708 320 159.382 320C157.083 320 148.402 320 148.402 320C148.402 320 146.698 317.067 150.809 316.171C154.893 315.275 156.461 310.386 156.191 305.824C155.947 301.261 156.569 295.178 156.569 295.178L165.278 293.141L167.09 295.423Z" fill="#040E0A"/>
<path d="M167.09 292.408C166.143 295.26 155.569 299.442 155.569 299.442C155.569 299.442 149.808 290.317 131.364 257.674C129.769 254.849 128.119 251.781 126.415 248.495C108.323 213.57 84.9023 155.535 84.9023 155.535L129.661 143.015C129.661 143.015 131.77 161.048 132.149 170.173C132.392 175.74 135.529 187.635 139.532 198.036C142.074 204.663 144.968 210.664 147.699 214.032C160.058 229.376 167.09 292.408 167.09 292.408Z" fill="#5E5E5E"/>
<path d="M139.532 198.009C136.719 212.321 131.554 236.328 126.415 248.495C108.323 213.57 84.9023 155.535 84.9023 155.535L129.661 143.015C129.661 143.015 131.77 161.048 132.149 170.173C132.392 175.713 135.529 187.608 139.532 198.009Z" fill="#505051"/>
<path d="M102.698 307.861C102.698 307.861 103.644 318.805 101.345 319.946L71.8672 319.891C71.8672 319.891 71.8672 316.47 76.5999 315.709C81.3327 314.949 89.6623 312.151 91.0686 305.96C92.4749 299.768 102.698 307.861 102.698 307.861Z" fill="#040E0A"/>
<path d="M77.8164 153.227C77.8164 153.227 79.385 172.427 81.1969 195.483C83.685 226.823 86.6599 265.305 86.9573 272.583C87.4712 285.239 89.5265 305.498 89.5265 305.498C89.5265 305.498 94.3945 310.305 104.13 308.295C104.13 308.295 112.812 279.373 115.273 248.793C115.3 248.305 115.354 247.789 115.381 247.273C117.68 216.123 121.276 150.565 121.276 150.565L77.8164 153.227Z" fill="#5E5E5E"/>
<path d="M118.572 48.4263C118.572 48.4263 101.074 59.9953 90.1211 56.5735C90.1211 56.5735 93.15 51.9567 96.0438 48.2633C95.6652 46.0636 95.3677 44.1354 95.2054 42.5331C94.7457 38.7854 94.7456 36.6672 94.7456 36.6672L102.075 30.8826L109.025 25.3425C108.484 40.8765 118.572 48.4263 118.572 48.4263Z" fill="#FFB27D"/>
<path d="M143.291 189.536C121.061 204.608 76.1136 200.317 75.762 200.019C75.0048 190.432 74.5991 174.599 74.3557 159.934C74.2475 153.824 74.1934 147.931 74.1394 142.771C74.0582 132.56 74.0582 125.255 74.0853 125.01C74.0853 125.01 74.0853 124.467 74.1123 123.516C74.1934 120.556 74.3557 113.794 74.545 108.743C74.5721 107.792 74.6262 106.923 74.6532 106.136C74.6532 106.081 74.6532 106.054 74.6532 106C74.7884 103.719 76.1677 97.6626 78.1149 90.6017C78.1149 90.5474 78.1419 90.5202 78.1419 90.4659C80.9815 80.1461 85.0111 67.7081 88.1212 61.9235C89.7168 58.9362 95.0716 50.3002 95.0716 50.3002C98.8578 51.0606 101.589 49.92 105.592 47.9646C109.973 45.8464 114.679 43.5652 115.436 44.1355C121.169 48.3449 125.037 57.7685 127.092 69.8263C128.309 76.8329 144.373 188.803 143.291 189.536Z" fill="#34C387"/>
<path d="M109.161 31.29C109.161 31.29 104.374 40.0618 95.2332 42.506C94.7734 38.7583 94.7734 36.64 94.7734 36.64L102.102 30.8555L109.161 31.29Z" fill="#ED985F"/>
<path d="M91.446 36.3955C91.446 36.3955 109.539 39.3557 111.242 28.194C112.946 17.0323 116.408 9.88993 104.941 7.50008C93.4473 5.13739 90.5535 9.04805 89.0661 12.66C87.5787 16.2719 86.7674 35.3364 91.446 36.3955Z" fill="#FFB27D"/>
<path d="M117.814 6.16941C117.977 5.97931 118.355 5.81637 119.194 5.78921C119.194 5.78921 118.517 5.35469 117.625 5.35469C117.436 4.18693 116.814 2.09581 114.812 1.57982C114.812 1.57982 115.894 2.15012 116.029 3.39936C113.704 0.982357 108.673 -0.755715 94.8267 0.33058C76.5448 1.79708 82.5486 13.5291 84.9285 14.9412C87.3084 16.3534 93.2581 12.4971 97.6663 12.8501C102.075 13.2032 102.913 19.5852 104.4 20.4813C105.888 21.3504 105.32 19.8024 107.321 18.8791C109.349 17.9557 109.539 21.3232 108.944 23.523C108.349 25.7227 111.134 28.6014 111.134 28.6014C111.134 28.6014 111.134 28.6014 113.947 25.5598C116.76 22.5182 119.41 9.64556 118.139 6.90266C118.031 6.65825 117.922 6.41383 117.814 6.16941Z" fill="#090909"/>
<path d="M74.1394 142.798C74.0582 132.587 74.0582 125.282 74.0853 125.037C74.0853 125.037 74.0853 124.494 74.1123 123.544C74.1934 120.583 74.3557 113.821 74.545 108.77C74.5721 107.819 74.6262 106.95 74.6532 106.163C74.6532 106.108 74.6532 106.081 74.6532 106.027C74.7884 103.746 76.1677 97.6897 78.1149 90.6288C78.1149 90.5745 78.1419 90.5473 78.1419 90.493C94.6389 72.3247 113.353 62.3851 113.353 62.3851C113.353 62.3851 118.221 125.526 74.1394 142.798Z" fill="#2FAF79"/>
<path d="M115.517 44.1897C115.517 44.1897 113.84 39.2742 112.461 38.7311C112.461 38.7311 93.4218 43.1306 87.0664 64.2862C87.0664 64.2862 94.4765 51.3049 115.517 44.1897Z" fill="#E4E4E4"/>
<path d="M18.2653 109.72L17.1565 109.992C16.9131 110.046 16.6697 109.883 16.6156 109.639L0.0104831 33.6255C-0.0436053 33.3811 0.11866 33.1366 0.335014 33.0823C0.578411 33.028 0.821809 33.1638 0.875898 33.4082L18.5899 109.177C18.6439 109.422 18.5087 109.666 18.2653 109.72Z" fill="#2C3A64"/>
<path d="M15.2353 87.6415C15.2353 87.6415 11.2327 81.0151 9.42077 80.4448C7.60881 79.9016 6.98679 83.595 7.33837 85.9306C7.74403 88.5648 8.63649 91.1719 10.4484 91.9052C12.2604 92.6656 13.8831 92.91 13.8831 92.91L15.2353 87.6415Z" fill="#F9C29D"/>
<path d="M15.7495 87.5057C15.7495 87.5057 15.3438 85.1702 14.7488 84.79C14.1538 84.4098 11.828 83.758 11.2601 83.8395C10.6922 83.921 13.7211 88.1575 14.5595 88.239C15.3979 88.3205 15.7495 87.5057 15.7495 87.5057Z" fill="#F9C29D"/>
<path d="M118.464 63.6887C118.464 63.6887 112.135 97.2552 67.1069 107.331C54.964 110.046 12.0178 93.9149 12.0178 93.9149C12.0178 93.9149 12.8291 88.1032 16.5612 86.9898C16.5612 86.9898 58.1012 88.4563 61.4006 90.4931C64.3213 92.3398 93.3127 67.6266 102.264 64.0689C111.189 60.5113 118.464 63.6887 118.464 63.6887Z" fill="#34C387"/>
</svg>
