<svg width="440" height="420" viewBox="0 0 440 420" fill="none" xmlns="http://www.w3.org/2000/svg">
<path d="M437.767 420H18.7575C18.0188 420 17.4443 419.398 17.4443 418.687V418.523C17.4443 417.784 18.0462 417.21 18.7575 417.21H437.767C438.505 417.21 439.08 417.812 439.08 418.523V418.687C439.107 419.398 438.505 420 437.767 420Z" fill="#144A33"/>
<path d="M118.805 64.0849L117.081 60.0641L112.786 59.2161C112.294 59.1067 112.129 58.505 112.512 58.1767L115.795 55.3047L115.276 50.9556C115.221 50.4632 115.741 50.1076 116.178 50.3812L119.926 52.6241L123.893 50.7915C124.358 50.5726 124.851 50.9829 124.741 51.4753L123.784 55.7423L126.738 58.9426C127.067 59.2982 126.848 59.9 126.355 59.9547L122.006 60.365L119.872 64.167C119.653 64.5773 118.996 64.5226 118.805 64.0849Z" fill="#EF586E"/>
<path d="M320.485 6.80795L321.826 5.08472L326.012 8.36706L329.541 2.15796L331.456 3.22472L326.668 11.6221L320.485 6.80795Z" fill="#2FAF79"/>
<path d="M157.352 11.7315C156.75 17.585 151.524 21.852 145.67 21.2776C139.815 20.6759 135.548 15.4515 136.122 9.59796C136.724 3.74445 141.949 -0.522596 147.804 0.0518135C153.686 0.653576 157.954 5.87797 157.352 11.7315Z" fill="#FFB93E"/>
<path d="M140.91 11.7588C140.582 14.9044 142.88 17.6944 145.999 17.9952C149.145 18.3235 151.935 16.0258 152.236 12.9076L140.91 11.7588Z" fill="#EFEFEF"/>
<path d="M345.9 45.649L349.128 42.2026L347.35 41.0264C346.967 40.7802 346.858 40.2332 347.104 39.8502C347.35 39.4673 347.897 39.3579 348.28 39.6041L350.332 40.9717L353.232 37.8808L351.317 36.6226C350.934 36.3764 350.825 35.8294 351.071 35.4464C351.317 35.0635 351.864 34.9541 352.247 35.2002L354.436 36.65L357.773 33.0941C358.047 32.7932 358.512 32.7385 358.868 32.9573L359.196 33.1761C359.634 33.477 359.716 34.0788 359.36 34.4617L356.241 37.8261L359.415 39.9323L362.753 36.3764C363.026 36.0755 363.491 36.0208 363.847 36.2397L364.203 36.4858C364.64 36.7867 364.722 37.3885 364.367 37.7714L361.248 41.1358L363.026 42.312C363.409 42.5582 363.519 43.1052 363.272 43.4882C363.026 43.8711 362.479 43.9805 362.096 43.7343L360.044 42.3667L357.199 45.4849L359.114 46.7432C359.497 46.9893 359.606 47.5364 359.36 47.9193C359.114 48.3023 358.567 48.4117 358.184 48.1655L355.995 46.7158L352.576 50.3811C352.302 50.682 351.837 50.7367 351.481 50.5178L351.098 50.2717C350.66 49.9708 350.578 49.369 350.934 48.9861L354.162 45.5396L350.989 43.4335L347.569 47.0987C347.295 47.3996 346.83 47.4543 346.475 47.2355L346.092 46.9893C345.627 46.6611 345.545 46.0593 345.9 45.649ZM355.339 44.2814L358.239 41.1905L355.065 39.0844L352.165 42.1752L355.339 44.2814Z" fill="#F38696"/>
<path d="M235.321 19.3901C235.321 19.3901 237.318 15.889 242.023 15.3693C246.209 14.9043 249.465 17.9131 249.902 21.7698C250.395 26.2557 247.084 31.9998 237.4 37.7439C226.676 34.2701 222.162 29.4286 221.669 24.9428C221.232 21.086 223.748 17.4207 227.934 16.9557C232.585 16.4087 235.321 19.3901 235.321 19.3901Z" fill="#F16F82"/>
<path d="M200.932 25.0248C205.063 25.2163 208.401 25.1889 211.684 24.9701C212.751 24.9154 214.666 25.1069 215.35 24.1495C215.705 23.6572 215.733 23.0554 215.268 22.5904C214.42 21.7425 212.805 22.2075 211.711 22.2622C208.401 22.4536 204.626 22.5357 200.823 22.3716C200.112 22.3442 199.537 23.0828 199.564 23.7392C199.592 24.5325 200.221 24.9975 200.932 25.0248Z" fill="#F16F82"/>
<path d="M256.851 30.1946C258.438 30.1125 260.024 30.0305 261.611 29.9211C263.143 29.839 264.949 30.0031 266.344 29.374C267.384 28.9364 267.384 27.514 266.262 27.1858C264.785 26.7481 263.034 27.1311 261.502 27.2131C259.915 27.3225 258.328 27.4046 256.741 27.5414C255.045 27.7055 255.127 30.2767 256.851 30.1946Z" fill="#F16F82"/>
<path d="M216.799 44.965C218.605 41.5185 220.958 40.3424 222.736 38.9474C223.694 38.2088 223.064 36.7591 221.861 37.0327C218.55 37.7438 215.924 40.8894 214.447 43.7615C213.708 45.2659 216.033 46.4694 216.799 44.965Z" fill="#F16F82"/>
<path d="M235.594 52.2683C235.43 50.6271 235.594 49.0133 236.114 47.4542C236.442 46.4968 238.166 43.7889 236.278 43.406C234.5 43.0504 233.706 45.9771 233.378 47.2354C232.913 48.9039 232.776 50.6818 232.968 52.3777C233.104 54.0736 235.758 53.9915 235.594 52.2683Z" fill="#F16F82"/>
<path d="M248.48 41.5185C249.41 42.1203 250.313 42.6947 251.243 43.2965C252.174 43.8982 253.049 44.7735 254.198 44.4726C254.855 44.3085 255.074 43.6247 254.964 43.0503C254.773 41.9835 253.323 41.4365 252.474 40.8894C251.544 40.315 250.642 39.7132 249.711 39.1388C249.109 38.7559 248.207 39.1115 247.906 39.7132C247.55 40.3971 247.878 41.1082 248.48 41.5185Z" fill="#F16F82"/>
<path d="M223.83 10.2816C220 2.37661 220.055 2.32191 219.344 1.69279C218.605 1.03632 217.346 1.58339 217.401 2.59544C217.456 3.6075 217.456 3.41603 221.532 11.7586C221.86 12.4151 222.845 12.5245 223.42 12.1689C224.104 11.7313 224.158 10.938 223.83 10.2816Z" fill="#F16F82"/>
<path d="M238.33 9.3517C238.795 7.98406 239.069 6.56171 239.233 5.11201C239.37 3.77172 239.753 1.74761 238.467 0.872314C238.194 0.680844 237.701 0.735553 237.428 0.927023C236.333 1.74761 236.689 3.5529 236.552 4.78378C236.415 6.12407 236.115 7.46435 235.759 8.77729C235.567 9.46111 236.087 10.1996 236.771 10.3364C237.51 10.5279 238.084 10.0355 238.33 9.3517Z" fill="#F16F82"/>
<path d="M258.848 9.51591C259.039 8.88679 258.52 8.33974 257.973 8.14827C256.851 7.76533 255.483 8.91415 254.58 9.51591C253.541 10.1997 252.583 10.993 251.68 11.8409C251.16 12.3333 251.27 13.2632 251.79 13.7282C252.364 14.2479 253.13 14.1112 253.677 13.6188C257.206 10.5553 258.328 11.075 258.848 9.51591Z" fill="#F16F82"/>
<path d="M405.54 64.0027L403.187 66.6833L399.111 65.2336L395.281 68.9262L391.806 68.4065L390.794 70.2118L395.417 70.9229L399.056 67.4218L403.296 68.9262L406.825 64.878L405.54 64.0027Z" fill="#FFB93E"/>
<path d="M53.3648 53.3353C49.9998 58.04 53.1186 64.8782 57.9609 67.0664C63.323 69.5008 69.9709 67.6135 73.4727 62.9635C77.248 57.9032 76.3179 51.7488 71.4208 48.5759C66.6606 45.5124 61.107 48.2203 60.1222 53.4447C59.4382 57.192 61.7089 59.9547 63.6513 59.8726C65.1833 59.7906 66.0314 58.04 64.8003 56.9732C64.3079 56.5629 63.5692 56.5629 63.0494 56.8091C62.0919 55.6603 62.1193 52.8429 64.1984 50.8735C66.8521 48.3571 70.7916 50.2718 72.4331 52.9797C74.5123 56.4261 72.8982 60.5838 70.0803 63.1002C67.1531 65.7261 62.557 66.5741 58.9184 64.9602C54.8148 63.1002 52.9545 58.2041 54.7601 54.1012C55.2251 53.1438 53.9667 52.4873 53.3648 53.3353Z" fill="#58D29F"/>
<path d="M90.9814 395.328C90.9814 395.328 90.3795 406.324 90.3795 406.351C90.1606 407.746 89.2578 411.192 89.2578 412.478C89.2852 417.237 110.569 408.348 105.782 406.241C105.344 406.05 102.389 403.533 102.253 401.92C102.034 399.431 102.143 395.437 102.143 395.437L90.9814 395.328Z" fill="#FFB27D"/>
<path d="M105.755 406.187C105.755 406.187 100.748 407.664 98.1769 408.047C95.6053 408.43 92.2129 405.366 90.4073 406.214C88.4102 407.144 88.3008 417.648 88.3008 417.648C88.3008 417.648 114.564 419.535 121.294 417.566C124.331 416.69 116.014 409.551 105.755 406.187Z" fill="#040E0A"/>
<path d="M132.127 395.164C132.127 395.164 131.525 406.159 131.525 406.187C131.306 407.582 130.403 411.028 130.403 412.314C130.431 417.073 151.715 408.184 146.927 406.077C146.49 405.886 143.535 403.369 143.398 401.756C143.179 399.266 143.289 395.273 143.289 395.273L132.127 395.164Z" fill="#FFB27D"/>
<path d="M146.9 406.023C146.9 406.023 141.894 407.5 139.322 407.883C136.751 408.266 133.358 405.202 131.553 406.05C129.556 406.98 129.446 417.483 129.446 417.483C129.446 417.483 155.71 419.371 162.439 417.401C165.476 416.499 157.159 409.36 146.9 406.023Z" fill="#040E0A"/>
<path d="M149.336 106.646C150.047 112.007 150.895 111.679 150.95 112.363C151.032 113.183 146.135 123.057 146.135 123.057C146.135 123.057 131.854 152.243 131.033 153.802L105.536 175.329L112.211 191.139C112.211 191.139 139.35 166.959 140.554 165.454C141.758 163.95 156.613 122.237 158.035 118.599C158.035 118.599 161.291 114.879 163.261 112.472C165.23 110.065 166.051 106.919 166.516 106.153C166.571 106.044 167.939 103.418 168.787 99.7529C169.526 96.5799 167.419 99.2605 167.419 99.2605C167.419 99.2605 165.039 104.895 164.629 104.622C164.328 104.43 165.805 101.421 166.653 97.9202C166.872 97.0176 167.091 96.1423 167.282 95.3217C167.775 93.1882 166.626 92.2855 165.778 94.4464C165.477 95.2123 164.984 96.4979 164.793 97.4552C164.574 98.4946 164.027 99.3699 163.698 100.218C163.042 101.886 162.604 103.117 162.549 103.063C162.467 102.98 162.112 103.227 162.331 102.269C162.577 101.12 163.616 98.7682 163.835 97.0449C163.972 96.0602 164.355 94.0361 164.355 94.0361C164.355 94.0361 164.382 90.8632 164.218 90.8085C163.233 90.4803 162.632 92.6411 162.604 93.9814C162.166 94.8567 161.811 96.9902 161.811 96.9902C161.811 96.9902 160.142 101.175 159.567 100.956C159.321 100.874 160.033 98.1664 160.333 95.4311C160.607 92.8873 160.498 90.2614 160.005 90.152C159.184 89.9332 158.583 92.7505 158.583 92.7505C158.583 92.7505 158.254 94.7199 158.09 95.3764C157.899 96.1423 157.187 98.3852 157.187 98.3852C157.187 98.3852 154.315 106.099 153.795 105.825C153.275 105.579 152.181 104.348 152.181 103.801C152.208 103.254 152.728 102.297 152.755 101.75C152.783 101.203 152.345 100.491 151.688 100.437C151.032 100.382 149.992 102.953 149.992 102.953C149.992 102.953 149.117 105.087 149.336 106.646Z" fill="#FFB27D"/>
<path d="M20.7275 117.56C21.0558 122.975 20.153 122.784 20.2077 123.468C20.2898 124.288 26.9651 133.069 26.9651 133.069C26.9651 133.069 46.4984 159.054 47.5927 160.421L76.6739 176.778L73.09 193.518C73.09 193.518 41.9023 174.891 40.425 173.633C38.9477 172.375 16.5418 134.217 14.4626 130.935C14.4626 130.935 10.5779 127.899 8.19774 125.902C5.81763 123.905 4.39504 120.979 3.82053 120.322C3.73845 120.213 1.90549 117.915 0.373465 114.469C-0.9397 111.487 1.63192 113.73 1.63192 113.73C1.63192 113.73 5.02426 118.818 5.37991 118.49C5.65349 118.243 3.62902 115.563 2.15171 112.28C1.7687 111.433 1.3857 110.612 1.05741 109.846C0.181962 107.822 1.11212 106.728 2.37057 108.697C2.80829 109.381 3.51959 110.557 3.9026 111.46C4.31296 112.445 5.02426 113.21 5.48934 113.976C6.44685 115.508 7.10344 116.63 7.15815 116.547C7.21287 116.465 7.59588 116.63 7.24023 115.727C6.77515 114.633 5.3252 112.527 4.77804 110.885C4.47711 109.955 3.71109 108.041 3.71109 108.041C3.71109 108.041 3.08187 104.923 3.24602 104.84C4.14882 104.321 5.16105 106.345 5.43462 107.658C6.03649 108.424 6.77515 110.475 6.77515 110.475C6.77515 110.475 9.20997 114.277 9.72977 113.949C9.94863 113.812 8.7449 111.296 7.92417 108.67C7.15816 106.208 6.80251 103.637 7.24023 103.418C8.00624 103.063 9.1279 105.688 9.1279 105.688C9.1279 105.688 9.81184 107.576 10.0854 108.178C10.4137 108.889 11.5354 110.968 11.5354 110.968C11.5354 110.968 15.8032 117.997 16.2682 117.642C16.7333 117.286 17.5814 115.891 17.472 115.344C17.3625 114.824 16.6512 113.949 16.5418 113.429C16.4324 112.91 16.706 112.116 17.3352 111.952C17.9644 111.761 19.4691 114.113 19.4691 114.113C19.4691 114.113 20.6455 116 20.7275 117.56Z" fill="#FFB27D"/>
<path d="M96.7539 255.363C96.7539 255.363 129.309 331.705 130.513 338.571C131.389 343.603 130.431 400.798 130.431 400.798L145.724 400.497L150.895 335.124L130.541 252.819L96.7539 255.363Z" fill="#EF586E"/>
<path d="M82.5557 259.028L97.5476 343.904L88.0819 400.771L105.481 400.689L118.969 339.528L120.665 272.568L113.552 251.041L82.5557 259.028Z" fill="#F16F82"/>
<path d="M124.467 158.042C124.467 158.042 128.325 175.137 131.033 177.791C131.033 177.791 117.409 186.926 118.038 190.51C118.695 194.093 133.386 261.271 133.386 261.271C133.386 261.271 103.593 276.863 85.0175 274.455C85.0175 274.455 70.8189 197.95 67.1804 194.366C63.5418 190.783 52.2979 185.148 52.2979 185.148C52.2979 185.148 60.6419 169.092 60.6419 166.248C60.6419 166.248 80.5856 175.383 83.9779 178.693C87.3429 182.03 93.854 177.763 95.4408 177.079C95.4134 177.079 122.087 159.491 124.467 158.042Z" fill="#34C387"/>
<path d="M86.5501 163.102L84.0605 178.83C84.0605 178.83 90.7358 189.771 96.0158 188.13C100.475 186.735 100.065 178.064 100.065 178.064C100.065 178.064 97.6026 169.12 98.3139 164.607C99.0525 160.093 86.5501 163.102 86.5501 163.102Z" fill="#FFB27D"/>
<path d="M98.341 164.606C99.0523 160.121 86.5499 163.102 86.5499 163.102L86.3584 164.415C86.714 165.29 87.1791 166.056 87.7263 166.631C90.5168 169.585 94.894 171.363 98.6693 171.472C98.2863 169.038 98.0401 166.439 98.341 164.606Z" fill="#E8945B"/>
<path d="M84.4443 140.673C84.0886 140.536 81.6538 158.726 86.3867 163.731C91.1195 168.709 100.284 170.323 103.567 166.357C107.206 161.981 106.96 142.451 99.6278 137.336C92.2686 132.221 84.4443 140.673 84.4443 140.673Z" fill="#FFB27D"/>
<path d="M84.8269 130.662C82.2553 130.962 77.7686 134.518 74.1848 140.426C69.7802 147.702 75.3612 156.565 80.5318 160.476C85.7023 164.388 85.6203 168.955 85.6203 168.955L86.4684 166.576C87.0702 164.798 87.3164 162.911 87.0976 161.023C86.9608 159.902 86.7146 158.698 86.2495 157.686C84.991 155.06 88.9032 153.282 89.9975 151.094C90.8456 149.398 90.8729 145.541 92.1861 142.751L93.7728 140.618C93.7728 140.618 98.2595 140.974 101.023 138.566C108.929 131.674 96.7822 122.592 84.8269 130.662Z" fill="#580914"/>
<path d="M89.7788 154.376C89.8336 156.592 88.794 158.425 87.5082 158.452C86.2224 158.479 85.1281 156.701 85.0734 154.486C85.0186 152.27 86.0582 150.438 87.344 150.41C88.6572 150.383 89.7241 152.161 89.7788 154.376Z" fill="#FFB27D"/>
<path d="M362.095 126.614C354.271 122.374 344.805 124.07 339.416 131.045C334.683 129.595 329.348 130.169 325.108 132.604C316.764 137.418 311.648 150.903 318.405 158.233C320.047 165.783 323.056 171.718 330.552 171.828C334.984 179.952 348.772 182.331 356.733 174.7C363.682 176.888 371.123 172.922 375.966 167.397C377.115 166.084 378.072 164.032 378.51 163.759C378.51 163.759 396.457 160.449 394.815 143.08C393.146 124.89 374.27 112.335 362.095 126.614Z" fill="#040E0A"/>
<path d="M293.538 344.096C293.948 351.974 295.425 359.031 295.644 359.878C295.754 360.289 297.039 361.875 297.149 362.285C295.206 371.558 288.805 376.345 282.95 379.6C284.701 375.032 287.957 369.944 287.765 368.85C287.437 367.1 286.315 359.195 283.087 348.992C287.628 349.074 289.571 346.476 293.538 344.096Z" fill="#FFB27D"/>
<path d="M315.451 231.074L343.356 253.667C343.356 253.667 329.294 267.508 324.041 272.678C318.761 277.82 292.252 296.393 291.787 297.569C291.705 297.815 293.1 300.632 293.51 304.161C294.686 313.68 296 332.225 296.383 348.117C293.373 351.262 286.89 352.001 283.005 352.986C273.457 333.456 270.01 295.982 270.037 291.469C270.065 284.139 315.451 231.074 315.451 231.074Z" fill="#2FAF79"/>
<path d="M396.812 280.2C395.718 280.911 387.128 291.606 383.462 297.541C380.617 294.587 379.194 291.497 375.802 289.144C379.687 285.424 387.702 276.152 388.715 273.717C391.122 267.973 392.627 267.399 392.627 267.399C392.627 267.399 410.409 278.777 411.257 280.993C412.105 283.236 401.19 277.382 396.812 280.2Z" fill="#FFB27D"/>
<path d="M388.195 275.03C386.69 274.674 389.864 268 390.548 266.468C391.341 264.718 392.463 264.417 392.737 264.417C393.448 264.39 413.2 277.027 416.237 280.61C416.428 280.856 416.756 281.54 416.784 281.677C417.933 285.998 400.123 282.552 397.962 280.282C396.019 278.23 394.898 276.589 388.195 275.03Z" fill="#040E0A"/>
<path d="M309.377 237.611L335.914 226.369C335.804 226.424 336.051 227.409 336.078 227.491C340.018 236.49 349.292 236.216 353.614 250.823C357.034 262.366 355.119 301.015 355.119 301.015C355.119 301.015 366.609 292.645 378.674 283.701C379.768 282.88 388.413 292.481 388.413 292.481C371.999 319.971 346.611 330.584 343.382 329.298C332.412 324.976 316.107 251.178 316.134 251.178C314 246.775 309.377 237.611 309.377 237.611Z" fill="#34C387"/>
<path d="M349.292 175.548C349.292 175.548 379.495 169.503 386.197 168.573C392.927 167.643 416.373 160.121 417.248 159.792C418.151 159.464 421.817 147.237 423.103 148.167C424.389 149.097 420.914 154.322 422.528 155.088C424.142 155.881 438.286 150.082 438.368 151.258C438.478 153.474 429.833 155.142 430.079 156.182C430.325 157.194 438.943 153.556 439.928 155.142C440.913 156.702 431.447 157.796 431.255 158.644C431.064 159.491 440.311 158.862 439.764 160.64C439.463 161.625 431.529 160.996 431.83 162.172C432.131 163.348 438.15 164.771 437.712 165.865C437.247 166.959 432.815 163.95 429.669 164.634C426.523 165.29 423.869 164.087 419.191 166.685C414.513 169.256 399.028 180.362 388.222 182.249C377.388 184.164 353.505 188.431 353.505 188.431L349.292 175.548Z" fill="#FFB27D"/>
<path d="M314.493 172.293C314.493 172.293 303.058 143.709 300.185 137.555C297.285 131.428 290.802 107.685 290.556 106.755C290.337 105.825 298.571 96.0877 297.094 95.5132C295.617 94.9388 293.127 100.71 291.595 99.7803C290.063 98.8503 287.191 83.8336 286.151 84.4353C284.236 85.5294 287.546 93.7079 286.561 94.0635C285.576 94.4191 283.908 85.2286 282.075 85.2559C280.214 85.2833 284.482 93.79 283.88 94.4191C283.278 95.0482 278.764 86.9518 277.561 88.3741C276.904 89.1674 281.774 95.4859 280.625 95.8688C279.476 96.2518 274.989 91.9847 274.332 92.9694C273.676 93.9268 278.6 96.0329 279.777 99.0417C280.953 102.051 283.388 103.61 283.798 108.943C284.209 114.277 283.36 133.288 287.683 143.381C292.005 153.474 301.471 175.821 301.471 175.821L314.493 172.293Z" fill="#FFB27D"/>
<path d="M305.383 206.62C305.028 201.314 304.453 186.981 304.699 185.231C303.222 179.705 297.696 171.472 296.547 169.147C296.547 169.147 304.234 160.23 309.87 160.367C309.87 160.367 315.779 168.326 320.211 170.816C320.266 170.788 321.771 171.527 322.454 171.527C326.75 171.527 341.769 171.199 344.559 172.101L342.726 196.336C341.906 197.731 340.647 225.576 338.978 227.874C337.31 230.171 313.016 240.346 309.049 237.639C308.858 237.502 306.122 217.343 305.383 206.62Z" fill="#F16F82"/>
<path d="M336.872 172.402C337.556 172.074 339.143 171.718 341.441 171.691C348.253 171.636 359.716 171.472 359.716 171.472C359.716 171.472 362.369 186.079 360.071 189.552C360.071 189.552 342.125 192.151 342.617 193.71L336.872 172.402Z" fill="#F16F82"/>
<path d="M332.303 162.692C332.303 162.692 330.661 171.089 330.935 174.399C331.208 177.709 329.622 188.404 322.892 188.376C316.162 188.349 321.743 174.782 322.399 171.527C323.056 168.272 323.302 158.233 323.302 158.233L332.303 162.692Z" fill="#FFB27D"/>
<path d="M323.166 163.266C323.303 160.503 323.358 158.206 323.358 158.206L332.331 162.692C332.331 162.692 332.003 164.415 331.647 166.603C327.68 167.396 324.835 165.837 323.166 163.266Z" fill="#E8945B"/>
<path d="M335.832 139.524C335.832 139.524 339.279 141.575 340.51 145.952C341.741 150.328 340.182 161.57 331.181 164.196C322.181 166.822 318.378 157.878 320.293 150.93C322.208 143.955 326.339 135.175 335.832 139.524Z" fill="#FFB27D"/>
<path d="M319.199 148.195C319.364 150.082 320.321 151.505 321.388 151.423C322.428 151.313 323.139 149.727 323.002 147.867C322.838 145.979 321.88 144.557 320.814 144.639C319.774 144.721 319.063 146.335 319.199 148.195Z" fill="#FFB27D"/>
<path d="M295.699 360.125C296.438 358.73 301.526 364.2 302.757 365.322C304.125 366.607 304.098 367.811 304.016 368.084C303.824 368.795 287.082 385.426 282.567 387.45C282.13 387.642 281.309 387.532 281.063 387.395C278.847 386.137 284.537 371.449 287.984 368.85C290.2 367.182 292.362 366.416 295.699 360.125Z" fill="#040E0A"/>
<path d="M334.793 138.949C334.793 138.949 336.298 151.532 340.155 153.829C344.012 156.127 342.344 161.68 342.344 161.68C342.344 161.68 345.982 148.769 342.973 144.584C339.909 140.399 334.793 138.949 334.793 138.949Z" fill="#040E0A"/>
<path d="M337.83 155.607C336.763 157.221 336.735 159.163 337.802 159.929C338.842 160.695 340.565 159.984 341.632 158.343C342.699 156.729 342.727 154.787 341.66 154.021C340.62 153.255 338.897 153.966 337.83 155.607Z" fill="#FFB27D"/>
</svg>
